M48
; DRILL file {KiCad 5.1.10-1.fc33} date Wed Jun 16 23:56:21 2021
; FORMAT={-:-/ absolute / inch / decimal}
; #@! TF.CreationDate,2021-06-16T23:56:21+02:00
; #@! TF.GenerationSoftware,Kicad,Pcbnew,5.1.10-1.fc33
FMAT,2
INCH
T1C0.0157
T2C0.0236
T3C0.0394
T4C0.0236
%
G90
G05
T1
X2.95Y-3.965
X3.0Y-2.5
X3.03Y-3.65
X3.04Y-3.05
X3.04Y-3.55
X3.055Y-2.67
X3.06Y-3.35
X3.063Y-3.9528
X3.07Y-3.17
X3.07Y-2.83
X3.075Y-3.63
X3.085Y-3.51
X3.1Y-2.67
X3.1Y-3.13
X3.1Y-3.78
X3.105Y-2.745
X3.115Y-2.84
X3.12Y-2.625
X3.14Y-3.035
X3.145Y-3.17
X3.145Y-3.275
X3.145Y-3.455
X3.15Y-3.41
X3.15Y-3.55
X3.21Y-3.585
X3.23Y-3.8175
X3.25Y-3.095
X3.255Y-3.585
X3.2609Y-2.7897
X3.275Y-3.995
X3.28Y-2.695
X3.285Y-2.97
X3.295Y-2.555
X3.315Y-3.55
X3.3243Y-2.5874
X3.3327Y-3.4173
X3.3363Y-3.4624
X3.35Y-2.45
X3.35Y-3.52
X3.35Y-3.75
X3.35Y-3.82
X3.3504Y-2.8569
X3.355Y-2.745
X3.3594Y-2.9706
X3.36Y-3.96
X3.3653Y-2.7886
X3.37Y-2.555
X3.3994Y-2.9706
X3.405Y-3.9933
X3.4283Y-2.5521
X3.4344Y-3.3154
X3.44Y-3.09
X3.455Y-2.695
X3.455Y-2.745
X3.465Y-2.8
X3.465Y-2.85
X3.4679Y-2.8971
X3.47Y-3.1852
X3.4807Y-2.9544
X3.49Y-3.3126
X3.51Y-3.715
X3.515Y-2.8
X3.515Y-2.85
X3.515Y-2.9
X3.515Y-3.81
X3.5176Y-3.455
X3.5176Y-3.52
X3.525Y-3.66
X3.55Y-2.505
X3.565Y-2.655
X3.565Y-3.04
X3.5676Y-3.5804
X3.5705Y-3.407
X3.5901Y-3.2505
X3.6237Y-3.23
X3.64Y-2.92
X3.64Y-2.98
X3.64Y-3.04
X3.6457Y-3.9449
X3.65Y-3.135
X3.68Y-2.835
X3.71Y-2.795
X3.73Y-2.835
X3.735Y-2.59
X3.735Y-2.67
X3.7435Y-3.5512
X3.7435Y-3.6535
T3
X3.0Y-2.9
X3.0Y-3.0
X3.0Y-3.1
X3.0Y-3.2
X3.0Y-3.3
X3.0Y-3.4
X3.0Y-3.5
X3.0Y-3.6
X3.0Y-3.7
X3.0Y-3.8
X3.0Y-3.9
X3.7Y-2.9
X3.7Y-3.0
X3.7Y-3.1
X3.7Y-3.2
X3.7Y-3.3
X3.7Y-3.4
X3.7Y-3.5
X3.7Y-3.6
X3.7Y-3.7
X3.7Y-3.8
X3.7Y-3.9
T4
X3.2327Y-2.6055
X3.4602Y-2.6055
T2
G00X3.1749Y-4.0582
M15
G01X3.1749Y-4.0818
M16
G05
G00X3.1749Y-4.2078
M15
G01X3.1749Y-4.2314
M16
G05
G00X3.1762Y-2.4823
M15
G01X3.1762Y-2.439
M16
G05
G00X3.1762Y-2.6469
M15
G01X3.1762Y-2.6035
M16
G05
G00X3.5151Y-4.0582
M15
G01X3.5151Y-4.0818
M16
G05
G00X3.5151Y-4.2078
M15
G01X3.5151Y-4.2314
M16
G05
G00X3.5167Y-2.4823
M15
G01X3.5167Y-2.439
M16
G05
G00X3.5167Y-2.6469
M15
G01X3.5167Y-2.6035
M16
G05
T0
M30
