G04 #@! TF.GenerationSoftware,KiCad,Pcbnew,5.1.10-1.fc33*
G04 #@! TF.CreationDate,2021-06-16T23:56:17+02:00*
G04 #@! TF.ProjectId,CH552-USB-Devboard-PCBA,43483535-322d-4555-9342-2d446576626f,rev?*
G04 #@! TF.SameCoordinates,Original*
G04 #@! TF.FileFunction,Copper,L2,Bot*
G04 #@! TF.FilePolarity,Positive*
%FSLAX46Y46*%
G04 Gerber Fmt 4.6, Leading zero omitted, Abs format (unit mm)*
G04 Created by KiCad (PCBNEW 5.1.10-1.fc33) date 2021-06-16 23:56:17*
%MOMM*%
%LPD*%
G01*
G04 APERTURE LIST*
G04 #@! TA.AperFunction,EtchedComponent*
%ADD10C,0.100000*%
G04 #@! TD*
G04 #@! TA.AperFunction,ComponentPad*
%ADD11O,1.100000X1.700000*%
G04 #@! TD*
G04 #@! TA.AperFunction,SMDPad,CuDef*
%ADD12C,0.100000*%
G04 #@! TD*
G04 #@! TA.AperFunction,ComponentPad*
%ADD13O,0.900000X2.000000*%
G04 #@! TD*
G04 #@! TA.AperFunction,ComponentPad*
%ADD14O,1.700000X1.700000*%
G04 #@! TD*
G04 #@! TA.AperFunction,ComponentPad*
%ADD15R,1.700000X1.700000*%
G04 #@! TD*
G04 #@! TA.AperFunction,ViaPad*
%ADD16C,0.800000*%
G04 #@! TD*
G04 #@! TA.AperFunction,Conductor*
%ADD17C,0.200000*%
G04 #@! TD*
G04 #@! TA.AperFunction,Conductor*
%ADD18C,0.400000*%
G04 #@! TD*
G04 #@! TA.AperFunction,Conductor*
%ADD19C,0.100000*%
G04 #@! TD*
G04 APERTURE END LIST*
D10*
G36*
X80091000Y-69846000D02*
G01*
X80091000Y-69346000D01*
X80691000Y-69346000D01*
X80691000Y-69846000D01*
X80091000Y-69846000D01*
G37*
G36*
X82631000Y-69338000D02*
G01*
X82631000Y-68838000D01*
X83231000Y-68838000D01*
X83231000Y-69338000D01*
X82631000Y-69338000D01*
G37*
G36*
X85298000Y-68068000D02*
G01*
X85298000Y-67568000D01*
X85898000Y-67568000D01*
X85898000Y-68068000D01*
X85298000Y-68068000D01*
G37*
G36*
X87422000Y-87888000D02*
G01*
X87422000Y-88388000D01*
X86822000Y-88388000D01*
X86822000Y-87888000D01*
X87422000Y-87888000D01*
G37*
D11*
X89283000Y-103378000D03*
X80643000Y-103378000D03*
X80643000Y-107178000D03*
X89283000Y-107178000D03*
G04 #@! TA.AperFunction,SMDPad,CuDef*
D12*
G36*
X78220000Y-69746000D02*
G01*
X78220000Y-70246000D01*
X78219398Y-70246000D01*
X78219398Y-70270534D01*
X78214588Y-70319365D01*
X78205016Y-70367490D01*
X78190772Y-70414445D01*
X78171995Y-70459778D01*
X78148864Y-70503051D01*
X78121604Y-70543850D01*
X78090476Y-70581779D01*
X78055779Y-70616476D01*
X78017850Y-70647604D01*
X77977051Y-70674864D01*
X77933778Y-70697995D01*
X77888445Y-70716772D01*
X77841490Y-70731016D01*
X77793365Y-70740588D01*
X77744534Y-70745398D01*
X77720000Y-70745398D01*
X77720000Y-70746000D01*
X77220000Y-70746000D01*
X77220000Y-70745398D01*
X77195466Y-70745398D01*
X77146635Y-70740588D01*
X77098510Y-70731016D01*
X77051555Y-70716772D01*
X77006222Y-70697995D01*
X76962949Y-70674864D01*
X76922150Y-70647604D01*
X76884221Y-70616476D01*
X76849524Y-70581779D01*
X76818396Y-70543850D01*
X76791136Y-70503051D01*
X76768005Y-70459778D01*
X76749228Y-70414445D01*
X76734984Y-70367490D01*
X76725412Y-70319365D01*
X76720602Y-70270534D01*
X76720602Y-70246000D01*
X76720000Y-70246000D01*
X76720000Y-69746000D01*
X78220000Y-69746000D01*
G37*
G04 #@! TD.AperFunction*
G04 #@! TA.AperFunction,SMDPad,CuDef*
G36*
X76720602Y-68946000D02*
G01*
X76720602Y-68921466D01*
X76725412Y-68872635D01*
X76734984Y-68824510D01*
X76749228Y-68777555D01*
X76768005Y-68732222D01*
X76791136Y-68688949D01*
X76818396Y-68648150D01*
X76849524Y-68610221D01*
X76884221Y-68575524D01*
X76922150Y-68544396D01*
X76962949Y-68517136D01*
X77006222Y-68494005D01*
X77051555Y-68475228D01*
X77098510Y-68460984D01*
X77146635Y-68451412D01*
X77195466Y-68446602D01*
X77220000Y-68446602D01*
X77220000Y-68446000D01*
X77720000Y-68446000D01*
X77720000Y-68446602D01*
X77744534Y-68446602D01*
X77793365Y-68451412D01*
X77841490Y-68460984D01*
X77888445Y-68475228D01*
X77933778Y-68494005D01*
X77977051Y-68517136D01*
X78017850Y-68544396D01*
X78055779Y-68575524D01*
X78090476Y-68610221D01*
X78121604Y-68648150D01*
X78148864Y-68688949D01*
X78171995Y-68732222D01*
X78190772Y-68777555D01*
X78205016Y-68824510D01*
X78214588Y-68872635D01*
X78219398Y-68921466D01*
X78219398Y-68946000D01*
X78220000Y-68946000D01*
X78220000Y-69446000D01*
X76720000Y-69446000D01*
X76720000Y-68946000D01*
X76720602Y-68946000D01*
G37*
G04 #@! TD.AperFunction*
G04 #@! TA.AperFunction,SMDPad,CuDef*
G36*
X81140398Y-70246000D02*
G01*
X81140398Y-70270534D01*
X81135588Y-70319365D01*
X81126016Y-70367490D01*
X81111772Y-70414445D01*
X81092995Y-70459778D01*
X81069864Y-70503051D01*
X81042604Y-70543850D01*
X81011476Y-70581779D01*
X80976779Y-70616476D01*
X80938850Y-70647604D01*
X80898051Y-70674864D01*
X80854778Y-70697995D01*
X80809445Y-70716772D01*
X80762490Y-70731016D01*
X80714365Y-70740588D01*
X80665534Y-70745398D01*
X80641000Y-70745398D01*
X80641000Y-70746000D01*
X80141000Y-70746000D01*
X80141000Y-70745398D01*
X80116466Y-70745398D01*
X80067635Y-70740588D01*
X80019510Y-70731016D01*
X79972555Y-70716772D01*
X79927222Y-70697995D01*
X79883949Y-70674864D01*
X79843150Y-70647604D01*
X79805221Y-70616476D01*
X79770524Y-70581779D01*
X79739396Y-70543850D01*
X79712136Y-70503051D01*
X79689005Y-70459778D01*
X79670228Y-70414445D01*
X79655984Y-70367490D01*
X79646412Y-70319365D01*
X79641602Y-70270534D01*
X79641602Y-70246000D01*
X79641000Y-70246000D01*
X79641000Y-69746000D01*
X81141000Y-69746000D01*
X81141000Y-70246000D01*
X81140398Y-70246000D01*
G37*
G04 #@! TD.AperFunction*
G04 #@! TA.AperFunction,SMDPad,CuDef*
G36*
X79641000Y-69446000D02*
G01*
X79641000Y-68946000D01*
X79641602Y-68946000D01*
X79641602Y-68921466D01*
X79646412Y-68872635D01*
X79655984Y-68824510D01*
X79670228Y-68777555D01*
X79689005Y-68732222D01*
X79712136Y-68688949D01*
X79739396Y-68648150D01*
X79770524Y-68610221D01*
X79805221Y-68575524D01*
X79843150Y-68544396D01*
X79883949Y-68517136D01*
X79927222Y-68494005D01*
X79972555Y-68475228D01*
X80019510Y-68460984D01*
X80067635Y-68451412D01*
X80116466Y-68446602D01*
X80141000Y-68446602D01*
X80141000Y-68446000D01*
X80641000Y-68446000D01*
X80641000Y-68446602D01*
X80665534Y-68446602D01*
X80714365Y-68451412D01*
X80762490Y-68460984D01*
X80809445Y-68475228D01*
X80854778Y-68494005D01*
X80898051Y-68517136D01*
X80938850Y-68544396D01*
X80976779Y-68575524D01*
X81011476Y-68610221D01*
X81042604Y-68648150D01*
X81069864Y-68688949D01*
X81092995Y-68732222D01*
X81111772Y-68777555D01*
X81126016Y-68824510D01*
X81135588Y-68872635D01*
X81140398Y-68921466D01*
X81140398Y-68946000D01*
X81141000Y-68946000D01*
X81141000Y-69446000D01*
X79641000Y-69446000D01*
G37*
G04 #@! TD.AperFunction*
G04 #@! TA.AperFunction,SMDPad,CuDef*
G36*
X82181000Y-68938000D02*
G01*
X82181000Y-68438000D01*
X82181602Y-68438000D01*
X82181602Y-68413466D01*
X82186412Y-68364635D01*
X82195984Y-68316510D01*
X82210228Y-68269555D01*
X82229005Y-68224222D01*
X82252136Y-68180949D01*
X82279396Y-68140150D01*
X82310524Y-68102221D01*
X82345221Y-68067524D01*
X82383150Y-68036396D01*
X82423949Y-68009136D01*
X82467222Y-67986005D01*
X82512555Y-67967228D01*
X82559510Y-67952984D01*
X82607635Y-67943412D01*
X82656466Y-67938602D01*
X82681000Y-67938602D01*
X82681000Y-67938000D01*
X83181000Y-67938000D01*
X83181000Y-67938602D01*
X83205534Y-67938602D01*
X83254365Y-67943412D01*
X83302490Y-67952984D01*
X83349445Y-67967228D01*
X83394778Y-67986005D01*
X83438051Y-68009136D01*
X83478850Y-68036396D01*
X83516779Y-68067524D01*
X83551476Y-68102221D01*
X83582604Y-68140150D01*
X83609864Y-68180949D01*
X83632995Y-68224222D01*
X83651772Y-68269555D01*
X83666016Y-68316510D01*
X83675588Y-68364635D01*
X83680398Y-68413466D01*
X83680398Y-68438000D01*
X83681000Y-68438000D01*
X83681000Y-68938000D01*
X82181000Y-68938000D01*
G37*
G04 #@! TD.AperFunction*
G04 #@! TA.AperFunction,SMDPad,CuDef*
G36*
X83680398Y-69738000D02*
G01*
X83680398Y-69762534D01*
X83675588Y-69811365D01*
X83666016Y-69859490D01*
X83651772Y-69906445D01*
X83632995Y-69951778D01*
X83609864Y-69995051D01*
X83582604Y-70035850D01*
X83551476Y-70073779D01*
X83516779Y-70108476D01*
X83478850Y-70139604D01*
X83438051Y-70166864D01*
X83394778Y-70189995D01*
X83349445Y-70208772D01*
X83302490Y-70223016D01*
X83254365Y-70232588D01*
X83205534Y-70237398D01*
X83181000Y-70237398D01*
X83181000Y-70238000D01*
X82681000Y-70238000D01*
X82681000Y-70237398D01*
X82656466Y-70237398D01*
X82607635Y-70232588D01*
X82559510Y-70223016D01*
X82512555Y-70208772D01*
X82467222Y-70189995D01*
X82423949Y-70166864D01*
X82383150Y-70139604D01*
X82345221Y-70108476D01*
X82310524Y-70073779D01*
X82279396Y-70035850D01*
X82252136Y-69995051D01*
X82229005Y-69951778D01*
X82210228Y-69906445D01*
X82195984Y-69859490D01*
X82186412Y-69811365D01*
X82181602Y-69762534D01*
X82181602Y-69738000D01*
X82181000Y-69738000D01*
X82181000Y-69238000D01*
X83681000Y-69238000D01*
X83681000Y-69738000D01*
X83680398Y-69738000D01*
G37*
G04 #@! TD.AperFunction*
G04 #@! TA.AperFunction,SMDPad,CuDef*
G36*
X84848000Y-67668000D02*
G01*
X84848000Y-67168000D01*
X84848602Y-67168000D01*
X84848602Y-67143466D01*
X84853412Y-67094635D01*
X84862984Y-67046510D01*
X84877228Y-66999555D01*
X84896005Y-66954222D01*
X84919136Y-66910949D01*
X84946396Y-66870150D01*
X84977524Y-66832221D01*
X85012221Y-66797524D01*
X85050150Y-66766396D01*
X85090949Y-66739136D01*
X85134222Y-66716005D01*
X85179555Y-66697228D01*
X85226510Y-66682984D01*
X85274635Y-66673412D01*
X85323466Y-66668602D01*
X85348000Y-66668602D01*
X85348000Y-66668000D01*
X85848000Y-66668000D01*
X85848000Y-66668602D01*
X85872534Y-66668602D01*
X85921365Y-66673412D01*
X85969490Y-66682984D01*
X86016445Y-66697228D01*
X86061778Y-66716005D01*
X86105051Y-66739136D01*
X86145850Y-66766396D01*
X86183779Y-66797524D01*
X86218476Y-66832221D01*
X86249604Y-66870150D01*
X86276864Y-66910949D01*
X86299995Y-66954222D01*
X86318772Y-66999555D01*
X86333016Y-67046510D01*
X86342588Y-67094635D01*
X86347398Y-67143466D01*
X86347398Y-67168000D01*
X86348000Y-67168000D01*
X86348000Y-67668000D01*
X84848000Y-67668000D01*
G37*
G04 #@! TD.AperFunction*
G04 #@! TA.AperFunction,SMDPad,CuDef*
G36*
X86347398Y-68468000D02*
G01*
X86347398Y-68492534D01*
X86342588Y-68541365D01*
X86333016Y-68589490D01*
X86318772Y-68636445D01*
X86299995Y-68681778D01*
X86276864Y-68725051D01*
X86249604Y-68765850D01*
X86218476Y-68803779D01*
X86183779Y-68838476D01*
X86145850Y-68869604D01*
X86105051Y-68896864D01*
X86061778Y-68919995D01*
X86016445Y-68938772D01*
X85969490Y-68953016D01*
X85921365Y-68962588D01*
X85872534Y-68967398D01*
X85848000Y-68967398D01*
X85848000Y-68968000D01*
X85348000Y-68968000D01*
X85348000Y-68967398D01*
X85323466Y-68967398D01*
X85274635Y-68962588D01*
X85226510Y-68953016D01*
X85179555Y-68938772D01*
X85134222Y-68919995D01*
X85090949Y-68896864D01*
X85050150Y-68869604D01*
X85012221Y-68838476D01*
X84977524Y-68803779D01*
X84946396Y-68765850D01*
X84919136Y-68725051D01*
X84896005Y-68681778D01*
X84877228Y-68636445D01*
X84862984Y-68589490D01*
X84853412Y-68541365D01*
X84848602Y-68492534D01*
X84848602Y-68468000D01*
X84848000Y-68468000D01*
X84848000Y-67968000D01*
X86348000Y-67968000D01*
X86348000Y-68468000D01*
X86347398Y-68468000D01*
G37*
G04 #@! TD.AperFunction*
D13*
X80675000Y-66680000D03*
X89325000Y-66680000D03*
X89325000Y-62500000D03*
X80675000Y-62500000D03*
G04 #@! TA.AperFunction,SMDPad,CuDef*
D12*
G36*
X87871398Y-92217000D02*
G01*
X87871398Y-92241534D01*
X87866588Y-92290365D01*
X87857016Y-92338490D01*
X87842772Y-92385445D01*
X87823995Y-92430778D01*
X87800864Y-92474051D01*
X87773604Y-92514850D01*
X87742476Y-92552779D01*
X87707779Y-92587476D01*
X87669850Y-92618604D01*
X87629051Y-92645864D01*
X87585778Y-92668995D01*
X87540445Y-92687772D01*
X87493490Y-92702016D01*
X87445365Y-92711588D01*
X87396534Y-92716398D01*
X87372000Y-92716398D01*
X87372000Y-92717000D01*
X86872000Y-92717000D01*
X86872000Y-92716398D01*
X86847466Y-92716398D01*
X86798635Y-92711588D01*
X86750510Y-92702016D01*
X86703555Y-92687772D01*
X86658222Y-92668995D01*
X86614949Y-92645864D01*
X86574150Y-92618604D01*
X86536221Y-92587476D01*
X86501524Y-92552779D01*
X86470396Y-92514850D01*
X86443136Y-92474051D01*
X86420005Y-92430778D01*
X86401228Y-92385445D01*
X86386984Y-92338490D01*
X86377412Y-92290365D01*
X86372602Y-92241534D01*
X86372602Y-92217000D01*
X86372000Y-92217000D01*
X86372000Y-91717000D01*
X87872000Y-91717000D01*
X87872000Y-92217000D01*
X87871398Y-92217000D01*
G37*
G04 #@! TD.AperFunction*
G04 #@! TA.AperFunction,SMDPad,CuDef*
G36*
X86372000Y-91417000D02*
G01*
X86372000Y-90917000D01*
X86372602Y-90917000D01*
X86372602Y-90892466D01*
X86377412Y-90843635D01*
X86386984Y-90795510D01*
X86401228Y-90748555D01*
X86420005Y-90703222D01*
X86443136Y-90659949D01*
X86470396Y-90619150D01*
X86501524Y-90581221D01*
X86536221Y-90546524D01*
X86574150Y-90515396D01*
X86614949Y-90488136D01*
X86658222Y-90465005D01*
X86703555Y-90446228D01*
X86750510Y-90431984D01*
X86798635Y-90422412D01*
X86847466Y-90417602D01*
X86872000Y-90417602D01*
X86872000Y-90417000D01*
X87372000Y-90417000D01*
X87372000Y-90417602D01*
X87396534Y-90417602D01*
X87445365Y-90422412D01*
X87493490Y-90431984D01*
X87540445Y-90446228D01*
X87585778Y-90465005D01*
X87629051Y-90488136D01*
X87669850Y-90515396D01*
X87707779Y-90546524D01*
X87742476Y-90581221D01*
X87773604Y-90619150D01*
X87800864Y-90659949D01*
X87823995Y-90703222D01*
X87842772Y-90748555D01*
X87857016Y-90795510D01*
X87866588Y-90843635D01*
X87871398Y-90892466D01*
X87871398Y-90917000D01*
X87872000Y-90917000D01*
X87872000Y-91417000D01*
X86372000Y-91417000D01*
G37*
G04 #@! TD.AperFunction*
G04 #@! TA.AperFunction,SMDPad,CuDef*
G36*
X87872000Y-88288000D02*
G01*
X87872000Y-88788000D01*
X87871398Y-88788000D01*
X87871398Y-88812534D01*
X87866588Y-88861365D01*
X87857016Y-88909490D01*
X87842772Y-88956445D01*
X87823995Y-89001778D01*
X87800864Y-89045051D01*
X87773604Y-89085850D01*
X87742476Y-89123779D01*
X87707779Y-89158476D01*
X87669850Y-89189604D01*
X87629051Y-89216864D01*
X87585778Y-89239995D01*
X87540445Y-89258772D01*
X87493490Y-89273016D01*
X87445365Y-89282588D01*
X87396534Y-89287398D01*
X87372000Y-89287398D01*
X87372000Y-89288000D01*
X86872000Y-89288000D01*
X86872000Y-89287398D01*
X86847466Y-89287398D01*
X86798635Y-89282588D01*
X86750510Y-89273016D01*
X86703555Y-89258772D01*
X86658222Y-89239995D01*
X86614949Y-89216864D01*
X86574150Y-89189604D01*
X86536221Y-89158476D01*
X86501524Y-89123779D01*
X86470396Y-89085850D01*
X86443136Y-89045051D01*
X86420005Y-89001778D01*
X86401228Y-88956445D01*
X86386984Y-88909490D01*
X86377412Y-88861365D01*
X86372602Y-88812534D01*
X86372602Y-88788000D01*
X86372000Y-88788000D01*
X86372000Y-88288000D01*
X87872000Y-88288000D01*
G37*
G04 #@! TD.AperFunction*
G04 #@! TA.AperFunction,SMDPad,CuDef*
G36*
X86372602Y-87488000D02*
G01*
X86372602Y-87463466D01*
X86377412Y-87414635D01*
X86386984Y-87366510D01*
X86401228Y-87319555D01*
X86420005Y-87274222D01*
X86443136Y-87230949D01*
X86470396Y-87190150D01*
X86501524Y-87152221D01*
X86536221Y-87117524D01*
X86574150Y-87086396D01*
X86614949Y-87059136D01*
X86658222Y-87036005D01*
X86703555Y-87017228D01*
X86750510Y-87002984D01*
X86798635Y-86993412D01*
X86847466Y-86988602D01*
X86872000Y-86988602D01*
X86872000Y-86988000D01*
X87372000Y-86988000D01*
X87372000Y-86988602D01*
X87396534Y-86988602D01*
X87445365Y-86993412D01*
X87493490Y-87002984D01*
X87540445Y-87017228D01*
X87585778Y-87036005D01*
X87629051Y-87059136D01*
X87669850Y-87086396D01*
X87707779Y-87117524D01*
X87742476Y-87152221D01*
X87773604Y-87190150D01*
X87800864Y-87230949D01*
X87823995Y-87274222D01*
X87842772Y-87319555D01*
X87857016Y-87366510D01*
X87866588Y-87414635D01*
X87871398Y-87463466D01*
X87871398Y-87488000D01*
X87872000Y-87488000D01*
X87872000Y-87988000D01*
X86372000Y-87988000D01*
X86372000Y-87488000D01*
X86372602Y-87488000D01*
G37*
G04 #@! TD.AperFunction*
D14*
X76200000Y-99060000D03*
X76200000Y-96520000D03*
X76200000Y-93980000D03*
X76200000Y-91440000D03*
X76200000Y-88900000D03*
X76200000Y-86360000D03*
X76200000Y-83820000D03*
X76200000Y-81280000D03*
X76200000Y-78740000D03*
X76200000Y-76200000D03*
D15*
X76200000Y-73660000D03*
X93980000Y-73660000D03*
D14*
X93980000Y-76200000D03*
X93980000Y-78740000D03*
X93980000Y-81280000D03*
X93980000Y-83820000D03*
X93980000Y-86360000D03*
X93980000Y-88900000D03*
X93980000Y-91440000D03*
X93980000Y-93980000D03*
X93980000Y-96520000D03*
X93980000Y-99060000D03*
D16*
X76962000Y-92710000D03*
X78740000Y-96012000D03*
X85479000Y-70831032D03*
X88408731Y-75042068D03*
X87232767Y-84210803D03*
X89154000Y-94361000D03*
X89281000Y-96774000D03*
X88646000Y-84139010D03*
X85090000Y-62230000D03*
X87757000Y-69723000D03*
X79248000Y-66675000D03*
X85090000Y-95250000D03*
X92600000Y-100200000D03*
X77800000Y-100400000D03*
X85344000Y-100584000D03*
X95086000Y-90200000D03*
X95086000Y-92800000D03*
X77216000Y-90170000D03*
X76200000Y-63500000D03*
X78740000Y-79502000D03*
X85090000Y-97028000D03*
X90551000Y-67437000D03*
X79883000Y-83185000D03*
X78105000Y-92202000D03*
X77597000Y-67818000D03*
X77216000Y-77470000D03*
X79756001Y-77088999D03*
X83439000Y-75438000D03*
X79121000Y-72136000D03*
X89535000Y-92964000D03*
X88011000Y-72390000D03*
X89281000Y-72390000D03*
X89281000Y-71120000D03*
X88011000Y-71120000D03*
X89281000Y-73660000D03*
X88084524Y-73586476D03*
X93472000Y-72009000D03*
X94742000Y-72009000D03*
X94234000Y-70993000D03*
X94869000Y-67818000D03*
X94869000Y-65786000D03*
X85217000Y-69723000D03*
X82550000Y-78613000D03*
X80010000Y-90170000D03*
X89346010Y-87757000D03*
X89346010Y-89408000D03*
X85090000Y-89408000D03*
X80010000Y-86614000D03*
X92456000Y-74168000D03*
X92456000Y-75692000D03*
X92456000Y-77216000D03*
X92710000Y-79629000D03*
X90170000Y-63627000D03*
X92042586Y-82042000D03*
X83693000Y-64897000D03*
X86343558Y-75453213D03*
X82042000Y-96964500D03*
X77724000Y-85090000D03*
X78359000Y-89154000D03*
X79883000Y-80518000D03*
X85598000Y-64897000D03*
X91189210Y-82563318D03*
X84436109Y-65721069D03*
X85328601Y-75454057D03*
X87376000Y-78486000D03*
X90616010Y-90943269D03*
X90691465Y-86538699D03*
X88138000Y-80904991D03*
X77978000Y-71882000D03*
X77977968Y-80518000D03*
X79883000Y-87757000D03*
X84649567Y-86800441D03*
X83185000Y-101473000D03*
X87757000Y-68453000D03*
X82827968Y-70857956D03*
X81534000Y-91059010D03*
X86487000Y-101431049D03*
X82677000Y-91059012D03*
X84741669Y-87945990D03*
X78740000Y-67818000D03*
X84201000Y-90170000D03*
X87078392Y-64824220D03*
X83312000Y-68452992D03*
X74930000Y-100711000D03*
X85100283Y-72564990D03*
X90551000Y-77215990D03*
X78867000Y-69723000D03*
D17*
X76200000Y-76200000D02*
X76000000Y-76200000D01*
D18*
X85767968Y-71120000D02*
X85479000Y-70831032D01*
X85979000Y-71331032D02*
X85767968Y-71120000D01*
X85979000Y-72612337D02*
X85979000Y-71331032D01*
X88408731Y-75042068D02*
X85979000Y-72612337D01*
D17*
X77724000Y-94996000D02*
X78740000Y-96012000D01*
X76962000Y-92710000D02*
X77724000Y-93472000D01*
X77724000Y-93472000D02*
X77724000Y-94996000D01*
X87632766Y-83810804D02*
X87232767Y-84210803D01*
X89154000Y-83439000D02*
X88004570Y-83439000D01*
X89427011Y-83712011D02*
X89154000Y-83439000D01*
X95130001Y-79890001D02*
X95130001Y-82071999D01*
X88004570Y-83439000D02*
X87632766Y-83810804D01*
X93980000Y-78740000D02*
X95130001Y-79890001D01*
X95130001Y-82071999D02*
X94532001Y-82669999D01*
X94532001Y-82669999D02*
X93155701Y-82669999D01*
X93155701Y-82669999D02*
X92113689Y-83712011D01*
X92113689Y-83712011D02*
X89427011Y-83712011D01*
X89154000Y-94361000D02*
X89154000Y-96647000D01*
X89154000Y-96647000D02*
X89281000Y-96774000D01*
X92458909Y-84139010D02*
X89211685Y-84139010D01*
X89211685Y-84139010D02*
X88646000Y-84139010D01*
X93980000Y-83820000D02*
X92777919Y-83820000D01*
X92777919Y-83820000D02*
X92458909Y-84139010D01*
D18*
X81788001Y-77088999D02*
X79756001Y-77088999D01*
X83439000Y-75438000D02*
X81788001Y-77088999D01*
X80137000Y-72136000D02*
X79121000Y-72136000D01*
X83439000Y-75438000D02*
X80137000Y-72136000D01*
D17*
X87060001Y-75249001D02*
X87060001Y-75179701D01*
X87060001Y-75179701D02*
X86429300Y-74549000D01*
X85979000Y-74549000D02*
X84328000Y-72898000D01*
X84963000Y-70358000D02*
X84963000Y-69215000D01*
X84328000Y-70993000D02*
X84963000Y-70358000D01*
X84328000Y-72898000D02*
X84328000Y-70993000D01*
X92742587Y-80931587D02*
X87060001Y-75249001D01*
X92742587Y-81026000D02*
X92742587Y-80931587D01*
X86429300Y-74549000D02*
X85979000Y-74549000D01*
X86741000Y-76835000D02*
X85921300Y-76835000D01*
X90424000Y-80518000D02*
X86741000Y-76835000D01*
X92742587Y-77437413D02*
X92742587Y-82517413D01*
X93980000Y-76200000D02*
X92742587Y-77437413D01*
X85921300Y-76835000D02*
X85344000Y-76257700D01*
X92742587Y-82517413D02*
X91948000Y-83312000D01*
X91948000Y-83312000D02*
X90805000Y-83312000D01*
X90805000Y-83312000D02*
X90424000Y-82931000D01*
X90424000Y-82931000D02*
X90424000Y-80518000D01*
X84455000Y-64135000D02*
X85852000Y-64135000D01*
X83693000Y-64897000D02*
X84455000Y-64135000D01*
X83927989Y-70684693D02*
X83927989Y-73063689D01*
X86360000Y-65278000D02*
X85979000Y-65659000D01*
X86360000Y-64643000D02*
X86360000Y-65278000D01*
X85979000Y-65659000D02*
X85598000Y-65659000D01*
X85598000Y-65659000D02*
X84462990Y-66794010D01*
X84462990Y-66794010D02*
X84462990Y-70149692D01*
X85839356Y-74949011D02*
X85943559Y-75053214D01*
X85813311Y-74949011D02*
X85839356Y-74949011D01*
X85852000Y-64135000D02*
X86360000Y-64643000D01*
X85943559Y-75053214D02*
X86343558Y-75453213D01*
X84462990Y-70149692D02*
X83927989Y-70684693D01*
X83927989Y-73063689D02*
X85813311Y-74949011D01*
X87066113Y-75853212D02*
X86743557Y-75853212D01*
X86743557Y-75853212D02*
X86343558Y-75453213D01*
X92042586Y-80829685D02*
X87066113Y-75853212D01*
X92042586Y-82042000D02*
X92042586Y-80829685D01*
X79483001Y-81171999D02*
X79483001Y-80917999D01*
X79483001Y-80917999D02*
X79883000Y-80518000D01*
X77724000Y-82931000D02*
X79483001Y-81171999D01*
X77724000Y-85090000D02*
X77724000Y-82931000D01*
X79248000Y-90043000D02*
X78359000Y-89154000D01*
X79248000Y-93472000D02*
X79248000Y-90043000D01*
X82042000Y-96964500D02*
X82042000Y-96266000D01*
X82042000Y-96266000D02*
X79248000Y-93472000D01*
X85598000Y-64897000D02*
X84773931Y-65721069D01*
X84773931Y-65721069D02*
X84436109Y-65721069D01*
X83527978Y-70519004D02*
X83527978Y-73229378D01*
X84436109Y-65721069D02*
X84036110Y-66121068D01*
X84036110Y-66121068D02*
X84036110Y-70010872D01*
X85328601Y-75030001D02*
X85328601Y-75454057D01*
X83527978Y-73229378D02*
X85328601Y-75030001D01*
X84036110Y-70010872D02*
X83527978Y-70519004D01*
X85728600Y-75854056D02*
X85328601Y-75454057D01*
X86201544Y-76327000D02*
X85728600Y-75854056D01*
X91189210Y-80648210D02*
X86868000Y-76327000D01*
X91189210Y-82563318D02*
X91189210Y-80648210D01*
X86868000Y-76327000D02*
X86201544Y-76327000D01*
X91112741Y-91440000D02*
X91016009Y-91343268D01*
X93980000Y-91440000D02*
X91112741Y-91440000D01*
X91016009Y-91343268D02*
X90616010Y-90943269D01*
X87376000Y-78486000D02*
X87376000Y-81026000D01*
X85979000Y-82423000D02*
X85979000Y-84582000D01*
X85979000Y-84582000D02*
X87249000Y-85852000D01*
X90291466Y-86138700D02*
X90691465Y-86538699D01*
X90004766Y-85852000D02*
X90291466Y-86138700D01*
X87249000Y-85852000D02*
X90004766Y-85852000D01*
X87376000Y-81026000D02*
X85979000Y-82423000D01*
X88328500Y-92202000D02*
X87122000Y-92202000D01*
X93980000Y-88900000D02*
X91630500Y-88900000D01*
X91630500Y-88900000D02*
X88328500Y-92202000D01*
X86487000Y-82555991D02*
X86487000Y-84455000D01*
X88138000Y-80904991D02*
X86487000Y-82555991D01*
X95130001Y-87749999D02*
X94829999Y-88050001D01*
X86487000Y-84455000D02*
X87122000Y-85090000D01*
X87122000Y-85090000D02*
X94412002Y-85090000D01*
X94412002Y-85090000D02*
X95130001Y-85807999D01*
X94829999Y-88050001D02*
X93980000Y-88900000D01*
X95130001Y-85807999D02*
X95130001Y-87749999D01*
X77978000Y-71882000D02*
X77978000Y-80517968D01*
X76200000Y-83820000D02*
X77977968Y-82042032D01*
X77977968Y-81083685D02*
X77977968Y-80518000D01*
X77978000Y-80517968D02*
X77977968Y-80518000D01*
X77977968Y-82042032D02*
X77977968Y-81083685D01*
X86756000Y-87488000D02*
X86741000Y-87503000D01*
X92456000Y-87884000D02*
X93980000Y-86360000D01*
X91059000Y-87884000D02*
X92456000Y-87884000D01*
X90424000Y-88519000D02*
X91059000Y-87884000D01*
X88138000Y-87884000D02*
X88773000Y-88519000D01*
X88773000Y-88519000D02*
X90424000Y-88519000D01*
X87518000Y-87884000D02*
X87122000Y-87488000D01*
X87884000Y-87884000D02*
X87518000Y-87884000D01*
X87884000Y-87884000D02*
X88138000Y-87884000D01*
X86351720Y-87884000D02*
X87884000Y-87884000D01*
X86071990Y-88163730D02*
X86351720Y-87884000D01*
X86071990Y-88172010D02*
X86071990Y-88163730D01*
X85598000Y-88646000D02*
X86071990Y-88172010D01*
X79883000Y-87757000D02*
X80772000Y-88646000D01*
X80772000Y-88646000D02*
X85598000Y-88646000D01*
X85598000Y-68453000D02*
X87757000Y-68453000D01*
X84649567Y-86800441D02*
X84649567Y-82228433D01*
X84628599Y-74996603D02*
X82827968Y-73195972D01*
X84628599Y-76500599D02*
X84628599Y-74996603D01*
X82827968Y-71423641D02*
X82827968Y-70857956D01*
X82827968Y-73195972D02*
X82827968Y-71423641D01*
X85659998Y-77531998D02*
X84628599Y-76500599D01*
X85659998Y-81218002D02*
X85659998Y-77531998D01*
X84649567Y-82228433D02*
X85659998Y-81218002D01*
X81534000Y-91313000D02*
X81534000Y-91059010D01*
X83820000Y-93599000D02*
X81534000Y-91313000D01*
X83185000Y-101473000D02*
X83820000Y-100838000D01*
X83820000Y-100838000D02*
X83820000Y-93599000D01*
X85259987Y-77766987D02*
X85259987Y-80856013D01*
X83881998Y-82234002D02*
X83881998Y-87086319D01*
X82127966Y-73061670D02*
X84228588Y-75162292D01*
X84228588Y-75162292D02*
X84228588Y-76735588D01*
X85259987Y-80856013D02*
X83881998Y-82234002D01*
X84228588Y-76735588D02*
X85259987Y-77766987D01*
X84341670Y-87545991D02*
X84741669Y-87945990D01*
X83881998Y-87086319D02*
X84341670Y-87545991D01*
X82931000Y-69723000D02*
X82127966Y-70526034D01*
X82127966Y-70526034D02*
X82127966Y-73061670D01*
X82804012Y-91059012D02*
X82677000Y-91059012D01*
X86487000Y-101431049D02*
X86487000Y-94742000D01*
X86487000Y-94742000D02*
X82804012Y-91059012D01*
D18*
X79868000Y-68946000D02*
X78740000Y-67818000D01*
X80391000Y-68946000D02*
X79868000Y-68946000D01*
D17*
X87122000Y-90917000D02*
X87122000Y-88773000D01*
X84963000Y-90932000D02*
X84201000Y-90170000D01*
X87122000Y-90917000D02*
X87107000Y-90932000D01*
X87107000Y-90932000D02*
X84963000Y-90932000D01*
X85598000Y-67183000D02*
X87078392Y-65702608D01*
X87078392Y-65702608D02*
X87078392Y-65389905D01*
X87078392Y-65389905D02*
X87078392Y-64824220D01*
X82912001Y-68852991D02*
X83312000Y-68452992D01*
X76581000Y-70231000D02*
X77851000Y-70231000D01*
X74930000Y-100711000D02*
X74930000Y-71882000D01*
X74930000Y-71882000D02*
X76581000Y-70231000D01*
X89592688Y-77215990D02*
X89985315Y-77215990D01*
X89985315Y-77215990D02*
X90551000Y-77215990D01*
X87460010Y-74924717D02*
X87460010Y-75083312D01*
X85100283Y-72564990D02*
X87460010Y-74924717D01*
X87460010Y-75083312D02*
X89592688Y-77215990D01*
X79390000Y-70246000D02*
X78867000Y-69723000D01*
X80391000Y-70246000D02*
X79390000Y-70246000D01*
X78090000Y-68946000D02*
X77470000Y-68946000D01*
X78867000Y-69723000D02*
X78090000Y-68946000D01*
X79908837Y-61578525D02*
X79851087Y-61735134D01*
X79825000Y-61900000D01*
X79825000Y-62450000D01*
X80625000Y-62450000D01*
X80625000Y-62430000D01*
X80725000Y-62430000D01*
X80725000Y-62450000D01*
X81525000Y-62450000D01*
X81525000Y-61900000D01*
X81498913Y-61735134D01*
X81441163Y-61578525D01*
X81377744Y-61475000D01*
X88622256Y-61475000D01*
X88558837Y-61578525D01*
X88501087Y-61735134D01*
X88475000Y-61900000D01*
X88475000Y-62450000D01*
X89275000Y-62450000D01*
X89275000Y-62430000D01*
X89375000Y-62430000D01*
X89375000Y-62450000D01*
X90175000Y-62450000D01*
X90175000Y-61900000D01*
X90148913Y-61735134D01*
X90091163Y-61578525D01*
X90027744Y-61475000D01*
X93976768Y-61475000D01*
X94295764Y-61506278D01*
X94580263Y-61592173D01*
X94842665Y-61731695D01*
X95072961Y-61919521D01*
X95262394Y-62148505D01*
X95403741Y-62409921D01*
X95491620Y-62693812D01*
X95525000Y-63011398D01*
X95525000Y-79583155D01*
X95485265Y-79534737D01*
X95466182Y-79519076D01*
X95143815Y-79196709D01*
X95181963Y-79104611D01*
X95230000Y-78863114D01*
X95230000Y-78616886D01*
X95181963Y-78375389D01*
X95087735Y-78147903D01*
X94950938Y-77943172D01*
X94776828Y-77769062D01*
X94572097Y-77632265D01*
X94344611Y-77538037D01*
X94103114Y-77490000D01*
X93856886Y-77490000D01*
X93615389Y-77538037D01*
X93387903Y-77632265D01*
X93183172Y-77769062D01*
X93009062Y-77943172D01*
X92872265Y-78147903D01*
X92778037Y-78375389D01*
X92730000Y-78616886D01*
X92730000Y-78863114D01*
X92778037Y-79104611D01*
X92872265Y-79332097D01*
X93009062Y-79536828D01*
X93183172Y-79710938D01*
X93387903Y-79847735D01*
X93615389Y-79941963D01*
X93856886Y-79990000D01*
X94103114Y-79990000D01*
X94344611Y-79941963D01*
X94436709Y-79903815D01*
X94630001Y-80097107D01*
X94630001Y-80210955D01*
X94572097Y-80172265D01*
X94344611Y-80078037D01*
X94103114Y-80030000D01*
X93856886Y-80030000D01*
X93615389Y-80078037D01*
X93387903Y-80172265D01*
X93183172Y-80309062D01*
X93009062Y-80483172D01*
X92872265Y-80687903D01*
X92778037Y-80915389D01*
X92730000Y-81156886D01*
X92730000Y-81403114D01*
X92778037Y-81644611D01*
X92872265Y-81872097D01*
X93009062Y-82076828D01*
X93104825Y-82172591D01*
X93057684Y-82177234D01*
X92963434Y-82205824D01*
X92876572Y-82252253D01*
X92800437Y-82314735D01*
X92790528Y-82326809D01*
X92811843Y-82275351D01*
X92842586Y-82120793D01*
X92842586Y-81963207D01*
X92811843Y-81808649D01*
X92751537Y-81663058D01*
X92663987Y-81532030D01*
X92552556Y-81420599D01*
X92542586Y-81413937D01*
X92542586Y-80854245D01*
X92545005Y-80829685D01*
X92535351Y-80731668D01*
X92533550Y-80725732D01*
X92506761Y-80637418D01*
X92460332Y-80550556D01*
X92397850Y-80474421D01*
X92378773Y-80458765D01*
X89635997Y-77715990D01*
X89922937Y-77715990D01*
X89929599Y-77725960D01*
X90041030Y-77837391D01*
X90172058Y-77924941D01*
X90317649Y-77985247D01*
X90472207Y-78015990D01*
X90629793Y-78015990D01*
X90784351Y-77985247D01*
X90929942Y-77924941D01*
X91060970Y-77837391D01*
X91172401Y-77725960D01*
X91259951Y-77594932D01*
X91320257Y-77449341D01*
X91351000Y-77294783D01*
X91351000Y-77137197D01*
X91320257Y-76982639D01*
X91259951Y-76837048D01*
X91172401Y-76706020D01*
X91060970Y-76594589D01*
X90929942Y-76507039D01*
X90784351Y-76446733D01*
X90774488Y-76444771D01*
X92754199Y-76444771D01*
X92824795Y-76677500D01*
X92940148Y-76893694D01*
X93095461Y-77083230D01*
X93284767Y-77238824D01*
X93500790Y-77354497D01*
X93735229Y-77425803D01*
X93930000Y-77349002D01*
X93930000Y-76250000D01*
X94030000Y-76250000D01*
X94030000Y-77349002D01*
X94224771Y-77425803D01*
X94459210Y-77354497D01*
X94675233Y-77238824D01*
X94864539Y-77083230D01*
X95019852Y-76893694D01*
X95135205Y-76677500D01*
X95205801Y-76444771D01*
X95128913Y-76250000D01*
X94030000Y-76250000D01*
X93930000Y-76250000D01*
X92831087Y-76250000D01*
X92754199Y-76444771D01*
X90774488Y-76444771D01*
X90629793Y-76415990D01*
X90472207Y-76415990D01*
X90317649Y-76446733D01*
X90172058Y-76507039D01*
X90041030Y-76594589D01*
X89929599Y-76706020D01*
X89922937Y-76715990D01*
X89799794Y-76715990D01*
X89039033Y-75955229D01*
X92754199Y-75955229D01*
X92831087Y-76150000D01*
X93930000Y-76150000D01*
X93930000Y-75050998D01*
X94030000Y-75050998D01*
X94030000Y-76150000D01*
X95128913Y-76150000D01*
X95205801Y-75955229D01*
X95135205Y-75722500D01*
X95019852Y-75506306D01*
X94864539Y-75316770D01*
X94675233Y-75161176D01*
X94459210Y-75045503D01*
X94224771Y-74974197D01*
X94030000Y-75050998D01*
X93930000Y-75050998D01*
X93735229Y-74974197D01*
X93500790Y-75045503D01*
X93284767Y-75161176D01*
X93095461Y-75316770D01*
X92940148Y-75506306D01*
X92824795Y-75722500D01*
X92754199Y-75955229D01*
X89039033Y-75955229D01*
X88815937Y-75732134D01*
X88918701Y-75663469D01*
X89030132Y-75552038D01*
X89117682Y-75421010D01*
X89177988Y-75275419D01*
X89208731Y-75120861D01*
X89208731Y-74963275D01*
X89177988Y-74808717D01*
X89117682Y-74663126D01*
X89030132Y-74532098D01*
X89008034Y-74510000D01*
X92728065Y-74510000D01*
X92735788Y-74588414D01*
X92758660Y-74663814D01*
X92795803Y-74733303D01*
X92845789Y-74794211D01*
X92906697Y-74844197D01*
X92976186Y-74881340D01*
X93051586Y-74904212D01*
X93130000Y-74911935D01*
X93830000Y-74910000D01*
X93930000Y-74810000D01*
X93930000Y-73710000D01*
X94030000Y-73710000D01*
X94030000Y-74810000D01*
X94130000Y-74910000D01*
X94830000Y-74911935D01*
X94908414Y-74904212D01*
X94983814Y-74881340D01*
X95053303Y-74844197D01*
X95114211Y-74794211D01*
X95164197Y-74733303D01*
X95201340Y-74663814D01*
X95224212Y-74588414D01*
X95231935Y-74510000D01*
X95230000Y-73810000D01*
X95130000Y-73710000D01*
X94030000Y-73710000D01*
X93930000Y-73710000D01*
X92830000Y-73710000D01*
X92730000Y-73810000D01*
X92728065Y-74510000D01*
X89008034Y-74510000D01*
X88918701Y-74420667D01*
X88787673Y-74333117D01*
X88642082Y-74272811D01*
X88487524Y-74242068D01*
X88457259Y-74242068D01*
X87025191Y-72810000D01*
X92728065Y-72810000D01*
X92730000Y-73510000D01*
X92830000Y-73610000D01*
X93930000Y-73610000D01*
X93930000Y-72510000D01*
X94030000Y-72510000D01*
X94030000Y-73610000D01*
X95130000Y-73610000D01*
X95230000Y-73510000D01*
X95231935Y-72810000D01*
X95224212Y-72731586D01*
X95201340Y-72656186D01*
X95164197Y-72586697D01*
X95114211Y-72525789D01*
X95053303Y-72475803D01*
X94983814Y-72438660D01*
X94908414Y-72415788D01*
X94830000Y-72408065D01*
X94130000Y-72410000D01*
X94030000Y-72510000D01*
X93930000Y-72510000D01*
X93830000Y-72410000D01*
X93130000Y-72408065D01*
X93051586Y-72415788D01*
X92976186Y-72438660D01*
X92906697Y-72475803D01*
X92845789Y-72525789D01*
X92795803Y-72586697D01*
X92758660Y-72656186D01*
X92735788Y-72731586D01*
X92728065Y-72810000D01*
X87025191Y-72810000D01*
X86579000Y-72363810D01*
X86579000Y-71360505D01*
X86581903Y-71331031D01*
X86570318Y-71213410D01*
X86559412Y-71177458D01*
X86536010Y-71100311D01*
X86480296Y-70996077D01*
X86405317Y-70904715D01*
X86382418Y-70885923D01*
X86279000Y-70782505D01*
X86279000Y-70752239D01*
X86248257Y-70597681D01*
X86187951Y-70452090D01*
X86100401Y-70321062D01*
X85988970Y-70209631D01*
X85857942Y-70122081D01*
X85712351Y-70061775D01*
X85557793Y-70031032D01*
X85400207Y-70031032D01*
X85245649Y-70061775D01*
X85100058Y-70122081D01*
X84969030Y-70209631D01*
X84958465Y-70220196D01*
X84962990Y-70174252D01*
X84965409Y-70149692D01*
X84962990Y-70125132D01*
X84962990Y-69282165D01*
X85049046Y-69317810D01*
X85124445Y-69340682D01*
X85220578Y-69359804D01*
X85298991Y-69367527D01*
X85323551Y-69367527D01*
X85348000Y-69369935D01*
X85848000Y-69369935D01*
X85872449Y-69367527D01*
X85897009Y-69367527D01*
X85975422Y-69359804D01*
X86071555Y-69340682D01*
X86146954Y-69317810D01*
X86237510Y-69280301D01*
X86307001Y-69243158D01*
X86388500Y-69188702D01*
X86449408Y-69138716D01*
X86518716Y-69069408D01*
X86568702Y-69008500D01*
X86605786Y-68953000D01*
X87128937Y-68953000D01*
X87135599Y-68962970D01*
X87247030Y-69074401D01*
X87378058Y-69161951D01*
X87523649Y-69222257D01*
X87678207Y-69253000D01*
X87835793Y-69253000D01*
X87990351Y-69222257D01*
X88135942Y-69161951D01*
X88266970Y-69074401D01*
X88378401Y-68962970D01*
X88465951Y-68831942D01*
X88526257Y-68686351D01*
X88557000Y-68531793D01*
X88557000Y-68374207D01*
X88526257Y-68219649D01*
X88465951Y-68074058D01*
X88378401Y-67943030D01*
X88266970Y-67831599D01*
X88135942Y-67744049D01*
X87990351Y-67683743D01*
X87835793Y-67653000D01*
X87678207Y-67653000D01*
X87523649Y-67683743D01*
X87378058Y-67744049D01*
X87247030Y-67831599D01*
X87135599Y-67943030D01*
X87128937Y-67953000D01*
X86748458Y-67953000D01*
X86742212Y-67889586D01*
X86720497Y-67818000D01*
X86742212Y-67746414D01*
X86749935Y-67668000D01*
X86749935Y-67168000D01*
X86747527Y-67143551D01*
X86747527Y-67118991D01*
X86739804Y-67040578D01*
X86720682Y-66944445D01*
X86697810Y-66869046D01*
X86674745Y-66813361D01*
X87198157Y-66289950D01*
X87216901Y-66384182D01*
X87269668Y-66511574D01*
X87346274Y-66626224D01*
X87443776Y-66723726D01*
X87558426Y-66800332D01*
X87685818Y-66853099D01*
X87821056Y-66880000D01*
X87958944Y-66880000D01*
X88094182Y-66853099D01*
X88221574Y-66800332D01*
X88336224Y-66723726D01*
X88433726Y-66626224D01*
X88475001Y-66564452D01*
X88475000Y-67271748D01*
X88487300Y-67396628D01*
X88535903Y-67556854D01*
X88614832Y-67704518D01*
X88721052Y-67833948D01*
X88850481Y-67940168D01*
X88998145Y-68019097D01*
X89158371Y-68067700D01*
X89325000Y-68084112D01*
X89491628Y-68067700D01*
X89651854Y-68019097D01*
X89799518Y-67940168D01*
X89928948Y-67833948D01*
X90035168Y-67704519D01*
X90114097Y-67556855D01*
X90162700Y-67396629D01*
X90175000Y-67271749D01*
X90175000Y-66088251D01*
X90162700Y-65963371D01*
X90114097Y-65803145D01*
X90035168Y-65655481D01*
X89928948Y-65526052D01*
X89799519Y-65419832D01*
X89651855Y-65340903D01*
X89491629Y-65292300D01*
X89325000Y-65275888D01*
X89158372Y-65292300D01*
X88998146Y-65340903D01*
X88850482Y-65419832D01*
X88721053Y-65526052D01*
X88614833Y-65655481D01*
X88535904Y-65803145D01*
X88517165Y-65864922D01*
X88510332Y-65848426D01*
X88433726Y-65733776D01*
X88336224Y-65636274D01*
X88221574Y-65559668D01*
X88094182Y-65506901D01*
X87958944Y-65480000D01*
X87821056Y-65480000D01*
X87685818Y-65506901D01*
X87578392Y-65551398D01*
X87578392Y-65452283D01*
X87588362Y-65445621D01*
X87699793Y-65334190D01*
X87787343Y-65203162D01*
X87847649Y-65057571D01*
X87878392Y-64903013D01*
X87878392Y-64745427D01*
X87847649Y-64590869D01*
X87787343Y-64445278D01*
X87699793Y-64314250D01*
X87588362Y-64202819D01*
X87457334Y-64115269D01*
X87311743Y-64054963D01*
X87157185Y-64024220D01*
X86999599Y-64024220D01*
X86845041Y-64054963D01*
X86699450Y-64115269D01*
X86603492Y-64179386D01*
X86222929Y-63798823D01*
X86207264Y-63779736D01*
X86131129Y-63717254D01*
X86044267Y-63670825D01*
X85950017Y-63642235D01*
X85876560Y-63635000D01*
X85852000Y-63632581D01*
X85827440Y-63635000D01*
X84479560Y-63635000D01*
X84455000Y-63632581D01*
X84430440Y-63635000D01*
X84356983Y-63642235D01*
X84262733Y-63670825D01*
X84175871Y-63717254D01*
X84099736Y-63779736D01*
X84084080Y-63798813D01*
X83783554Y-64099339D01*
X83771793Y-64097000D01*
X83614207Y-64097000D01*
X83459649Y-64127743D01*
X83314058Y-64188049D01*
X83183030Y-64275599D01*
X83071599Y-64387030D01*
X82984049Y-64518058D01*
X82923743Y-64663649D01*
X82893000Y-64818207D01*
X82893000Y-64975793D01*
X82923743Y-65130351D01*
X82984049Y-65275942D01*
X83071599Y-65406970D01*
X83183030Y-65518401D01*
X83314058Y-65605951D01*
X83459649Y-65666257D01*
X83614207Y-65697000D01*
X83636109Y-65697000D01*
X83636109Y-65799862D01*
X83639384Y-65816326D01*
X83618364Y-65841939D01*
X83571935Y-65928802D01*
X83569106Y-65938129D01*
X83543345Y-66023051D01*
X83533691Y-66121068D01*
X83536110Y-66145628D01*
X83536110Y-67611450D01*
X83479954Y-67588190D01*
X83404555Y-67565318D01*
X83308422Y-67546196D01*
X83230009Y-67538473D01*
X83205449Y-67538473D01*
X83181000Y-67536065D01*
X82681000Y-67536065D01*
X82656551Y-67538473D01*
X82631991Y-67538473D01*
X82553578Y-67546196D01*
X82457445Y-67565318D01*
X82382046Y-67588190D01*
X82291490Y-67625699D01*
X82221999Y-67662842D01*
X82140500Y-67717298D01*
X82079592Y-67767284D01*
X82010284Y-67836592D01*
X81960298Y-67897500D01*
X81905842Y-67978999D01*
X81868699Y-68048490D01*
X81831190Y-68139046D01*
X81808318Y-68214445D01*
X81789196Y-68310578D01*
X81781473Y-68388991D01*
X81781473Y-68413551D01*
X81779065Y-68438000D01*
X81779065Y-68938000D01*
X81786788Y-69016414D01*
X81808503Y-69088000D01*
X81786788Y-69159586D01*
X81779065Y-69238000D01*
X81779065Y-69738000D01*
X81781473Y-69762449D01*
X81781473Y-69787009D01*
X81789196Y-69865422D01*
X81808318Y-69961555D01*
X81831190Y-70036954D01*
X81854255Y-70092639D01*
X81791790Y-70155105D01*
X81772702Y-70170770D01*
X81710220Y-70246905D01*
X81663791Y-70333768D01*
X81647969Y-70385927D01*
X81635201Y-70428017D01*
X81625547Y-70526034D01*
X81627966Y-70550594D01*
X81627967Y-73037100D01*
X81625547Y-73061670D01*
X81635201Y-73159687D01*
X81653659Y-73220532D01*
X81663792Y-73253937D01*
X81710221Y-73340799D01*
X81772703Y-73416934D01*
X81791785Y-73432594D01*
X83728588Y-75369398D01*
X83728589Y-76711018D01*
X83726169Y-76735588D01*
X83735823Y-76833605D01*
X83761529Y-76918345D01*
X83764414Y-76927855D01*
X83810843Y-77014717D01*
X83873325Y-77090852D01*
X83892407Y-77106512D01*
X84759987Y-77974094D01*
X84759988Y-80648905D01*
X83545822Y-81863073D01*
X83526734Y-81878738D01*
X83464252Y-81954873D01*
X83417823Y-82041736D01*
X83408643Y-82071999D01*
X83389233Y-82135985D01*
X83379579Y-82234002D01*
X83381998Y-82258562D01*
X83381999Y-87061749D01*
X83379579Y-87086319D01*
X83389233Y-87184336D01*
X83410542Y-87254581D01*
X83417824Y-87278586D01*
X83464253Y-87365448D01*
X83526735Y-87441583D01*
X83545817Y-87457243D01*
X83944008Y-87855436D01*
X83941669Y-87867197D01*
X83941669Y-88024783D01*
X83965780Y-88146000D01*
X80979107Y-88146000D01*
X80680661Y-87847555D01*
X80683000Y-87835793D01*
X80683000Y-87678207D01*
X80652257Y-87523649D01*
X80591951Y-87378058D01*
X80504401Y-87247030D01*
X80392970Y-87135599D01*
X80261942Y-87048049D01*
X80116351Y-86987743D01*
X79961793Y-86957000D01*
X79804207Y-86957000D01*
X79649649Y-86987743D01*
X79504058Y-87048049D01*
X79373030Y-87135599D01*
X79261599Y-87247030D01*
X79174049Y-87378058D01*
X79113743Y-87523649D01*
X79083000Y-87678207D01*
X79083000Y-87835793D01*
X79113743Y-87990351D01*
X79174049Y-88135942D01*
X79261599Y-88266970D01*
X79373030Y-88378401D01*
X79504058Y-88465951D01*
X79649649Y-88526257D01*
X79804207Y-88557000D01*
X79961793Y-88557000D01*
X79973555Y-88554661D01*
X80401080Y-88982187D01*
X80416736Y-89001264D01*
X80492871Y-89063746D01*
X80579733Y-89110175D01*
X80673983Y-89138765D01*
X80772000Y-89148419D01*
X80796560Y-89146000D01*
X85573440Y-89146000D01*
X85598000Y-89148419D01*
X85622560Y-89146000D01*
X85696017Y-89138765D01*
X85790267Y-89110175D01*
X85877129Y-89063746D01*
X85953264Y-89001264D01*
X85968929Y-88982176D01*
X85989402Y-88961703D01*
X85999318Y-89011555D01*
X86022190Y-89086954D01*
X86059699Y-89177510D01*
X86096842Y-89247001D01*
X86151298Y-89328500D01*
X86201284Y-89389408D01*
X86270592Y-89458716D01*
X86331500Y-89508702D01*
X86412999Y-89563158D01*
X86482490Y-89600301D01*
X86573046Y-89637810D01*
X86622001Y-89652660D01*
X86622000Y-90052340D01*
X86573046Y-90067190D01*
X86482490Y-90104699D01*
X86412999Y-90141842D01*
X86331500Y-90196298D01*
X86270592Y-90246284D01*
X86201284Y-90315592D01*
X86151298Y-90376500D01*
X86114214Y-90432000D01*
X85170107Y-90432000D01*
X84998661Y-90260554D01*
X85001000Y-90248793D01*
X85001000Y-90091207D01*
X84970257Y-89936649D01*
X84909951Y-89791058D01*
X84822401Y-89660030D01*
X84710970Y-89548599D01*
X84579942Y-89461049D01*
X84434351Y-89400743D01*
X84279793Y-89370000D01*
X84122207Y-89370000D01*
X83967649Y-89400743D01*
X83822058Y-89461049D01*
X83691030Y-89548599D01*
X83579599Y-89660030D01*
X83492049Y-89791058D01*
X83431743Y-89936649D01*
X83401000Y-90091207D01*
X83401000Y-90248793D01*
X83431743Y-90403351D01*
X83492049Y-90548942D01*
X83579599Y-90679970D01*
X83691030Y-90791401D01*
X83822058Y-90878951D01*
X83967649Y-90939257D01*
X84122207Y-90970000D01*
X84279793Y-90970000D01*
X84291554Y-90967661D01*
X84592080Y-91268187D01*
X84607736Y-91287264D01*
X84683871Y-91349746D01*
X84770733Y-91396175D01*
X84864983Y-91424765D01*
X84963000Y-91434419D01*
X84987560Y-91432000D01*
X85971542Y-91432000D01*
X85977788Y-91495414D01*
X85999503Y-91567000D01*
X85977788Y-91638586D01*
X85970065Y-91717000D01*
X85970065Y-92217000D01*
X85972473Y-92241449D01*
X85972473Y-92266009D01*
X85980196Y-92344422D01*
X85999318Y-92440555D01*
X86022190Y-92515954D01*
X86059699Y-92606510D01*
X86096842Y-92676001D01*
X86151298Y-92757500D01*
X86201284Y-92818408D01*
X86270592Y-92887716D01*
X86331500Y-92937702D01*
X86412999Y-92992158D01*
X86482490Y-93029301D01*
X86573046Y-93066810D01*
X86648445Y-93089682D01*
X86744578Y-93108804D01*
X86822991Y-93116527D01*
X86847551Y-93116527D01*
X86872000Y-93118935D01*
X87372000Y-93118935D01*
X87396449Y-93116527D01*
X87421009Y-93116527D01*
X87499422Y-93108804D01*
X87595555Y-93089682D01*
X87670954Y-93066810D01*
X87761510Y-93029301D01*
X87831001Y-92992158D01*
X87912500Y-92937702D01*
X87973408Y-92887716D01*
X88042716Y-92818408D01*
X88092702Y-92757500D01*
X88129786Y-92702000D01*
X88303940Y-92702000D01*
X88328500Y-92704419D01*
X88353060Y-92702000D01*
X88426517Y-92694765D01*
X88520767Y-92666175D01*
X88607629Y-92619746D01*
X88683764Y-92557264D01*
X88699429Y-92538176D01*
X89910398Y-91327208D01*
X89994609Y-91453239D01*
X90106040Y-91564670D01*
X90237068Y-91652220D01*
X90382659Y-91712526D01*
X90537217Y-91743269D01*
X90694803Y-91743269D01*
X90706565Y-91740929D01*
X90741815Y-91776180D01*
X90757477Y-91795264D01*
X90833612Y-91857746D01*
X90920474Y-91904175D01*
X91014724Y-91932765D01*
X91088181Y-91940000D01*
X91112741Y-91942419D01*
X91137301Y-91940000D01*
X92834117Y-91940000D01*
X92872265Y-92032097D01*
X93009062Y-92236828D01*
X93183172Y-92410938D01*
X93387903Y-92547735D01*
X93615389Y-92641963D01*
X93856886Y-92690000D01*
X94103114Y-92690000D01*
X94344611Y-92641963D01*
X94572097Y-92547735D01*
X94776828Y-92410938D01*
X94950938Y-92236828D01*
X95087735Y-92032097D01*
X95181963Y-91804611D01*
X95230000Y-91563114D01*
X95230000Y-91316886D01*
X95181963Y-91075389D01*
X95087735Y-90847903D01*
X94950938Y-90643172D01*
X94776828Y-90469062D01*
X94572097Y-90332265D01*
X94344611Y-90238037D01*
X94103114Y-90190000D01*
X93856886Y-90190000D01*
X93615389Y-90238037D01*
X93387903Y-90332265D01*
X93183172Y-90469062D01*
X93009062Y-90643172D01*
X92872265Y-90847903D01*
X92834117Y-90940000D01*
X91416010Y-90940000D01*
X91416010Y-90864476D01*
X91385267Y-90709918D01*
X91324961Y-90564327D01*
X91237411Y-90433299D01*
X91125980Y-90321868D01*
X90999949Y-90237657D01*
X91837606Y-89400000D01*
X92834117Y-89400000D01*
X92872265Y-89492097D01*
X93009062Y-89696828D01*
X93183172Y-89870938D01*
X93387903Y-90007735D01*
X93615389Y-90101963D01*
X93856886Y-90150000D01*
X94103114Y-90150000D01*
X94344611Y-90101963D01*
X94572097Y-90007735D01*
X94776828Y-89870938D01*
X94950938Y-89696828D01*
X95087735Y-89492097D01*
X95181963Y-89264611D01*
X95230000Y-89023114D01*
X95230000Y-88776886D01*
X95181963Y-88535389D01*
X95143815Y-88443291D01*
X95200918Y-88386188D01*
X95200922Y-88386183D01*
X95466182Y-88120924D01*
X95485265Y-88105263D01*
X95525001Y-88056845D01*
X95525001Y-107096758D01*
X95493722Y-107415765D01*
X95407826Y-107700265D01*
X95268307Y-107962661D01*
X95080479Y-108192962D01*
X94851495Y-108382394D01*
X94590079Y-108523741D01*
X94306188Y-108611620D01*
X93988602Y-108645000D01*
X76023232Y-108645000D01*
X75704235Y-108613722D01*
X75419735Y-108527826D01*
X75157339Y-108388307D01*
X74927038Y-108200479D01*
X74737606Y-107971495D01*
X74596259Y-107710079D01*
X74508380Y-107426188D01*
X74487550Y-107228000D01*
X79693000Y-107228000D01*
X79693000Y-107528000D01*
X79721008Y-107712375D01*
X79784448Y-107887743D01*
X79880882Y-108047365D01*
X80006603Y-108185107D01*
X80156781Y-108295675D01*
X80325644Y-108374820D01*
X80445209Y-108407181D01*
X80593000Y-108326528D01*
X80593000Y-107228000D01*
X80693000Y-107228000D01*
X80693000Y-108326528D01*
X80840791Y-108407181D01*
X80960356Y-108374820D01*
X81129219Y-108295675D01*
X81279397Y-108185107D01*
X81405118Y-108047365D01*
X81501552Y-107887743D01*
X81564992Y-107712375D01*
X81593000Y-107528000D01*
X81593000Y-107228000D01*
X88333000Y-107228000D01*
X88333000Y-107528000D01*
X88361008Y-107712375D01*
X88424448Y-107887743D01*
X88520882Y-108047365D01*
X88646603Y-108185107D01*
X88796781Y-108295675D01*
X88965644Y-108374820D01*
X89085209Y-108407181D01*
X89233000Y-108326528D01*
X89233000Y-107228000D01*
X89333000Y-107228000D01*
X89333000Y-108326528D01*
X89480791Y-108407181D01*
X89600356Y-108374820D01*
X89769219Y-108295675D01*
X89919397Y-108185107D01*
X90045118Y-108047365D01*
X90141552Y-107887743D01*
X90204992Y-107712375D01*
X90233000Y-107528000D01*
X90233000Y-107228000D01*
X89333000Y-107228000D01*
X89233000Y-107228000D01*
X88333000Y-107228000D01*
X81593000Y-107228000D01*
X80693000Y-107228000D01*
X80593000Y-107228000D01*
X79693000Y-107228000D01*
X74487550Y-107228000D01*
X74475000Y-107108602D01*
X74475000Y-106828000D01*
X79693000Y-106828000D01*
X79693000Y-107128000D01*
X80593000Y-107128000D01*
X80593000Y-106029472D01*
X80693000Y-106029472D01*
X80693000Y-107128000D01*
X81593000Y-107128000D01*
X81593000Y-106828000D01*
X88333000Y-106828000D01*
X88333000Y-107128000D01*
X89233000Y-107128000D01*
X89233000Y-106029472D01*
X89333000Y-106029472D01*
X89333000Y-107128000D01*
X90233000Y-107128000D01*
X90233000Y-106828000D01*
X90204992Y-106643625D01*
X90141552Y-106468257D01*
X90045118Y-106308635D01*
X89919397Y-106170893D01*
X89769219Y-106060325D01*
X89600356Y-105981180D01*
X89480791Y-105948819D01*
X89333000Y-106029472D01*
X89233000Y-106029472D01*
X89085209Y-105948819D01*
X88965644Y-105981180D01*
X88796781Y-106060325D01*
X88646603Y-106170893D01*
X88520882Y-106308635D01*
X88424448Y-106468257D01*
X88361008Y-106643625D01*
X88333000Y-106828000D01*
X81593000Y-106828000D01*
X81564992Y-106643625D01*
X81501552Y-106468257D01*
X81405118Y-106308635D01*
X81279397Y-106170893D01*
X81129219Y-106060325D01*
X80960356Y-105981180D01*
X80840791Y-105948819D01*
X80693000Y-106029472D01*
X80593000Y-106029472D01*
X80445209Y-105948819D01*
X80325644Y-105981180D01*
X80156781Y-106060325D01*
X80006603Y-106170893D01*
X79880882Y-106308635D01*
X79784448Y-106468257D01*
X79721008Y-106643625D01*
X79693000Y-106828000D01*
X74475000Y-106828000D01*
X74475000Y-103031336D01*
X79693000Y-103031336D01*
X79693000Y-103724665D01*
X79706746Y-103864232D01*
X79761069Y-104043308D01*
X79849283Y-104208345D01*
X79968000Y-104353001D01*
X80112656Y-104471718D01*
X80277693Y-104559932D01*
X80456769Y-104614254D01*
X80643000Y-104632596D01*
X80829232Y-104614254D01*
X81008308Y-104559932D01*
X81173345Y-104471718D01*
X81318001Y-104353001D01*
X81436718Y-104208345D01*
X81524932Y-104043308D01*
X81579254Y-103864232D01*
X81593000Y-103724665D01*
X81593000Y-103031336D01*
X88333000Y-103031336D01*
X88333000Y-103724665D01*
X88346746Y-103864232D01*
X88401069Y-104043308D01*
X88489283Y-104208345D01*
X88608000Y-104353001D01*
X88752656Y-104471718D01*
X88917693Y-104559932D01*
X89096769Y-104614254D01*
X89283000Y-104632596D01*
X89469232Y-104614254D01*
X89648308Y-104559932D01*
X89813345Y-104471718D01*
X89958001Y-104353001D01*
X90076718Y-104208345D01*
X90164932Y-104043308D01*
X90219254Y-103864232D01*
X90233000Y-103724665D01*
X90233000Y-103031335D01*
X90219254Y-102891768D01*
X90164932Y-102712692D01*
X90076718Y-102547655D01*
X89958001Y-102402999D01*
X89813345Y-102284282D01*
X89648307Y-102196068D01*
X89469231Y-102141746D01*
X89283000Y-102123404D01*
X89096768Y-102141746D01*
X88917692Y-102196068D01*
X88752655Y-102284282D01*
X88607999Y-102402999D01*
X88489282Y-102547655D01*
X88401068Y-102712693D01*
X88346746Y-102891769D01*
X88333000Y-103031336D01*
X81593000Y-103031336D01*
X81593000Y-103031335D01*
X81579254Y-102891768D01*
X81524932Y-102712692D01*
X81436718Y-102547655D01*
X81318001Y-102402999D01*
X81173345Y-102284282D01*
X81008307Y-102196068D01*
X80829231Y-102141746D01*
X80643000Y-102123404D01*
X80456768Y-102141746D01*
X80277692Y-102196068D01*
X80112655Y-102284282D01*
X79967999Y-102402999D01*
X79849282Y-102547655D01*
X79761068Y-102712693D01*
X79706746Y-102891769D01*
X79693000Y-103031336D01*
X74475000Y-103031336D01*
X74475000Y-101369131D01*
X74551058Y-101419951D01*
X74696649Y-101480257D01*
X74851207Y-101511000D01*
X75008793Y-101511000D01*
X75163351Y-101480257D01*
X75308942Y-101419951D01*
X75439970Y-101332401D01*
X75551401Y-101220970D01*
X75638951Y-101089942D01*
X75699257Y-100944351D01*
X75730000Y-100789793D01*
X75730000Y-100632207D01*
X75699257Y-100477649D01*
X75638951Y-100332058D01*
X75551401Y-100201030D01*
X75439970Y-100089599D01*
X75430000Y-100082937D01*
X75430000Y-100048864D01*
X75607903Y-100167735D01*
X75835389Y-100261963D01*
X76076886Y-100310000D01*
X76323114Y-100310000D01*
X76564611Y-100261963D01*
X76792097Y-100167735D01*
X76996828Y-100030938D01*
X77170938Y-99856828D01*
X77307735Y-99652097D01*
X77401963Y-99424611D01*
X77450000Y-99183114D01*
X77450000Y-98936886D01*
X77401963Y-98695389D01*
X77307735Y-98467903D01*
X77170938Y-98263172D01*
X76996828Y-98089062D01*
X76792097Y-97952265D01*
X76564611Y-97858037D01*
X76323114Y-97810000D01*
X76076886Y-97810000D01*
X75835389Y-97858037D01*
X75607903Y-97952265D01*
X75430000Y-98071136D01*
X75430000Y-97508864D01*
X75607903Y-97627735D01*
X75835389Y-97721963D01*
X76076886Y-97770000D01*
X76323114Y-97770000D01*
X76564611Y-97721963D01*
X76792097Y-97627735D01*
X76996828Y-97490938D01*
X77170938Y-97316828D01*
X77307735Y-97112097D01*
X77401963Y-96884611D01*
X77450000Y-96643114D01*
X77450000Y-96396886D01*
X77401963Y-96155389D01*
X77307735Y-95927903D01*
X77170938Y-95723172D01*
X76996828Y-95549062D01*
X76792097Y-95412265D01*
X76564611Y-95318037D01*
X76323114Y-95270000D01*
X76076886Y-95270000D01*
X75835389Y-95318037D01*
X75607903Y-95412265D01*
X75430000Y-95531136D01*
X75430000Y-94968864D01*
X75607903Y-95087735D01*
X75835389Y-95181963D01*
X76076886Y-95230000D01*
X76323114Y-95230000D01*
X76564611Y-95181963D01*
X76792097Y-95087735D01*
X76996828Y-94950938D01*
X77170938Y-94776828D01*
X77224001Y-94697414D01*
X77224001Y-94971430D01*
X77221581Y-94996000D01*
X77231235Y-95094017D01*
X77257914Y-95181963D01*
X77259826Y-95188267D01*
X77306255Y-95275129D01*
X77368737Y-95351264D01*
X77387819Y-95366924D01*
X77942340Y-95921445D01*
X77940000Y-95933207D01*
X77940000Y-96090793D01*
X77970743Y-96245351D01*
X78031049Y-96390942D01*
X78118599Y-96521970D01*
X78230030Y-96633401D01*
X78361058Y-96720951D01*
X78506649Y-96781257D01*
X78661207Y-96812000D01*
X78818793Y-96812000D01*
X78973351Y-96781257D01*
X79118942Y-96720951D01*
X79249970Y-96633401D01*
X79361401Y-96521970D01*
X79448951Y-96390942D01*
X79509257Y-96245351D01*
X79540000Y-96090793D01*
X79540000Y-95933207D01*
X79509257Y-95778649D01*
X79448951Y-95633058D01*
X79361401Y-95502030D01*
X79249970Y-95390599D01*
X79118942Y-95303049D01*
X78973351Y-95242743D01*
X78818793Y-95212000D01*
X78661207Y-95212000D01*
X78649445Y-95214340D01*
X78224000Y-94788895D01*
X78224000Y-93496559D01*
X78226419Y-93472000D01*
X78216765Y-93373983D01*
X78203848Y-93331401D01*
X78188175Y-93279733D01*
X78141746Y-93192871D01*
X78079264Y-93116736D01*
X78060187Y-93101080D01*
X77759661Y-92800554D01*
X77762000Y-92788793D01*
X77762000Y-92631207D01*
X77731257Y-92476649D01*
X77670951Y-92331058D01*
X77583401Y-92200030D01*
X77471970Y-92088599D01*
X77340942Y-92001049D01*
X77323575Y-91993855D01*
X77401963Y-91804611D01*
X77450000Y-91563114D01*
X77450000Y-91316886D01*
X77401963Y-91075389D01*
X77307735Y-90847903D01*
X77170938Y-90643172D01*
X76996828Y-90469062D01*
X76792097Y-90332265D01*
X76564611Y-90238037D01*
X76323114Y-90190000D01*
X76076886Y-90190000D01*
X75835389Y-90238037D01*
X75607903Y-90332265D01*
X75430000Y-90451136D01*
X75430000Y-89888864D01*
X75607903Y-90007735D01*
X75835389Y-90101963D01*
X76076886Y-90150000D01*
X76323114Y-90150000D01*
X76564611Y-90101963D01*
X76792097Y-90007735D01*
X76996828Y-89870938D01*
X77170938Y-89696828D01*
X77307735Y-89492097D01*
X77401963Y-89264611D01*
X77439638Y-89075207D01*
X77559000Y-89075207D01*
X77559000Y-89232793D01*
X77589743Y-89387351D01*
X77650049Y-89532942D01*
X77737599Y-89663970D01*
X77849030Y-89775401D01*
X77980058Y-89862951D01*
X78125649Y-89923257D01*
X78280207Y-89954000D01*
X78437793Y-89954000D01*
X78449555Y-89951661D01*
X78748001Y-90250108D01*
X78748000Y-93447440D01*
X78745581Y-93472000D01*
X78748000Y-93496559D01*
X78755235Y-93570016D01*
X78783825Y-93664266D01*
X78830254Y-93751129D01*
X78892736Y-93827264D01*
X78911824Y-93842929D01*
X81472011Y-96403118D01*
X81420599Y-96454530D01*
X81333049Y-96585558D01*
X81272743Y-96731149D01*
X81242000Y-96885707D01*
X81242000Y-97043293D01*
X81272743Y-97197851D01*
X81333049Y-97343442D01*
X81420599Y-97474470D01*
X81532030Y-97585901D01*
X81663058Y-97673451D01*
X81808649Y-97733757D01*
X81963207Y-97764500D01*
X82120793Y-97764500D01*
X82275351Y-97733757D01*
X82420942Y-97673451D01*
X82551970Y-97585901D01*
X82663401Y-97474470D01*
X82750951Y-97343442D01*
X82811257Y-97197851D01*
X82842000Y-97043293D01*
X82842000Y-96885707D01*
X82811257Y-96731149D01*
X82750951Y-96585558D01*
X82663401Y-96454530D01*
X82551970Y-96343099D01*
X82542000Y-96336437D01*
X82542000Y-96290560D01*
X82544419Y-96266000D01*
X82534765Y-96167983D01*
X82517181Y-96110017D01*
X82506175Y-96073733D01*
X82459746Y-95986871D01*
X82397264Y-95910736D01*
X82378187Y-95895080D01*
X79748000Y-93264895D01*
X79748000Y-90980217D01*
X80734000Y-90980217D01*
X80734000Y-91137803D01*
X80764743Y-91292361D01*
X80825049Y-91437952D01*
X80912599Y-91568980D01*
X81024030Y-91680411D01*
X81155058Y-91767961D01*
X81300649Y-91828267D01*
X81352469Y-91838575D01*
X83320001Y-93806107D01*
X83320000Y-100630893D01*
X83275554Y-100675339D01*
X83263793Y-100673000D01*
X83106207Y-100673000D01*
X82951649Y-100703743D01*
X82806058Y-100764049D01*
X82675030Y-100851599D01*
X82563599Y-100963030D01*
X82476049Y-101094058D01*
X82415743Y-101239649D01*
X82385000Y-101394207D01*
X82385000Y-101551793D01*
X82415743Y-101706351D01*
X82476049Y-101851942D01*
X82563599Y-101982970D01*
X82675030Y-102094401D01*
X82806058Y-102181951D01*
X82951649Y-102242257D01*
X83106207Y-102273000D01*
X83263793Y-102273000D01*
X83418351Y-102242257D01*
X83563942Y-102181951D01*
X83694970Y-102094401D01*
X83806401Y-101982970D01*
X83893951Y-101851942D01*
X83954257Y-101706351D01*
X83985000Y-101551793D01*
X83985000Y-101394207D01*
X83982661Y-101382446D01*
X84156186Y-101208920D01*
X84175264Y-101193264D01*
X84237746Y-101117129D01*
X84284175Y-101030267D01*
X84312765Y-100936017D01*
X84320000Y-100862560D01*
X84320000Y-100862559D01*
X84322419Y-100838000D01*
X84320000Y-100813440D01*
X84320000Y-93623557D01*
X84322419Y-93598999D01*
X84318676Y-93561000D01*
X84312765Y-93500983D01*
X84284175Y-93406733D01*
X84237746Y-93319871D01*
X84175264Y-93243736D01*
X84156181Y-93228075D01*
X82781920Y-91853815D01*
X82873495Y-91835600D01*
X85987001Y-94949108D01*
X85987000Y-100802986D01*
X85977030Y-100809648D01*
X85865599Y-100921079D01*
X85778049Y-101052107D01*
X85717743Y-101197698D01*
X85687000Y-101352256D01*
X85687000Y-101509842D01*
X85717743Y-101664400D01*
X85778049Y-101809991D01*
X85865599Y-101941019D01*
X85977030Y-102052450D01*
X86108058Y-102140000D01*
X86253649Y-102200306D01*
X86408207Y-102231049D01*
X86565793Y-102231049D01*
X86720351Y-102200306D01*
X86865942Y-102140000D01*
X86996970Y-102052450D01*
X87108401Y-101941019D01*
X87195951Y-101809991D01*
X87256257Y-101664400D01*
X87287000Y-101509842D01*
X87287000Y-101352256D01*
X87256257Y-101197698D01*
X87195951Y-101052107D01*
X87108401Y-100921079D01*
X86996970Y-100809648D01*
X86987000Y-100802986D01*
X86987000Y-98936886D01*
X92730000Y-98936886D01*
X92730000Y-99183114D01*
X92778037Y-99424611D01*
X92872265Y-99652097D01*
X93009062Y-99856828D01*
X93183172Y-100030938D01*
X93387903Y-100167735D01*
X93615389Y-100261963D01*
X93856886Y-100310000D01*
X94103114Y-100310000D01*
X94344611Y-100261963D01*
X94572097Y-100167735D01*
X94776828Y-100030938D01*
X94950938Y-99856828D01*
X95087735Y-99652097D01*
X95181963Y-99424611D01*
X95230000Y-99183114D01*
X95230000Y-98936886D01*
X95181963Y-98695389D01*
X95087735Y-98467903D01*
X94950938Y-98263172D01*
X94776828Y-98089062D01*
X94572097Y-97952265D01*
X94344611Y-97858037D01*
X94103114Y-97810000D01*
X93856886Y-97810000D01*
X93615389Y-97858037D01*
X93387903Y-97952265D01*
X93183172Y-98089062D01*
X93009062Y-98263172D01*
X92872265Y-98467903D01*
X92778037Y-98695389D01*
X92730000Y-98936886D01*
X86987000Y-98936886D01*
X86987000Y-94766560D01*
X86989419Y-94742000D01*
X86979765Y-94643983D01*
X86974031Y-94625081D01*
X86951175Y-94549733D01*
X86904746Y-94462871D01*
X86842264Y-94386736D01*
X86823187Y-94371080D01*
X86734314Y-94282207D01*
X88354000Y-94282207D01*
X88354000Y-94439793D01*
X88384743Y-94594351D01*
X88445049Y-94739942D01*
X88532599Y-94870970D01*
X88644030Y-94982401D01*
X88654000Y-94989063D01*
X88654001Y-96272408D01*
X88572049Y-96395058D01*
X88511743Y-96540649D01*
X88481000Y-96695207D01*
X88481000Y-96852793D01*
X88511743Y-97007351D01*
X88572049Y-97152942D01*
X88659599Y-97283970D01*
X88771030Y-97395401D01*
X88902058Y-97482951D01*
X89047649Y-97543257D01*
X89202207Y-97574000D01*
X89359793Y-97574000D01*
X89514351Y-97543257D01*
X89659942Y-97482951D01*
X89790970Y-97395401D01*
X89902401Y-97283970D01*
X89989951Y-97152942D01*
X90050257Y-97007351D01*
X90081000Y-96852793D01*
X90081000Y-96695207D01*
X90050257Y-96540649D01*
X89990709Y-96396886D01*
X92730000Y-96396886D01*
X92730000Y-96643114D01*
X92778037Y-96884611D01*
X92872265Y-97112097D01*
X93009062Y-97316828D01*
X93183172Y-97490938D01*
X93387903Y-97627735D01*
X93615389Y-97721963D01*
X93856886Y-97770000D01*
X94103114Y-97770000D01*
X94344611Y-97721963D01*
X94572097Y-97627735D01*
X94776828Y-97490938D01*
X94950938Y-97316828D01*
X95087735Y-97112097D01*
X95181963Y-96884611D01*
X95230000Y-96643114D01*
X95230000Y-96396886D01*
X95181963Y-96155389D01*
X95087735Y-95927903D01*
X94950938Y-95723172D01*
X94776828Y-95549062D01*
X94572097Y-95412265D01*
X94344611Y-95318037D01*
X94103114Y-95270000D01*
X93856886Y-95270000D01*
X93615389Y-95318037D01*
X93387903Y-95412265D01*
X93183172Y-95549062D01*
X93009062Y-95723172D01*
X92872265Y-95927903D01*
X92778037Y-96155389D01*
X92730000Y-96396886D01*
X89990709Y-96396886D01*
X89989951Y-96395058D01*
X89902401Y-96264030D01*
X89790970Y-96152599D01*
X89659942Y-96065049D01*
X89654000Y-96062588D01*
X89654000Y-94989063D01*
X89663970Y-94982401D01*
X89775401Y-94870970D01*
X89862951Y-94739942D01*
X89923257Y-94594351D01*
X89954000Y-94439793D01*
X89954000Y-94282207D01*
X89923257Y-94127649D01*
X89862951Y-93982058D01*
X89779314Y-93856886D01*
X92730000Y-93856886D01*
X92730000Y-94103114D01*
X92778037Y-94344611D01*
X92872265Y-94572097D01*
X93009062Y-94776828D01*
X93183172Y-94950938D01*
X93387903Y-95087735D01*
X93615389Y-95181963D01*
X93856886Y-95230000D01*
X94103114Y-95230000D01*
X94344611Y-95181963D01*
X94572097Y-95087735D01*
X94776828Y-94950938D01*
X94950938Y-94776828D01*
X95087735Y-94572097D01*
X95181963Y-94344611D01*
X95230000Y-94103114D01*
X95230000Y-93856886D01*
X95181963Y-93615389D01*
X95087735Y-93387903D01*
X94950938Y-93183172D01*
X94776828Y-93009062D01*
X94572097Y-92872265D01*
X94344611Y-92778037D01*
X94103114Y-92730000D01*
X93856886Y-92730000D01*
X93615389Y-92778037D01*
X93387903Y-92872265D01*
X93183172Y-93009062D01*
X93009062Y-93183172D01*
X92872265Y-93387903D01*
X92778037Y-93615389D01*
X92730000Y-93856886D01*
X89779314Y-93856886D01*
X89775401Y-93851030D01*
X89663970Y-93739599D01*
X89532942Y-93652049D01*
X89387351Y-93591743D01*
X89232793Y-93561000D01*
X89075207Y-93561000D01*
X88920649Y-93591743D01*
X88775058Y-93652049D01*
X88644030Y-93739599D01*
X88532599Y-93851030D01*
X88445049Y-93982058D01*
X88384743Y-94127649D01*
X88354000Y-94282207D01*
X86734314Y-94282207D01*
X83477000Y-91024895D01*
X83477000Y-90980219D01*
X83446257Y-90825661D01*
X83385951Y-90680070D01*
X83298401Y-90549042D01*
X83186970Y-90437611D01*
X83055942Y-90350061D01*
X82910351Y-90289755D01*
X82755793Y-90259012D01*
X82598207Y-90259012D01*
X82443649Y-90289755D01*
X82298058Y-90350061D01*
X82167030Y-90437611D01*
X82105501Y-90499140D01*
X82043970Y-90437609D01*
X81912942Y-90350059D01*
X81767351Y-90289753D01*
X81612793Y-90259010D01*
X81455207Y-90259010D01*
X81300649Y-90289753D01*
X81155058Y-90350059D01*
X81024030Y-90437609D01*
X80912599Y-90549040D01*
X80825049Y-90680068D01*
X80764743Y-90825659D01*
X80734000Y-90980217D01*
X79748000Y-90980217D01*
X79748000Y-90067560D01*
X79750419Y-90043000D01*
X79740765Y-89944983D01*
X79738237Y-89936649D01*
X79712175Y-89850733D01*
X79665746Y-89763871D01*
X79603264Y-89687736D01*
X79584187Y-89672080D01*
X79156661Y-89244555D01*
X79159000Y-89232793D01*
X79159000Y-89075207D01*
X79128257Y-88920649D01*
X79067951Y-88775058D01*
X78980401Y-88644030D01*
X78868970Y-88532599D01*
X78737942Y-88445049D01*
X78592351Y-88384743D01*
X78437793Y-88354000D01*
X78280207Y-88354000D01*
X78125649Y-88384743D01*
X77980058Y-88445049D01*
X77849030Y-88532599D01*
X77737599Y-88644030D01*
X77650049Y-88775058D01*
X77589743Y-88920649D01*
X77559000Y-89075207D01*
X77439638Y-89075207D01*
X77450000Y-89023114D01*
X77450000Y-88776886D01*
X77401963Y-88535389D01*
X77307735Y-88307903D01*
X77170938Y-88103172D01*
X76996828Y-87929062D01*
X76792097Y-87792265D01*
X76564611Y-87698037D01*
X76323114Y-87650000D01*
X76076886Y-87650000D01*
X75835389Y-87698037D01*
X75607903Y-87792265D01*
X75430000Y-87911136D01*
X75430000Y-87348864D01*
X75607903Y-87467735D01*
X75835389Y-87561963D01*
X76076886Y-87610000D01*
X76323114Y-87610000D01*
X76564611Y-87561963D01*
X76792097Y-87467735D01*
X76996828Y-87330938D01*
X77170938Y-87156828D01*
X77307735Y-86952097D01*
X77401963Y-86724611D01*
X77450000Y-86483114D01*
X77450000Y-86236886D01*
X77401963Y-85995389D01*
X77311234Y-85776351D01*
X77345058Y-85798951D01*
X77490649Y-85859257D01*
X77645207Y-85890000D01*
X77802793Y-85890000D01*
X77957351Y-85859257D01*
X78102942Y-85798951D01*
X78233970Y-85711401D01*
X78345401Y-85599970D01*
X78432951Y-85468942D01*
X78493257Y-85323351D01*
X78524000Y-85168793D01*
X78524000Y-85011207D01*
X78493257Y-84856649D01*
X78432951Y-84711058D01*
X78345401Y-84580030D01*
X78233970Y-84468599D01*
X78224000Y-84461937D01*
X78224000Y-83138105D01*
X79819182Y-81542924D01*
X79838265Y-81527263D01*
X79900747Y-81451128D01*
X79947176Y-81364266D01*
X79961210Y-81318000D01*
X79961793Y-81318000D01*
X80116351Y-81287257D01*
X80261942Y-81226951D01*
X80392970Y-81139401D01*
X80504401Y-81027970D01*
X80591951Y-80896942D01*
X80652257Y-80751351D01*
X80683000Y-80596793D01*
X80683000Y-80439207D01*
X80652257Y-80284649D01*
X80591951Y-80139058D01*
X80504401Y-80008030D01*
X80392970Y-79896599D01*
X80261942Y-79809049D01*
X80116351Y-79748743D01*
X79961793Y-79718000D01*
X79804207Y-79718000D01*
X79649649Y-79748743D01*
X79504058Y-79809049D01*
X79373030Y-79896599D01*
X79261599Y-80008030D01*
X79174049Y-80139058D01*
X79113743Y-80284649D01*
X79083000Y-80439207D01*
X79083000Y-80596793D01*
X79086275Y-80613258D01*
X79065256Y-80638870D01*
X79018826Y-80725732D01*
X78994743Y-80805125D01*
X78990236Y-80819982D01*
X78980582Y-80917999D01*
X78983001Y-80942559D01*
X78983001Y-80964893D01*
X78477968Y-81469926D01*
X78477968Y-81146063D01*
X78487938Y-81139401D01*
X78599369Y-81027970D01*
X78686919Y-80896942D01*
X78747225Y-80751351D01*
X78777968Y-80596793D01*
X78777968Y-80439207D01*
X78747225Y-80284649D01*
X78686919Y-80139058D01*
X78599369Y-80008030D01*
X78487938Y-79896599D01*
X78478000Y-79889959D01*
X78478000Y-72510063D01*
X78487970Y-72503401D01*
X78599401Y-72391970D01*
X78686951Y-72260942D01*
X78747257Y-72115351D01*
X78778000Y-71960793D01*
X78778000Y-71803207D01*
X78747257Y-71648649D01*
X78686951Y-71503058D01*
X78599401Y-71372030D01*
X78487970Y-71260599D01*
X78356942Y-71173049D01*
X78211351Y-71112743D01*
X78056793Y-71082000D01*
X78052295Y-71082000D01*
X78109510Y-71058301D01*
X78179001Y-71021158D01*
X78260500Y-70966702D01*
X78321408Y-70916716D01*
X78390716Y-70847408D01*
X78440702Y-70786500D01*
X78495158Y-70705001D01*
X78532301Y-70635510D01*
X78569810Y-70544954D01*
X78591137Y-70474648D01*
X78633649Y-70492257D01*
X78788207Y-70523000D01*
X78945793Y-70523000D01*
X78957554Y-70520661D01*
X79019079Y-70582186D01*
X79034736Y-70601264D01*
X79110871Y-70663746D01*
X79197733Y-70710175D01*
X79266385Y-70731000D01*
X79291983Y-70738765D01*
X79390000Y-70748419D01*
X79394553Y-70747971D01*
X79420298Y-70786500D01*
X79470284Y-70847408D01*
X79539592Y-70916716D01*
X79600500Y-70966702D01*
X79681999Y-71021158D01*
X79751490Y-71058301D01*
X79842046Y-71095810D01*
X79917445Y-71118682D01*
X80013578Y-71137804D01*
X80091991Y-71145527D01*
X80116551Y-71145527D01*
X80141000Y-71147935D01*
X80641000Y-71147935D01*
X80665449Y-71145527D01*
X80690009Y-71145527D01*
X80768422Y-71137804D01*
X80864555Y-71118682D01*
X80939954Y-71095810D01*
X81030510Y-71058301D01*
X81100001Y-71021158D01*
X81181500Y-70966702D01*
X81242408Y-70916716D01*
X81311716Y-70847408D01*
X81361702Y-70786500D01*
X81416158Y-70705001D01*
X81453301Y-70635510D01*
X81490810Y-70544954D01*
X81513682Y-70469555D01*
X81532804Y-70373422D01*
X81540527Y-70295009D01*
X81540527Y-70270449D01*
X81542935Y-70246000D01*
X81542935Y-69746000D01*
X81535212Y-69667586D01*
X81513497Y-69596000D01*
X81535212Y-69524414D01*
X81542935Y-69446000D01*
X81542935Y-68946000D01*
X81540527Y-68921551D01*
X81540527Y-68896991D01*
X81532804Y-68818578D01*
X81513682Y-68722445D01*
X81490810Y-68647046D01*
X81453301Y-68556490D01*
X81416158Y-68486999D01*
X81361702Y-68405500D01*
X81311716Y-68344592D01*
X81242408Y-68275284D01*
X81181500Y-68225298D01*
X81100001Y-68170842D01*
X81030510Y-68133699D01*
X80939954Y-68096190D01*
X80864555Y-68073318D01*
X80838072Y-68068050D01*
X80841628Y-68067700D01*
X81001854Y-68019097D01*
X81149518Y-67940168D01*
X81278948Y-67833948D01*
X81385168Y-67704519D01*
X81464097Y-67556855D01*
X81512700Y-67396629D01*
X81525000Y-67271749D01*
X81525000Y-66564453D01*
X81566274Y-66626224D01*
X81663776Y-66723726D01*
X81778426Y-66800332D01*
X81905818Y-66853099D01*
X82041056Y-66880000D01*
X82178944Y-66880000D01*
X82314182Y-66853099D01*
X82441574Y-66800332D01*
X82556224Y-66723726D01*
X82653726Y-66626224D01*
X82730332Y-66511574D01*
X82783099Y-66384182D01*
X82810000Y-66248944D01*
X82810000Y-66111056D01*
X82783099Y-65975818D01*
X82730332Y-65848426D01*
X82653726Y-65733776D01*
X82556224Y-65636274D01*
X82441574Y-65559668D01*
X82314182Y-65506901D01*
X82178944Y-65480000D01*
X82041056Y-65480000D01*
X81905818Y-65506901D01*
X81778426Y-65559668D01*
X81663776Y-65636274D01*
X81566274Y-65733776D01*
X81489668Y-65848426D01*
X81482836Y-65864920D01*
X81464097Y-65803145D01*
X81385168Y-65655481D01*
X81278948Y-65526052D01*
X81149519Y-65419832D01*
X81001855Y-65340903D01*
X80841629Y-65292300D01*
X80675000Y-65275888D01*
X80508372Y-65292300D01*
X80348146Y-65340903D01*
X80200482Y-65419832D01*
X80071053Y-65526052D01*
X79964833Y-65655481D01*
X79885904Y-65803145D01*
X79837301Y-65963371D01*
X79825001Y-66088251D01*
X79825000Y-67271748D01*
X79837300Y-67396628D01*
X79885903Y-67556854D01*
X79964832Y-67704518D01*
X80071052Y-67833948D01*
X80200481Y-67940168D01*
X80348145Y-68019097D01*
X80430455Y-68044065D01*
X80141000Y-68044065D01*
X80116551Y-68046473D01*
X80091991Y-68046473D01*
X80013578Y-68054196D01*
X79917445Y-68073318D01*
X79860975Y-68090448D01*
X79540000Y-67769473D01*
X79540000Y-67739207D01*
X79509257Y-67584649D01*
X79448951Y-67439058D01*
X79361401Y-67308030D01*
X79249970Y-67196599D01*
X79118942Y-67109049D01*
X78973351Y-67048743D01*
X78818793Y-67018000D01*
X78661207Y-67018000D01*
X78506649Y-67048743D01*
X78361058Y-67109049D01*
X78230030Y-67196599D01*
X78118599Y-67308030D01*
X78031049Y-67439058D01*
X77970743Y-67584649D01*
X77940000Y-67739207D01*
X77940000Y-67896793D01*
X77970743Y-68051351D01*
X77985057Y-68085907D01*
X77943555Y-68073318D01*
X77847422Y-68054196D01*
X77769009Y-68046473D01*
X77744449Y-68046473D01*
X77720000Y-68044065D01*
X77220000Y-68044065D01*
X77195551Y-68046473D01*
X77170991Y-68046473D01*
X77092578Y-68054196D01*
X76996445Y-68073318D01*
X76921046Y-68096190D01*
X76830490Y-68133699D01*
X76760999Y-68170842D01*
X76679500Y-68225298D01*
X76618592Y-68275284D01*
X76549284Y-68344592D01*
X76499298Y-68405500D01*
X76444842Y-68486999D01*
X76407699Y-68556490D01*
X76370190Y-68647046D01*
X76347318Y-68722445D01*
X76328196Y-68818578D01*
X76320473Y-68896991D01*
X76320473Y-68921551D01*
X76318065Y-68946000D01*
X76318065Y-69446000D01*
X76325788Y-69524414D01*
X76347503Y-69596000D01*
X76325788Y-69667586D01*
X76318065Y-69746000D01*
X76318065Y-69804598D01*
X76301871Y-69813254D01*
X76225736Y-69875736D01*
X76210080Y-69894813D01*
X74593819Y-71511076D01*
X74574737Y-71526736D01*
X74512255Y-71602871D01*
X74499244Y-71627213D01*
X74475000Y-71672570D01*
X74475000Y-63023232D01*
X74506278Y-62704236D01*
X74552844Y-62550000D01*
X79825000Y-62550000D01*
X79825000Y-63100000D01*
X79851087Y-63264866D01*
X79908837Y-63421475D01*
X79996030Y-63563808D01*
X80109315Y-63686396D01*
X80244339Y-63784527D01*
X80395913Y-63854431D01*
X80492877Y-63880259D01*
X80625000Y-63798331D01*
X80625000Y-62550000D01*
X80725000Y-62550000D01*
X80725000Y-63798331D01*
X80857123Y-63880259D01*
X80954087Y-63854431D01*
X81105661Y-63784527D01*
X81240685Y-63686396D01*
X81353970Y-63563808D01*
X81441163Y-63421475D01*
X81498913Y-63264866D01*
X81525000Y-63100000D01*
X81525000Y-62550000D01*
X88475000Y-62550000D01*
X88475000Y-63100000D01*
X88501087Y-63264866D01*
X88558837Y-63421475D01*
X88646030Y-63563808D01*
X88759315Y-63686396D01*
X88894339Y-63784527D01*
X89045913Y-63854431D01*
X89142877Y-63880259D01*
X89275000Y-63798331D01*
X89275000Y-62550000D01*
X89375000Y-62550000D01*
X89375000Y-63798331D01*
X89507123Y-63880259D01*
X89604087Y-63854431D01*
X89755661Y-63784527D01*
X89890685Y-63686396D01*
X90003970Y-63563808D01*
X90091163Y-63421475D01*
X90148913Y-63264866D01*
X90175000Y-63100000D01*
X90175000Y-62550000D01*
X89375000Y-62550000D01*
X89275000Y-62550000D01*
X88475000Y-62550000D01*
X81525000Y-62550000D01*
X80725000Y-62550000D01*
X80625000Y-62550000D01*
X79825000Y-62550000D01*
X74552844Y-62550000D01*
X74592173Y-62419737D01*
X74731695Y-62157335D01*
X74919521Y-61927039D01*
X75148505Y-61737606D01*
X75409921Y-61596259D01*
X75693812Y-61508380D01*
X76011398Y-61475000D01*
X79972256Y-61475000D01*
X79908837Y-61578525D01*
G04 #@! TA.AperFunction,Conductor*
D19*
G36*
X79908837Y-61578525D02*
G01*
X79851087Y-61735134D01*
X79825000Y-61900000D01*
X79825000Y-62450000D01*
X80625000Y-62450000D01*
X80625000Y-62430000D01*
X80725000Y-62430000D01*
X80725000Y-62450000D01*
X81525000Y-62450000D01*
X81525000Y-61900000D01*
X81498913Y-61735134D01*
X81441163Y-61578525D01*
X81377744Y-61475000D01*
X88622256Y-61475000D01*
X88558837Y-61578525D01*
X88501087Y-61735134D01*
X88475000Y-61900000D01*
X88475000Y-62450000D01*
X89275000Y-62450000D01*
X89275000Y-62430000D01*
X89375000Y-62430000D01*
X89375000Y-62450000D01*
X90175000Y-62450000D01*
X90175000Y-61900000D01*
X90148913Y-61735134D01*
X90091163Y-61578525D01*
X90027744Y-61475000D01*
X93976768Y-61475000D01*
X94295764Y-61506278D01*
X94580263Y-61592173D01*
X94842665Y-61731695D01*
X95072961Y-61919521D01*
X95262394Y-62148505D01*
X95403741Y-62409921D01*
X95491620Y-62693812D01*
X95525000Y-63011398D01*
X95525000Y-79583155D01*
X95485265Y-79534737D01*
X95466182Y-79519076D01*
X95143815Y-79196709D01*
X95181963Y-79104611D01*
X95230000Y-78863114D01*
X95230000Y-78616886D01*
X95181963Y-78375389D01*
X95087735Y-78147903D01*
X94950938Y-77943172D01*
X94776828Y-77769062D01*
X94572097Y-77632265D01*
X94344611Y-77538037D01*
X94103114Y-77490000D01*
X93856886Y-77490000D01*
X93615389Y-77538037D01*
X93387903Y-77632265D01*
X93183172Y-77769062D01*
X93009062Y-77943172D01*
X92872265Y-78147903D01*
X92778037Y-78375389D01*
X92730000Y-78616886D01*
X92730000Y-78863114D01*
X92778037Y-79104611D01*
X92872265Y-79332097D01*
X93009062Y-79536828D01*
X93183172Y-79710938D01*
X93387903Y-79847735D01*
X93615389Y-79941963D01*
X93856886Y-79990000D01*
X94103114Y-79990000D01*
X94344611Y-79941963D01*
X94436709Y-79903815D01*
X94630001Y-80097107D01*
X94630001Y-80210955D01*
X94572097Y-80172265D01*
X94344611Y-80078037D01*
X94103114Y-80030000D01*
X93856886Y-80030000D01*
X93615389Y-80078037D01*
X93387903Y-80172265D01*
X93183172Y-80309062D01*
X93009062Y-80483172D01*
X92872265Y-80687903D01*
X92778037Y-80915389D01*
X92730000Y-81156886D01*
X92730000Y-81403114D01*
X92778037Y-81644611D01*
X92872265Y-81872097D01*
X93009062Y-82076828D01*
X93104825Y-82172591D01*
X93057684Y-82177234D01*
X92963434Y-82205824D01*
X92876572Y-82252253D01*
X92800437Y-82314735D01*
X92790528Y-82326809D01*
X92811843Y-82275351D01*
X92842586Y-82120793D01*
X92842586Y-81963207D01*
X92811843Y-81808649D01*
X92751537Y-81663058D01*
X92663987Y-81532030D01*
X92552556Y-81420599D01*
X92542586Y-81413937D01*
X92542586Y-80854245D01*
X92545005Y-80829685D01*
X92535351Y-80731668D01*
X92533550Y-80725732D01*
X92506761Y-80637418D01*
X92460332Y-80550556D01*
X92397850Y-80474421D01*
X92378773Y-80458765D01*
X89635997Y-77715990D01*
X89922937Y-77715990D01*
X89929599Y-77725960D01*
X90041030Y-77837391D01*
X90172058Y-77924941D01*
X90317649Y-77985247D01*
X90472207Y-78015990D01*
X90629793Y-78015990D01*
X90784351Y-77985247D01*
X90929942Y-77924941D01*
X91060970Y-77837391D01*
X91172401Y-77725960D01*
X91259951Y-77594932D01*
X91320257Y-77449341D01*
X91351000Y-77294783D01*
X91351000Y-77137197D01*
X91320257Y-76982639D01*
X91259951Y-76837048D01*
X91172401Y-76706020D01*
X91060970Y-76594589D01*
X90929942Y-76507039D01*
X90784351Y-76446733D01*
X90774488Y-76444771D01*
X92754199Y-76444771D01*
X92824795Y-76677500D01*
X92940148Y-76893694D01*
X93095461Y-77083230D01*
X93284767Y-77238824D01*
X93500790Y-77354497D01*
X93735229Y-77425803D01*
X93930000Y-77349002D01*
X93930000Y-76250000D01*
X94030000Y-76250000D01*
X94030000Y-77349002D01*
X94224771Y-77425803D01*
X94459210Y-77354497D01*
X94675233Y-77238824D01*
X94864539Y-77083230D01*
X95019852Y-76893694D01*
X95135205Y-76677500D01*
X95205801Y-76444771D01*
X95128913Y-76250000D01*
X94030000Y-76250000D01*
X93930000Y-76250000D01*
X92831087Y-76250000D01*
X92754199Y-76444771D01*
X90774488Y-76444771D01*
X90629793Y-76415990D01*
X90472207Y-76415990D01*
X90317649Y-76446733D01*
X90172058Y-76507039D01*
X90041030Y-76594589D01*
X89929599Y-76706020D01*
X89922937Y-76715990D01*
X89799794Y-76715990D01*
X89039033Y-75955229D01*
X92754199Y-75955229D01*
X92831087Y-76150000D01*
X93930000Y-76150000D01*
X93930000Y-75050998D01*
X94030000Y-75050998D01*
X94030000Y-76150000D01*
X95128913Y-76150000D01*
X95205801Y-75955229D01*
X95135205Y-75722500D01*
X95019852Y-75506306D01*
X94864539Y-75316770D01*
X94675233Y-75161176D01*
X94459210Y-75045503D01*
X94224771Y-74974197D01*
X94030000Y-75050998D01*
X93930000Y-75050998D01*
X93735229Y-74974197D01*
X93500790Y-75045503D01*
X93284767Y-75161176D01*
X93095461Y-75316770D01*
X92940148Y-75506306D01*
X92824795Y-75722500D01*
X92754199Y-75955229D01*
X89039033Y-75955229D01*
X88815937Y-75732134D01*
X88918701Y-75663469D01*
X89030132Y-75552038D01*
X89117682Y-75421010D01*
X89177988Y-75275419D01*
X89208731Y-75120861D01*
X89208731Y-74963275D01*
X89177988Y-74808717D01*
X89117682Y-74663126D01*
X89030132Y-74532098D01*
X89008034Y-74510000D01*
X92728065Y-74510000D01*
X92735788Y-74588414D01*
X92758660Y-74663814D01*
X92795803Y-74733303D01*
X92845789Y-74794211D01*
X92906697Y-74844197D01*
X92976186Y-74881340D01*
X93051586Y-74904212D01*
X93130000Y-74911935D01*
X93830000Y-74910000D01*
X93930000Y-74810000D01*
X93930000Y-73710000D01*
X94030000Y-73710000D01*
X94030000Y-74810000D01*
X94130000Y-74910000D01*
X94830000Y-74911935D01*
X94908414Y-74904212D01*
X94983814Y-74881340D01*
X95053303Y-74844197D01*
X95114211Y-74794211D01*
X95164197Y-74733303D01*
X95201340Y-74663814D01*
X95224212Y-74588414D01*
X95231935Y-74510000D01*
X95230000Y-73810000D01*
X95130000Y-73710000D01*
X94030000Y-73710000D01*
X93930000Y-73710000D01*
X92830000Y-73710000D01*
X92730000Y-73810000D01*
X92728065Y-74510000D01*
X89008034Y-74510000D01*
X88918701Y-74420667D01*
X88787673Y-74333117D01*
X88642082Y-74272811D01*
X88487524Y-74242068D01*
X88457259Y-74242068D01*
X87025191Y-72810000D01*
X92728065Y-72810000D01*
X92730000Y-73510000D01*
X92830000Y-73610000D01*
X93930000Y-73610000D01*
X93930000Y-72510000D01*
X94030000Y-72510000D01*
X94030000Y-73610000D01*
X95130000Y-73610000D01*
X95230000Y-73510000D01*
X95231935Y-72810000D01*
X95224212Y-72731586D01*
X95201340Y-72656186D01*
X95164197Y-72586697D01*
X95114211Y-72525789D01*
X95053303Y-72475803D01*
X94983814Y-72438660D01*
X94908414Y-72415788D01*
X94830000Y-72408065D01*
X94130000Y-72410000D01*
X94030000Y-72510000D01*
X93930000Y-72510000D01*
X93830000Y-72410000D01*
X93130000Y-72408065D01*
X93051586Y-72415788D01*
X92976186Y-72438660D01*
X92906697Y-72475803D01*
X92845789Y-72525789D01*
X92795803Y-72586697D01*
X92758660Y-72656186D01*
X92735788Y-72731586D01*
X92728065Y-72810000D01*
X87025191Y-72810000D01*
X86579000Y-72363810D01*
X86579000Y-71360505D01*
X86581903Y-71331031D01*
X86570318Y-71213410D01*
X86559412Y-71177458D01*
X86536010Y-71100311D01*
X86480296Y-70996077D01*
X86405317Y-70904715D01*
X86382418Y-70885923D01*
X86279000Y-70782505D01*
X86279000Y-70752239D01*
X86248257Y-70597681D01*
X86187951Y-70452090D01*
X86100401Y-70321062D01*
X85988970Y-70209631D01*
X85857942Y-70122081D01*
X85712351Y-70061775D01*
X85557793Y-70031032D01*
X85400207Y-70031032D01*
X85245649Y-70061775D01*
X85100058Y-70122081D01*
X84969030Y-70209631D01*
X84958465Y-70220196D01*
X84962990Y-70174252D01*
X84965409Y-70149692D01*
X84962990Y-70125132D01*
X84962990Y-69282165D01*
X85049046Y-69317810D01*
X85124445Y-69340682D01*
X85220578Y-69359804D01*
X85298991Y-69367527D01*
X85323551Y-69367527D01*
X85348000Y-69369935D01*
X85848000Y-69369935D01*
X85872449Y-69367527D01*
X85897009Y-69367527D01*
X85975422Y-69359804D01*
X86071555Y-69340682D01*
X86146954Y-69317810D01*
X86237510Y-69280301D01*
X86307001Y-69243158D01*
X86388500Y-69188702D01*
X86449408Y-69138716D01*
X86518716Y-69069408D01*
X86568702Y-69008500D01*
X86605786Y-68953000D01*
X87128937Y-68953000D01*
X87135599Y-68962970D01*
X87247030Y-69074401D01*
X87378058Y-69161951D01*
X87523649Y-69222257D01*
X87678207Y-69253000D01*
X87835793Y-69253000D01*
X87990351Y-69222257D01*
X88135942Y-69161951D01*
X88266970Y-69074401D01*
X88378401Y-68962970D01*
X88465951Y-68831942D01*
X88526257Y-68686351D01*
X88557000Y-68531793D01*
X88557000Y-68374207D01*
X88526257Y-68219649D01*
X88465951Y-68074058D01*
X88378401Y-67943030D01*
X88266970Y-67831599D01*
X88135942Y-67744049D01*
X87990351Y-67683743D01*
X87835793Y-67653000D01*
X87678207Y-67653000D01*
X87523649Y-67683743D01*
X87378058Y-67744049D01*
X87247030Y-67831599D01*
X87135599Y-67943030D01*
X87128937Y-67953000D01*
X86748458Y-67953000D01*
X86742212Y-67889586D01*
X86720497Y-67818000D01*
X86742212Y-67746414D01*
X86749935Y-67668000D01*
X86749935Y-67168000D01*
X86747527Y-67143551D01*
X86747527Y-67118991D01*
X86739804Y-67040578D01*
X86720682Y-66944445D01*
X86697810Y-66869046D01*
X86674745Y-66813361D01*
X87198157Y-66289950D01*
X87216901Y-66384182D01*
X87269668Y-66511574D01*
X87346274Y-66626224D01*
X87443776Y-66723726D01*
X87558426Y-66800332D01*
X87685818Y-66853099D01*
X87821056Y-66880000D01*
X87958944Y-66880000D01*
X88094182Y-66853099D01*
X88221574Y-66800332D01*
X88336224Y-66723726D01*
X88433726Y-66626224D01*
X88475001Y-66564452D01*
X88475000Y-67271748D01*
X88487300Y-67396628D01*
X88535903Y-67556854D01*
X88614832Y-67704518D01*
X88721052Y-67833948D01*
X88850481Y-67940168D01*
X88998145Y-68019097D01*
X89158371Y-68067700D01*
X89325000Y-68084112D01*
X89491628Y-68067700D01*
X89651854Y-68019097D01*
X89799518Y-67940168D01*
X89928948Y-67833948D01*
X90035168Y-67704519D01*
X90114097Y-67556855D01*
X90162700Y-67396629D01*
X90175000Y-67271749D01*
X90175000Y-66088251D01*
X90162700Y-65963371D01*
X90114097Y-65803145D01*
X90035168Y-65655481D01*
X89928948Y-65526052D01*
X89799519Y-65419832D01*
X89651855Y-65340903D01*
X89491629Y-65292300D01*
X89325000Y-65275888D01*
X89158372Y-65292300D01*
X88998146Y-65340903D01*
X88850482Y-65419832D01*
X88721053Y-65526052D01*
X88614833Y-65655481D01*
X88535904Y-65803145D01*
X88517165Y-65864922D01*
X88510332Y-65848426D01*
X88433726Y-65733776D01*
X88336224Y-65636274D01*
X88221574Y-65559668D01*
X88094182Y-65506901D01*
X87958944Y-65480000D01*
X87821056Y-65480000D01*
X87685818Y-65506901D01*
X87578392Y-65551398D01*
X87578392Y-65452283D01*
X87588362Y-65445621D01*
X87699793Y-65334190D01*
X87787343Y-65203162D01*
X87847649Y-65057571D01*
X87878392Y-64903013D01*
X87878392Y-64745427D01*
X87847649Y-64590869D01*
X87787343Y-64445278D01*
X87699793Y-64314250D01*
X87588362Y-64202819D01*
X87457334Y-64115269D01*
X87311743Y-64054963D01*
X87157185Y-64024220D01*
X86999599Y-64024220D01*
X86845041Y-64054963D01*
X86699450Y-64115269D01*
X86603492Y-64179386D01*
X86222929Y-63798823D01*
X86207264Y-63779736D01*
X86131129Y-63717254D01*
X86044267Y-63670825D01*
X85950017Y-63642235D01*
X85876560Y-63635000D01*
X85852000Y-63632581D01*
X85827440Y-63635000D01*
X84479560Y-63635000D01*
X84455000Y-63632581D01*
X84430440Y-63635000D01*
X84356983Y-63642235D01*
X84262733Y-63670825D01*
X84175871Y-63717254D01*
X84099736Y-63779736D01*
X84084080Y-63798813D01*
X83783554Y-64099339D01*
X83771793Y-64097000D01*
X83614207Y-64097000D01*
X83459649Y-64127743D01*
X83314058Y-64188049D01*
X83183030Y-64275599D01*
X83071599Y-64387030D01*
X82984049Y-64518058D01*
X82923743Y-64663649D01*
X82893000Y-64818207D01*
X82893000Y-64975793D01*
X82923743Y-65130351D01*
X82984049Y-65275942D01*
X83071599Y-65406970D01*
X83183030Y-65518401D01*
X83314058Y-65605951D01*
X83459649Y-65666257D01*
X83614207Y-65697000D01*
X83636109Y-65697000D01*
X83636109Y-65799862D01*
X83639384Y-65816326D01*
X83618364Y-65841939D01*
X83571935Y-65928802D01*
X83569106Y-65938129D01*
X83543345Y-66023051D01*
X83533691Y-66121068D01*
X83536110Y-66145628D01*
X83536110Y-67611450D01*
X83479954Y-67588190D01*
X83404555Y-67565318D01*
X83308422Y-67546196D01*
X83230009Y-67538473D01*
X83205449Y-67538473D01*
X83181000Y-67536065D01*
X82681000Y-67536065D01*
X82656551Y-67538473D01*
X82631991Y-67538473D01*
X82553578Y-67546196D01*
X82457445Y-67565318D01*
X82382046Y-67588190D01*
X82291490Y-67625699D01*
X82221999Y-67662842D01*
X82140500Y-67717298D01*
X82079592Y-67767284D01*
X82010284Y-67836592D01*
X81960298Y-67897500D01*
X81905842Y-67978999D01*
X81868699Y-68048490D01*
X81831190Y-68139046D01*
X81808318Y-68214445D01*
X81789196Y-68310578D01*
X81781473Y-68388991D01*
X81781473Y-68413551D01*
X81779065Y-68438000D01*
X81779065Y-68938000D01*
X81786788Y-69016414D01*
X81808503Y-69088000D01*
X81786788Y-69159586D01*
X81779065Y-69238000D01*
X81779065Y-69738000D01*
X81781473Y-69762449D01*
X81781473Y-69787009D01*
X81789196Y-69865422D01*
X81808318Y-69961555D01*
X81831190Y-70036954D01*
X81854255Y-70092639D01*
X81791790Y-70155105D01*
X81772702Y-70170770D01*
X81710220Y-70246905D01*
X81663791Y-70333768D01*
X81647969Y-70385927D01*
X81635201Y-70428017D01*
X81625547Y-70526034D01*
X81627966Y-70550594D01*
X81627967Y-73037100D01*
X81625547Y-73061670D01*
X81635201Y-73159687D01*
X81653659Y-73220532D01*
X81663792Y-73253937D01*
X81710221Y-73340799D01*
X81772703Y-73416934D01*
X81791785Y-73432594D01*
X83728588Y-75369398D01*
X83728589Y-76711018D01*
X83726169Y-76735588D01*
X83735823Y-76833605D01*
X83761529Y-76918345D01*
X83764414Y-76927855D01*
X83810843Y-77014717D01*
X83873325Y-77090852D01*
X83892407Y-77106512D01*
X84759987Y-77974094D01*
X84759988Y-80648905D01*
X83545822Y-81863073D01*
X83526734Y-81878738D01*
X83464252Y-81954873D01*
X83417823Y-82041736D01*
X83408643Y-82071999D01*
X83389233Y-82135985D01*
X83379579Y-82234002D01*
X83381998Y-82258562D01*
X83381999Y-87061749D01*
X83379579Y-87086319D01*
X83389233Y-87184336D01*
X83410542Y-87254581D01*
X83417824Y-87278586D01*
X83464253Y-87365448D01*
X83526735Y-87441583D01*
X83545817Y-87457243D01*
X83944008Y-87855436D01*
X83941669Y-87867197D01*
X83941669Y-88024783D01*
X83965780Y-88146000D01*
X80979107Y-88146000D01*
X80680661Y-87847555D01*
X80683000Y-87835793D01*
X80683000Y-87678207D01*
X80652257Y-87523649D01*
X80591951Y-87378058D01*
X80504401Y-87247030D01*
X80392970Y-87135599D01*
X80261942Y-87048049D01*
X80116351Y-86987743D01*
X79961793Y-86957000D01*
X79804207Y-86957000D01*
X79649649Y-86987743D01*
X79504058Y-87048049D01*
X79373030Y-87135599D01*
X79261599Y-87247030D01*
X79174049Y-87378058D01*
X79113743Y-87523649D01*
X79083000Y-87678207D01*
X79083000Y-87835793D01*
X79113743Y-87990351D01*
X79174049Y-88135942D01*
X79261599Y-88266970D01*
X79373030Y-88378401D01*
X79504058Y-88465951D01*
X79649649Y-88526257D01*
X79804207Y-88557000D01*
X79961793Y-88557000D01*
X79973555Y-88554661D01*
X80401080Y-88982187D01*
X80416736Y-89001264D01*
X80492871Y-89063746D01*
X80579733Y-89110175D01*
X80673983Y-89138765D01*
X80772000Y-89148419D01*
X80796560Y-89146000D01*
X85573440Y-89146000D01*
X85598000Y-89148419D01*
X85622560Y-89146000D01*
X85696017Y-89138765D01*
X85790267Y-89110175D01*
X85877129Y-89063746D01*
X85953264Y-89001264D01*
X85968929Y-88982176D01*
X85989402Y-88961703D01*
X85999318Y-89011555D01*
X86022190Y-89086954D01*
X86059699Y-89177510D01*
X86096842Y-89247001D01*
X86151298Y-89328500D01*
X86201284Y-89389408D01*
X86270592Y-89458716D01*
X86331500Y-89508702D01*
X86412999Y-89563158D01*
X86482490Y-89600301D01*
X86573046Y-89637810D01*
X86622001Y-89652660D01*
X86622000Y-90052340D01*
X86573046Y-90067190D01*
X86482490Y-90104699D01*
X86412999Y-90141842D01*
X86331500Y-90196298D01*
X86270592Y-90246284D01*
X86201284Y-90315592D01*
X86151298Y-90376500D01*
X86114214Y-90432000D01*
X85170107Y-90432000D01*
X84998661Y-90260554D01*
X85001000Y-90248793D01*
X85001000Y-90091207D01*
X84970257Y-89936649D01*
X84909951Y-89791058D01*
X84822401Y-89660030D01*
X84710970Y-89548599D01*
X84579942Y-89461049D01*
X84434351Y-89400743D01*
X84279793Y-89370000D01*
X84122207Y-89370000D01*
X83967649Y-89400743D01*
X83822058Y-89461049D01*
X83691030Y-89548599D01*
X83579599Y-89660030D01*
X83492049Y-89791058D01*
X83431743Y-89936649D01*
X83401000Y-90091207D01*
X83401000Y-90248793D01*
X83431743Y-90403351D01*
X83492049Y-90548942D01*
X83579599Y-90679970D01*
X83691030Y-90791401D01*
X83822058Y-90878951D01*
X83967649Y-90939257D01*
X84122207Y-90970000D01*
X84279793Y-90970000D01*
X84291554Y-90967661D01*
X84592080Y-91268187D01*
X84607736Y-91287264D01*
X84683871Y-91349746D01*
X84770733Y-91396175D01*
X84864983Y-91424765D01*
X84963000Y-91434419D01*
X84987560Y-91432000D01*
X85971542Y-91432000D01*
X85977788Y-91495414D01*
X85999503Y-91567000D01*
X85977788Y-91638586D01*
X85970065Y-91717000D01*
X85970065Y-92217000D01*
X85972473Y-92241449D01*
X85972473Y-92266009D01*
X85980196Y-92344422D01*
X85999318Y-92440555D01*
X86022190Y-92515954D01*
X86059699Y-92606510D01*
X86096842Y-92676001D01*
X86151298Y-92757500D01*
X86201284Y-92818408D01*
X86270592Y-92887716D01*
X86331500Y-92937702D01*
X86412999Y-92992158D01*
X86482490Y-93029301D01*
X86573046Y-93066810D01*
X86648445Y-93089682D01*
X86744578Y-93108804D01*
X86822991Y-93116527D01*
X86847551Y-93116527D01*
X86872000Y-93118935D01*
X87372000Y-93118935D01*
X87396449Y-93116527D01*
X87421009Y-93116527D01*
X87499422Y-93108804D01*
X87595555Y-93089682D01*
X87670954Y-93066810D01*
X87761510Y-93029301D01*
X87831001Y-92992158D01*
X87912500Y-92937702D01*
X87973408Y-92887716D01*
X88042716Y-92818408D01*
X88092702Y-92757500D01*
X88129786Y-92702000D01*
X88303940Y-92702000D01*
X88328500Y-92704419D01*
X88353060Y-92702000D01*
X88426517Y-92694765D01*
X88520767Y-92666175D01*
X88607629Y-92619746D01*
X88683764Y-92557264D01*
X88699429Y-92538176D01*
X89910398Y-91327208D01*
X89994609Y-91453239D01*
X90106040Y-91564670D01*
X90237068Y-91652220D01*
X90382659Y-91712526D01*
X90537217Y-91743269D01*
X90694803Y-91743269D01*
X90706565Y-91740929D01*
X90741815Y-91776180D01*
X90757477Y-91795264D01*
X90833612Y-91857746D01*
X90920474Y-91904175D01*
X91014724Y-91932765D01*
X91088181Y-91940000D01*
X91112741Y-91942419D01*
X91137301Y-91940000D01*
X92834117Y-91940000D01*
X92872265Y-92032097D01*
X93009062Y-92236828D01*
X93183172Y-92410938D01*
X93387903Y-92547735D01*
X93615389Y-92641963D01*
X93856886Y-92690000D01*
X94103114Y-92690000D01*
X94344611Y-92641963D01*
X94572097Y-92547735D01*
X94776828Y-92410938D01*
X94950938Y-92236828D01*
X95087735Y-92032097D01*
X95181963Y-91804611D01*
X95230000Y-91563114D01*
X95230000Y-91316886D01*
X95181963Y-91075389D01*
X95087735Y-90847903D01*
X94950938Y-90643172D01*
X94776828Y-90469062D01*
X94572097Y-90332265D01*
X94344611Y-90238037D01*
X94103114Y-90190000D01*
X93856886Y-90190000D01*
X93615389Y-90238037D01*
X93387903Y-90332265D01*
X93183172Y-90469062D01*
X93009062Y-90643172D01*
X92872265Y-90847903D01*
X92834117Y-90940000D01*
X91416010Y-90940000D01*
X91416010Y-90864476D01*
X91385267Y-90709918D01*
X91324961Y-90564327D01*
X91237411Y-90433299D01*
X91125980Y-90321868D01*
X90999949Y-90237657D01*
X91837606Y-89400000D01*
X92834117Y-89400000D01*
X92872265Y-89492097D01*
X93009062Y-89696828D01*
X93183172Y-89870938D01*
X93387903Y-90007735D01*
X93615389Y-90101963D01*
X93856886Y-90150000D01*
X94103114Y-90150000D01*
X94344611Y-90101963D01*
X94572097Y-90007735D01*
X94776828Y-89870938D01*
X94950938Y-89696828D01*
X95087735Y-89492097D01*
X95181963Y-89264611D01*
X95230000Y-89023114D01*
X95230000Y-88776886D01*
X95181963Y-88535389D01*
X95143815Y-88443291D01*
X95200918Y-88386188D01*
X95200922Y-88386183D01*
X95466182Y-88120924D01*
X95485265Y-88105263D01*
X95525001Y-88056845D01*
X95525001Y-107096758D01*
X95493722Y-107415765D01*
X95407826Y-107700265D01*
X95268307Y-107962661D01*
X95080479Y-108192962D01*
X94851495Y-108382394D01*
X94590079Y-108523741D01*
X94306188Y-108611620D01*
X93988602Y-108645000D01*
X76023232Y-108645000D01*
X75704235Y-108613722D01*
X75419735Y-108527826D01*
X75157339Y-108388307D01*
X74927038Y-108200479D01*
X74737606Y-107971495D01*
X74596259Y-107710079D01*
X74508380Y-107426188D01*
X74487550Y-107228000D01*
X79693000Y-107228000D01*
X79693000Y-107528000D01*
X79721008Y-107712375D01*
X79784448Y-107887743D01*
X79880882Y-108047365D01*
X80006603Y-108185107D01*
X80156781Y-108295675D01*
X80325644Y-108374820D01*
X80445209Y-108407181D01*
X80593000Y-108326528D01*
X80593000Y-107228000D01*
X80693000Y-107228000D01*
X80693000Y-108326528D01*
X80840791Y-108407181D01*
X80960356Y-108374820D01*
X81129219Y-108295675D01*
X81279397Y-108185107D01*
X81405118Y-108047365D01*
X81501552Y-107887743D01*
X81564992Y-107712375D01*
X81593000Y-107528000D01*
X81593000Y-107228000D01*
X88333000Y-107228000D01*
X88333000Y-107528000D01*
X88361008Y-107712375D01*
X88424448Y-107887743D01*
X88520882Y-108047365D01*
X88646603Y-108185107D01*
X88796781Y-108295675D01*
X88965644Y-108374820D01*
X89085209Y-108407181D01*
X89233000Y-108326528D01*
X89233000Y-107228000D01*
X89333000Y-107228000D01*
X89333000Y-108326528D01*
X89480791Y-108407181D01*
X89600356Y-108374820D01*
X89769219Y-108295675D01*
X89919397Y-108185107D01*
X90045118Y-108047365D01*
X90141552Y-107887743D01*
X90204992Y-107712375D01*
X90233000Y-107528000D01*
X90233000Y-107228000D01*
X89333000Y-107228000D01*
X89233000Y-107228000D01*
X88333000Y-107228000D01*
X81593000Y-107228000D01*
X80693000Y-107228000D01*
X80593000Y-107228000D01*
X79693000Y-107228000D01*
X74487550Y-107228000D01*
X74475000Y-107108602D01*
X74475000Y-106828000D01*
X79693000Y-106828000D01*
X79693000Y-107128000D01*
X80593000Y-107128000D01*
X80593000Y-106029472D01*
X80693000Y-106029472D01*
X80693000Y-107128000D01*
X81593000Y-107128000D01*
X81593000Y-106828000D01*
X88333000Y-106828000D01*
X88333000Y-107128000D01*
X89233000Y-107128000D01*
X89233000Y-106029472D01*
X89333000Y-106029472D01*
X89333000Y-107128000D01*
X90233000Y-107128000D01*
X90233000Y-106828000D01*
X90204992Y-106643625D01*
X90141552Y-106468257D01*
X90045118Y-106308635D01*
X89919397Y-106170893D01*
X89769219Y-106060325D01*
X89600356Y-105981180D01*
X89480791Y-105948819D01*
X89333000Y-106029472D01*
X89233000Y-106029472D01*
X89085209Y-105948819D01*
X88965644Y-105981180D01*
X88796781Y-106060325D01*
X88646603Y-106170893D01*
X88520882Y-106308635D01*
X88424448Y-106468257D01*
X88361008Y-106643625D01*
X88333000Y-106828000D01*
X81593000Y-106828000D01*
X81564992Y-106643625D01*
X81501552Y-106468257D01*
X81405118Y-106308635D01*
X81279397Y-106170893D01*
X81129219Y-106060325D01*
X80960356Y-105981180D01*
X80840791Y-105948819D01*
X80693000Y-106029472D01*
X80593000Y-106029472D01*
X80445209Y-105948819D01*
X80325644Y-105981180D01*
X80156781Y-106060325D01*
X80006603Y-106170893D01*
X79880882Y-106308635D01*
X79784448Y-106468257D01*
X79721008Y-106643625D01*
X79693000Y-106828000D01*
X74475000Y-106828000D01*
X74475000Y-103031336D01*
X79693000Y-103031336D01*
X79693000Y-103724665D01*
X79706746Y-103864232D01*
X79761069Y-104043308D01*
X79849283Y-104208345D01*
X79968000Y-104353001D01*
X80112656Y-104471718D01*
X80277693Y-104559932D01*
X80456769Y-104614254D01*
X80643000Y-104632596D01*
X80829232Y-104614254D01*
X81008308Y-104559932D01*
X81173345Y-104471718D01*
X81318001Y-104353001D01*
X81436718Y-104208345D01*
X81524932Y-104043308D01*
X81579254Y-103864232D01*
X81593000Y-103724665D01*
X81593000Y-103031336D01*
X88333000Y-103031336D01*
X88333000Y-103724665D01*
X88346746Y-103864232D01*
X88401069Y-104043308D01*
X88489283Y-104208345D01*
X88608000Y-104353001D01*
X88752656Y-104471718D01*
X88917693Y-104559932D01*
X89096769Y-104614254D01*
X89283000Y-104632596D01*
X89469232Y-104614254D01*
X89648308Y-104559932D01*
X89813345Y-104471718D01*
X89958001Y-104353001D01*
X90076718Y-104208345D01*
X90164932Y-104043308D01*
X90219254Y-103864232D01*
X90233000Y-103724665D01*
X90233000Y-103031335D01*
X90219254Y-102891768D01*
X90164932Y-102712692D01*
X90076718Y-102547655D01*
X89958001Y-102402999D01*
X89813345Y-102284282D01*
X89648307Y-102196068D01*
X89469231Y-102141746D01*
X89283000Y-102123404D01*
X89096768Y-102141746D01*
X88917692Y-102196068D01*
X88752655Y-102284282D01*
X88607999Y-102402999D01*
X88489282Y-102547655D01*
X88401068Y-102712693D01*
X88346746Y-102891769D01*
X88333000Y-103031336D01*
X81593000Y-103031336D01*
X81593000Y-103031335D01*
X81579254Y-102891768D01*
X81524932Y-102712692D01*
X81436718Y-102547655D01*
X81318001Y-102402999D01*
X81173345Y-102284282D01*
X81008307Y-102196068D01*
X80829231Y-102141746D01*
X80643000Y-102123404D01*
X80456768Y-102141746D01*
X80277692Y-102196068D01*
X80112655Y-102284282D01*
X79967999Y-102402999D01*
X79849282Y-102547655D01*
X79761068Y-102712693D01*
X79706746Y-102891769D01*
X79693000Y-103031336D01*
X74475000Y-103031336D01*
X74475000Y-101369131D01*
X74551058Y-101419951D01*
X74696649Y-101480257D01*
X74851207Y-101511000D01*
X75008793Y-101511000D01*
X75163351Y-101480257D01*
X75308942Y-101419951D01*
X75439970Y-101332401D01*
X75551401Y-101220970D01*
X75638951Y-101089942D01*
X75699257Y-100944351D01*
X75730000Y-100789793D01*
X75730000Y-100632207D01*
X75699257Y-100477649D01*
X75638951Y-100332058D01*
X75551401Y-100201030D01*
X75439970Y-100089599D01*
X75430000Y-100082937D01*
X75430000Y-100048864D01*
X75607903Y-100167735D01*
X75835389Y-100261963D01*
X76076886Y-100310000D01*
X76323114Y-100310000D01*
X76564611Y-100261963D01*
X76792097Y-100167735D01*
X76996828Y-100030938D01*
X77170938Y-99856828D01*
X77307735Y-99652097D01*
X77401963Y-99424611D01*
X77450000Y-99183114D01*
X77450000Y-98936886D01*
X77401963Y-98695389D01*
X77307735Y-98467903D01*
X77170938Y-98263172D01*
X76996828Y-98089062D01*
X76792097Y-97952265D01*
X76564611Y-97858037D01*
X76323114Y-97810000D01*
X76076886Y-97810000D01*
X75835389Y-97858037D01*
X75607903Y-97952265D01*
X75430000Y-98071136D01*
X75430000Y-97508864D01*
X75607903Y-97627735D01*
X75835389Y-97721963D01*
X76076886Y-97770000D01*
X76323114Y-97770000D01*
X76564611Y-97721963D01*
X76792097Y-97627735D01*
X76996828Y-97490938D01*
X77170938Y-97316828D01*
X77307735Y-97112097D01*
X77401963Y-96884611D01*
X77450000Y-96643114D01*
X77450000Y-96396886D01*
X77401963Y-96155389D01*
X77307735Y-95927903D01*
X77170938Y-95723172D01*
X76996828Y-95549062D01*
X76792097Y-95412265D01*
X76564611Y-95318037D01*
X76323114Y-95270000D01*
X76076886Y-95270000D01*
X75835389Y-95318037D01*
X75607903Y-95412265D01*
X75430000Y-95531136D01*
X75430000Y-94968864D01*
X75607903Y-95087735D01*
X75835389Y-95181963D01*
X76076886Y-95230000D01*
X76323114Y-95230000D01*
X76564611Y-95181963D01*
X76792097Y-95087735D01*
X76996828Y-94950938D01*
X77170938Y-94776828D01*
X77224001Y-94697414D01*
X77224001Y-94971430D01*
X77221581Y-94996000D01*
X77231235Y-95094017D01*
X77257914Y-95181963D01*
X77259826Y-95188267D01*
X77306255Y-95275129D01*
X77368737Y-95351264D01*
X77387819Y-95366924D01*
X77942340Y-95921445D01*
X77940000Y-95933207D01*
X77940000Y-96090793D01*
X77970743Y-96245351D01*
X78031049Y-96390942D01*
X78118599Y-96521970D01*
X78230030Y-96633401D01*
X78361058Y-96720951D01*
X78506649Y-96781257D01*
X78661207Y-96812000D01*
X78818793Y-96812000D01*
X78973351Y-96781257D01*
X79118942Y-96720951D01*
X79249970Y-96633401D01*
X79361401Y-96521970D01*
X79448951Y-96390942D01*
X79509257Y-96245351D01*
X79540000Y-96090793D01*
X79540000Y-95933207D01*
X79509257Y-95778649D01*
X79448951Y-95633058D01*
X79361401Y-95502030D01*
X79249970Y-95390599D01*
X79118942Y-95303049D01*
X78973351Y-95242743D01*
X78818793Y-95212000D01*
X78661207Y-95212000D01*
X78649445Y-95214340D01*
X78224000Y-94788895D01*
X78224000Y-93496559D01*
X78226419Y-93472000D01*
X78216765Y-93373983D01*
X78203848Y-93331401D01*
X78188175Y-93279733D01*
X78141746Y-93192871D01*
X78079264Y-93116736D01*
X78060187Y-93101080D01*
X77759661Y-92800554D01*
X77762000Y-92788793D01*
X77762000Y-92631207D01*
X77731257Y-92476649D01*
X77670951Y-92331058D01*
X77583401Y-92200030D01*
X77471970Y-92088599D01*
X77340942Y-92001049D01*
X77323575Y-91993855D01*
X77401963Y-91804611D01*
X77450000Y-91563114D01*
X77450000Y-91316886D01*
X77401963Y-91075389D01*
X77307735Y-90847903D01*
X77170938Y-90643172D01*
X76996828Y-90469062D01*
X76792097Y-90332265D01*
X76564611Y-90238037D01*
X76323114Y-90190000D01*
X76076886Y-90190000D01*
X75835389Y-90238037D01*
X75607903Y-90332265D01*
X75430000Y-90451136D01*
X75430000Y-89888864D01*
X75607903Y-90007735D01*
X75835389Y-90101963D01*
X76076886Y-90150000D01*
X76323114Y-90150000D01*
X76564611Y-90101963D01*
X76792097Y-90007735D01*
X76996828Y-89870938D01*
X77170938Y-89696828D01*
X77307735Y-89492097D01*
X77401963Y-89264611D01*
X77439638Y-89075207D01*
X77559000Y-89075207D01*
X77559000Y-89232793D01*
X77589743Y-89387351D01*
X77650049Y-89532942D01*
X77737599Y-89663970D01*
X77849030Y-89775401D01*
X77980058Y-89862951D01*
X78125649Y-89923257D01*
X78280207Y-89954000D01*
X78437793Y-89954000D01*
X78449555Y-89951661D01*
X78748001Y-90250108D01*
X78748000Y-93447440D01*
X78745581Y-93472000D01*
X78748000Y-93496559D01*
X78755235Y-93570016D01*
X78783825Y-93664266D01*
X78830254Y-93751129D01*
X78892736Y-93827264D01*
X78911824Y-93842929D01*
X81472011Y-96403118D01*
X81420599Y-96454530D01*
X81333049Y-96585558D01*
X81272743Y-96731149D01*
X81242000Y-96885707D01*
X81242000Y-97043293D01*
X81272743Y-97197851D01*
X81333049Y-97343442D01*
X81420599Y-97474470D01*
X81532030Y-97585901D01*
X81663058Y-97673451D01*
X81808649Y-97733757D01*
X81963207Y-97764500D01*
X82120793Y-97764500D01*
X82275351Y-97733757D01*
X82420942Y-97673451D01*
X82551970Y-97585901D01*
X82663401Y-97474470D01*
X82750951Y-97343442D01*
X82811257Y-97197851D01*
X82842000Y-97043293D01*
X82842000Y-96885707D01*
X82811257Y-96731149D01*
X82750951Y-96585558D01*
X82663401Y-96454530D01*
X82551970Y-96343099D01*
X82542000Y-96336437D01*
X82542000Y-96290560D01*
X82544419Y-96266000D01*
X82534765Y-96167983D01*
X82517181Y-96110017D01*
X82506175Y-96073733D01*
X82459746Y-95986871D01*
X82397264Y-95910736D01*
X82378187Y-95895080D01*
X79748000Y-93264895D01*
X79748000Y-90980217D01*
X80734000Y-90980217D01*
X80734000Y-91137803D01*
X80764743Y-91292361D01*
X80825049Y-91437952D01*
X80912599Y-91568980D01*
X81024030Y-91680411D01*
X81155058Y-91767961D01*
X81300649Y-91828267D01*
X81352469Y-91838575D01*
X83320001Y-93806107D01*
X83320000Y-100630893D01*
X83275554Y-100675339D01*
X83263793Y-100673000D01*
X83106207Y-100673000D01*
X82951649Y-100703743D01*
X82806058Y-100764049D01*
X82675030Y-100851599D01*
X82563599Y-100963030D01*
X82476049Y-101094058D01*
X82415743Y-101239649D01*
X82385000Y-101394207D01*
X82385000Y-101551793D01*
X82415743Y-101706351D01*
X82476049Y-101851942D01*
X82563599Y-101982970D01*
X82675030Y-102094401D01*
X82806058Y-102181951D01*
X82951649Y-102242257D01*
X83106207Y-102273000D01*
X83263793Y-102273000D01*
X83418351Y-102242257D01*
X83563942Y-102181951D01*
X83694970Y-102094401D01*
X83806401Y-101982970D01*
X83893951Y-101851942D01*
X83954257Y-101706351D01*
X83985000Y-101551793D01*
X83985000Y-101394207D01*
X83982661Y-101382446D01*
X84156186Y-101208920D01*
X84175264Y-101193264D01*
X84237746Y-101117129D01*
X84284175Y-101030267D01*
X84312765Y-100936017D01*
X84320000Y-100862560D01*
X84320000Y-100862559D01*
X84322419Y-100838000D01*
X84320000Y-100813440D01*
X84320000Y-93623557D01*
X84322419Y-93598999D01*
X84318676Y-93561000D01*
X84312765Y-93500983D01*
X84284175Y-93406733D01*
X84237746Y-93319871D01*
X84175264Y-93243736D01*
X84156181Y-93228075D01*
X82781920Y-91853815D01*
X82873495Y-91835600D01*
X85987001Y-94949108D01*
X85987000Y-100802986D01*
X85977030Y-100809648D01*
X85865599Y-100921079D01*
X85778049Y-101052107D01*
X85717743Y-101197698D01*
X85687000Y-101352256D01*
X85687000Y-101509842D01*
X85717743Y-101664400D01*
X85778049Y-101809991D01*
X85865599Y-101941019D01*
X85977030Y-102052450D01*
X86108058Y-102140000D01*
X86253649Y-102200306D01*
X86408207Y-102231049D01*
X86565793Y-102231049D01*
X86720351Y-102200306D01*
X86865942Y-102140000D01*
X86996970Y-102052450D01*
X87108401Y-101941019D01*
X87195951Y-101809991D01*
X87256257Y-101664400D01*
X87287000Y-101509842D01*
X87287000Y-101352256D01*
X87256257Y-101197698D01*
X87195951Y-101052107D01*
X87108401Y-100921079D01*
X86996970Y-100809648D01*
X86987000Y-100802986D01*
X86987000Y-98936886D01*
X92730000Y-98936886D01*
X92730000Y-99183114D01*
X92778037Y-99424611D01*
X92872265Y-99652097D01*
X93009062Y-99856828D01*
X93183172Y-100030938D01*
X93387903Y-100167735D01*
X93615389Y-100261963D01*
X93856886Y-100310000D01*
X94103114Y-100310000D01*
X94344611Y-100261963D01*
X94572097Y-100167735D01*
X94776828Y-100030938D01*
X94950938Y-99856828D01*
X95087735Y-99652097D01*
X95181963Y-99424611D01*
X95230000Y-99183114D01*
X95230000Y-98936886D01*
X95181963Y-98695389D01*
X95087735Y-98467903D01*
X94950938Y-98263172D01*
X94776828Y-98089062D01*
X94572097Y-97952265D01*
X94344611Y-97858037D01*
X94103114Y-97810000D01*
X93856886Y-97810000D01*
X93615389Y-97858037D01*
X93387903Y-97952265D01*
X93183172Y-98089062D01*
X93009062Y-98263172D01*
X92872265Y-98467903D01*
X92778037Y-98695389D01*
X92730000Y-98936886D01*
X86987000Y-98936886D01*
X86987000Y-94766560D01*
X86989419Y-94742000D01*
X86979765Y-94643983D01*
X86974031Y-94625081D01*
X86951175Y-94549733D01*
X86904746Y-94462871D01*
X86842264Y-94386736D01*
X86823187Y-94371080D01*
X86734314Y-94282207D01*
X88354000Y-94282207D01*
X88354000Y-94439793D01*
X88384743Y-94594351D01*
X88445049Y-94739942D01*
X88532599Y-94870970D01*
X88644030Y-94982401D01*
X88654000Y-94989063D01*
X88654001Y-96272408D01*
X88572049Y-96395058D01*
X88511743Y-96540649D01*
X88481000Y-96695207D01*
X88481000Y-96852793D01*
X88511743Y-97007351D01*
X88572049Y-97152942D01*
X88659599Y-97283970D01*
X88771030Y-97395401D01*
X88902058Y-97482951D01*
X89047649Y-97543257D01*
X89202207Y-97574000D01*
X89359793Y-97574000D01*
X89514351Y-97543257D01*
X89659942Y-97482951D01*
X89790970Y-97395401D01*
X89902401Y-97283970D01*
X89989951Y-97152942D01*
X90050257Y-97007351D01*
X90081000Y-96852793D01*
X90081000Y-96695207D01*
X90050257Y-96540649D01*
X89990709Y-96396886D01*
X92730000Y-96396886D01*
X92730000Y-96643114D01*
X92778037Y-96884611D01*
X92872265Y-97112097D01*
X93009062Y-97316828D01*
X93183172Y-97490938D01*
X93387903Y-97627735D01*
X93615389Y-97721963D01*
X93856886Y-97770000D01*
X94103114Y-97770000D01*
X94344611Y-97721963D01*
X94572097Y-97627735D01*
X94776828Y-97490938D01*
X94950938Y-97316828D01*
X95087735Y-97112097D01*
X95181963Y-96884611D01*
X95230000Y-96643114D01*
X95230000Y-96396886D01*
X95181963Y-96155389D01*
X95087735Y-95927903D01*
X94950938Y-95723172D01*
X94776828Y-95549062D01*
X94572097Y-95412265D01*
X94344611Y-95318037D01*
X94103114Y-95270000D01*
X93856886Y-95270000D01*
X93615389Y-95318037D01*
X93387903Y-95412265D01*
X93183172Y-95549062D01*
X93009062Y-95723172D01*
X92872265Y-95927903D01*
X92778037Y-96155389D01*
X92730000Y-96396886D01*
X89990709Y-96396886D01*
X89989951Y-96395058D01*
X89902401Y-96264030D01*
X89790970Y-96152599D01*
X89659942Y-96065049D01*
X89654000Y-96062588D01*
X89654000Y-94989063D01*
X89663970Y-94982401D01*
X89775401Y-94870970D01*
X89862951Y-94739942D01*
X89923257Y-94594351D01*
X89954000Y-94439793D01*
X89954000Y-94282207D01*
X89923257Y-94127649D01*
X89862951Y-93982058D01*
X89779314Y-93856886D01*
X92730000Y-93856886D01*
X92730000Y-94103114D01*
X92778037Y-94344611D01*
X92872265Y-94572097D01*
X93009062Y-94776828D01*
X93183172Y-94950938D01*
X93387903Y-95087735D01*
X93615389Y-95181963D01*
X93856886Y-95230000D01*
X94103114Y-95230000D01*
X94344611Y-95181963D01*
X94572097Y-95087735D01*
X94776828Y-94950938D01*
X94950938Y-94776828D01*
X95087735Y-94572097D01*
X95181963Y-94344611D01*
X95230000Y-94103114D01*
X95230000Y-93856886D01*
X95181963Y-93615389D01*
X95087735Y-93387903D01*
X94950938Y-93183172D01*
X94776828Y-93009062D01*
X94572097Y-92872265D01*
X94344611Y-92778037D01*
X94103114Y-92730000D01*
X93856886Y-92730000D01*
X93615389Y-92778037D01*
X93387903Y-92872265D01*
X93183172Y-93009062D01*
X93009062Y-93183172D01*
X92872265Y-93387903D01*
X92778037Y-93615389D01*
X92730000Y-93856886D01*
X89779314Y-93856886D01*
X89775401Y-93851030D01*
X89663970Y-93739599D01*
X89532942Y-93652049D01*
X89387351Y-93591743D01*
X89232793Y-93561000D01*
X89075207Y-93561000D01*
X88920649Y-93591743D01*
X88775058Y-93652049D01*
X88644030Y-93739599D01*
X88532599Y-93851030D01*
X88445049Y-93982058D01*
X88384743Y-94127649D01*
X88354000Y-94282207D01*
X86734314Y-94282207D01*
X83477000Y-91024895D01*
X83477000Y-90980219D01*
X83446257Y-90825661D01*
X83385951Y-90680070D01*
X83298401Y-90549042D01*
X83186970Y-90437611D01*
X83055942Y-90350061D01*
X82910351Y-90289755D01*
X82755793Y-90259012D01*
X82598207Y-90259012D01*
X82443649Y-90289755D01*
X82298058Y-90350061D01*
X82167030Y-90437611D01*
X82105501Y-90499140D01*
X82043970Y-90437609D01*
X81912942Y-90350059D01*
X81767351Y-90289753D01*
X81612793Y-90259010D01*
X81455207Y-90259010D01*
X81300649Y-90289753D01*
X81155058Y-90350059D01*
X81024030Y-90437609D01*
X80912599Y-90549040D01*
X80825049Y-90680068D01*
X80764743Y-90825659D01*
X80734000Y-90980217D01*
X79748000Y-90980217D01*
X79748000Y-90067560D01*
X79750419Y-90043000D01*
X79740765Y-89944983D01*
X79738237Y-89936649D01*
X79712175Y-89850733D01*
X79665746Y-89763871D01*
X79603264Y-89687736D01*
X79584187Y-89672080D01*
X79156661Y-89244555D01*
X79159000Y-89232793D01*
X79159000Y-89075207D01*
X79128257Y-88920649D01*
X79067951Y-88775058D01*
X78980401Y-88644030D01*
X78868970Y-88532599D01*
X78737942Y-88445049D01*
X78592351Y-88384743D01*
X78437793Y-88354000D01*
X78280207Y-88354000D01*
X78125649Y-88384743D01*
X77980058Y-88445049D01*
X77849030Y-88532599D01*
X77737599Y-88644030D01*
X77650049Y-88775058D01*
X77589743Y-88920649D01*
X77559000Y-89075207D01*
X77439638Y-89075207D01*
X77450000Y-89023114D01*
X77450000Y-88776886D01*
X77401963Y-88535389D01*
X77307735Y-88307903D01*
X77170938Y-88103172D01*
X76996828Y-87929062D01*
X76792097Y-87792265D01*
X76564611Y-87698037D01*
X76323114Y-87650000D01*
X76076886Y-87650000D01*
X75835389Y-87698037D01*
X75607903Y-87792265D01*
X75430000Y-87911136D01*
X75430000Y-87348864D01*
X75607903Y-87467735D01*
X75835389Y-87561963D01*
X76076886Y-87610000D01*
X76323114Y-87610000D01*
X76564611Y-87561963D01*
X76792097Y-87467735D01*
X76996828Y-87330938D01*
X77170938Y-87156828D01*
X77307735Y-86952097D01*
X77401963Y-86724611D01*
X77450000Y-86483114D01*
X77450000Y-86236886D01*
X77401963Y-85995389D01*
X77311234Y-85776351D01*
X77345058Y-85798951D01*
X77490649Y-85859257D01*
X77645207Y-85890000D01*
X77802793Y-85890000D01*
X77957351Y-85859257D01*
X78102942Y-85798951D01*
X78233970Y-85711401D01*
X78345401Y-85599970D01*
X78432951Y-85468942D01*
X78493257Y-85323351D01*
X78524000Y-85168793D01*
X78524000Y-85011207D01*
X78493257Y-84856649D01*
X78432951Y-84711058D01*
X78345401Y-84580030D01*
X78233970Y-84468599D01*
X78224000Y-84461937D01*
X78224000Y-83138105D01*
X79819182Y-81542924D01*
X79838265Y-81527263D01*
X79900747Y-81451128D01*
X79947176Y-81364266D01*
X79961210Y-81318000D01*
X79961793Y-81318000D01*
X80116351Y-81287257D01*
X80261942Y-81226951D01*
X80392970Y-81139401D01*
X80504401Y-81027970D01*
X80591951Y-80896942D01*
X80652257Y-80751351D01*
X80683000Y-80596793D01*
X80683000Y-80439207D01*
X80652257Y-80284649D01*
X80591951Y-80139058D01*
X80504401Y-80008030D01*
X80392970Y-79896599D01*
X80261942Y-79809049D01*
X80116351Y-79748743D01*
X79961793Y-79718000D01*
X79804207Y-79718000D01*
X79649649Y-79748743D01*
X79504058Y-79809049D01*
X79373030Y-79896599D01*
X79261599Y-80008030D01*
X79174049Y-80139058D01*
X79113743Y-80284649D01*
X79083000Y-80439207D01*
X79083000Y-80596793D01*
X79086275Y-80613258D01*
X79065256Y-80638870D01*
X79018826Y-80725732D01*
X78994743Y-80805125D01*
X78990236Y-80819982D01*
X78980582Y-80917999D01*
X78983001Y-80942559D01*
X78983001Y-80964893D01*
X78477968Y-81469926D01*
X78477968Y-81146063D01*
X78487938Y-81139401D01*
X78599369Y-81027970D01*
X78686919Y-80896942D01*
X78747225Y-80751351D01*
X78777968Y-80596793D01*
X78777968Y-80439207D01*
X78747225Y-80284649D01*
X78686919Y-80139058D01*
X78599369Y-80008030D01*
X78487938Y-79896599D01*
X78478000Y-79889959D01*
X78478000Y-72510063D01*
X78487970Y-72503401D01*
X78599401Y-72391970D01*
X78686951Y-72260942D01*
X78747257Y-72115351D01*
X78778000Y-71960793D01*
X78778000Y-71803207D01*
X78747257Y-71648649D01*
X78686951Y-71503058D01*
X78599401Y-71372030D01*
X78487970Y-71260599D01*
X78356942Y-71173049D01*
X78211351Y-71112743D01*
X78056793Y-71082000D01*
X78052295Y-71082000D01*
X78109510Y-71058301D01*
X78179001Y-71021158D01*
X78260500Y-70966702D01*
X78321408Y-70916716D01*
X78390716Y-70847408D01*
X78440702Y-70786500D01*
X78495158Y-70705001D01*
X78532301Y-70635510D01*
X78569810Y-70544954D01*
X78591137Y-70474648D01*
X78633649Y-70492257D01*
X78788207Y-70523000D01*
X78945793Y-70523000D01*
X78957554Y-70520661D01*
X79019079Y-70582186D01*
X79034736Y-70601264D01*
X79110871Y-70663746D01*
X79197733Y-70710175D01*
X79266385Y-70731000D01*
X79291983Y-70738765D01*
X79390000Y-70748419D01*
X79394553Y-70747971D01*
X79420298Y-70786500D01*
X79470284Y-70847408D01*
X79539592Y-70916716D01*
X79600500Y-70966702D01*
X79681999Y-71021158D01*
X79751490Y-71058301D01*
X79842046Y-71095810D01*
X79917445Y-71118682D01*
X80013578Y-71137804D01*
X80091991Y-71145527D01*
X80116551Y-71145527D01*
X80141000Y-71147935D01*
X80641000Y-71147935D01*
X80665449Y-71145527D01*
X80690009Y-71145527D01*
X80768422Y-71137804D01*
X80864555Y-71118682D01*
X80939954Y-71095810D01*
X81030510Y-71058301D01*
X81100001Y-71021158D01*
X81181500Y-70966702D01*
X81242408Y-70916716D01*
X81311716Y-70847408D01*
X81361702Y-70786500D01*
X81416158Y-70705001D01*
X81453301Y-70635510D01*
X81490810Y-70544954D01*
X81513682Y-70469555D01*
X81532804Y-70373422D01*
X81540527Y-70295009D01*
X81540527Y-70270449D01*
X81542935Y-70246000D01*
X81542935Y-69746000D01*
X81535212Y-69667586D01*
X81513497Y-69596000D01*
X81535212Y-69524414D01*
X81542935Y-69446000D01*
X81542935Y-68946000D01*
X81540527Y-68921551D01*
X81540527Y-68896991D01*
X81532804Y-68818578D01*
X81513682Y-68722445D01*
X81490810Y-68647046D01*
X81453301Y-68556490D01*
X81416158Y-68486999D01*
X81361702Y-68405500D01*
X81311716Y-68344592D01*
X81242408Y-68275284D01*
X81181500Y-68225298D01*
X81100001Y-68170842D01*
X81030510Y-68133699D01*
X80939954Y-68096190D01*
X80864555Y-68073318D01*
X80838072Y-68068050D01*
X80841628Y-68067700D01*
X81001854Y-68019097D01*
X81149518Y-67940168D01*
X81278948Y-67833948D01*
X81385168Y-67704519D01*
X81464097Y-67556855D01*
X81512700Y-67396629D01*
X81525000Y-67271749D01*
X81525000Y-66564453D01*
X81566274Y-66626224D01*
X81663776Y-66723726D01*
X81778426Y-66800332D01*
X81905818Y-66853099D01*
X82041056Y-66880000D01*
X82178944Y-66880000D01*
X82314182Y-66853099D01*
X82441574Y-66800332D01*
X82556224Y-66723726D01*
X82653726Y-66626224D01*
X82730332Y-66511574D01*
X82783099Y-66384182D01*
X82810000Y-66248944D01*
X82810000Y-66111056D01*
X82783099Y-65975818D01*
X82730332Y-65848426D01*
X82653726Y-65733776D01*
X82556224Y-65636274D01*
X82441574Y-65559668D01*
X82314182Y-65506901D01*
X82178944Y-65480000D01*
X82041056Y-65480000D01*
X81905818Y-65506901D01*
X81778426Y-65559668D01*
X81663776Y-65636274D01*
X81566274Y-65733776D01*
X81489668Y-65848426D01*
X81482836Y-65864920D01*
X81464097Y-65803145D01*
X81385168Y-65655481D01*
X81278948Y-65526052D01*
X81149519Y-65419832D01*
X81001855Y-65340903D01*
X80841629Y-65292300D01*
X80675000Y-65275888D01*
X80508372Y-65292300D01*
X80348146Y-65340903D01*
X80200482Y-65419832D01*
X80071053Y-65526052D01*
X79964833Y-65655481D01*
X79885904Y-65803145D01*
X79837301Y-65963371D01*
X79825001Y-66088251D01*
X79825000Y-67271748D01*
X79837300Y-67396628D01*
X79885903Y-67556854D01*
X79964832Y-67704518D01*
X80071052Y-67833948D01*
X80200481Y-67940168D01*
X80348145Y-68019097D01*
X80430455Y-68044065D01*
X80141000Y-68044065D01*
X80116551Y-68046473D01*
X80091991Y-68046473D01*
X80013578Y-68054196D01*
X79917445Y-68073318D01*
X79860975Y-68090448D01*
X79540000Y-67769473D01*
X79540000Y-67739207D01*
X79509257Y-67584649D01*
X79448951Y-67439058D01*
X79361401Y-67308030D01*
X79249970Y-67196599D01*
X79118942Y-67109049D01*
X78973351Y-67048743D01*
X78818793Y-67018000D01*
X78661207Y-67018000D01*
X78506649Y-67048743D01*
X78361058Y-67109049D01*
X78230030Y-67196599D01*
X78118599Y-67308030D01*
X78031049Y-67439058D01*
X77970743Y-67584649D01*
X77940000Y-67739207D01*
X77940000Y-67896793D01*
X77970743Y-68051351D01*
X77985057Y-68085907D01*
X77943555Y-68073318D01*
X77847422Y-68054196D01*
X77769009Y-68046473D01*
X77744449Y-68046473D01*
X77720000Y-68044065D01*
X77220000Y-68044065D01*
X77195551Y-68046473D01*
X77170991Y-68046473D01*
X77092578Y-68054196D01*
X76996445Y-68073318D01*
X76921046Y-68096190D01*
X76830490Y-68133699D01*
X76760999Y-68170842D01*
X76679500Y-68225298D01*
X76618592Y-68275284D01*
X76549284Y-68344592D01*
X76499298Y-68405500D01*
X76444842Y-68486999D01*
X76407699Y-68556490D01*
X76370190Y-68647046D01*
X76347318Y-68722445D01*
X76328196Y-68818578D01*
X76320473Y-68896991D01*
X76320473Y-68921551D01*
X76318065Y-68946000D01*
X76318065Y-69446000D01*
X76325788Y-69524414D01*
X76347503Y-69596000D01*
X76325788Y-69667586D01*
X76318065Y-69746000D01*
X76318065Y-69804598D01*
X76301871Y-69813254D01*
X76225736Y-69875736D01*
X76210080Y-69894813D01*
X74593819Y-71511076D01*
X74574737Y-71526736D01*
X74512255Y-71602871D01*
X74499244Y-71627213D01*
X74475000Y-71672570D01*
X74475000Y-63023232D01*
X74506278Y-62704236D01*
X74552844Y-62550000D01*
X79825000Y-62550000D01*
X79825000Y-63100000D01*
X79851087Y-63264866D01*
X79908837Y-63421475D01*
X79996030Y-63563808D01*
X80109315Y-63686396D01*
X80244339Y-63784527D01*
X80395913Y-63854431D01*
X80492877Y-63880259D01*
X80625000Y-63798331D01*
X80625000Y-62550000D01*
X80725000Y-62550000D01*
X80725000Y-63798331D01*
X80857123Y-63880259D01*
X80954087Y-63854431D01*
X81105661Y-63784527D01*
X81240685Y-63686396D01*
X81353970Y-63563808D01*
X81441163Y-63421475D01*
X81498913Y-63264866D01*
X81525000Y-63100000D01*
X81525000Y-62550000D01*
X88475000Y-62550000D01*
X88475000Y-63100000D01*
X88501087Y-63264866D01*
X88558837Y-63421475D01*
X88646030Y-63563808D01*
X88759315Y-63686396D01*
X88894339Y-63784527D01*
X89045913Y-63854431D01*
X89142877Y-63880259D01*
X89275000Y-63798331D01*
X89275000Y-62550000D01*
X89375000Y-62550000D01*
X89375000Y-63798331D01*
X89507123Y-63880259D01*
X89604087Y-63854431D01*
X89755661Y-63784527D01*
X89890685Y-63686396D01*
X90003970Y-63563808D01*
X90091163Y-63421475D01*
X90148913Y-63264866D01*
X90175000Y-63100000D01*
X90175000Y-62550000D01*
X89375000Y-62550000D01*
X89275000Y-62550000D01*
X88475000Y-62550000D01*
X81525000Y-62550000D01*
X80725000Y-62550000D01*
X80625000Y-62550000D01*
X79825000Y-62550000D01*
X74552844Y-62550000D01*
X74592173Y-62419737D01*
X74731695Y-62157335D01*
X74919521Y-61927039D01*
X75148505Y-61737606D01*
X75409921Y-61596259D01*
X75693812Y-61508380D01*
X76011398Y-61475000D01*
X79972256Y-61475000D01*
X79908837Y-61578525D01*
G37*
G04 #@! TD.AperFunction*
D17*
X94630002Y-87542893D02*
X94493817Y-87679078D01*
X94493812Y-87679082D01*
X94436709Y-87736185D01*
X94344611Y-87698037D01*
X94103114Y-87650000D01*
X93856886Y-87650000D01*
X93615389Y-87698037D01*
X93387903Y-87792265D01*
X93183172Y-87929062D01*
X93009062Y-88103172D01*
X92872265Y-88307903D01*
X92834117Y-88400000D01*
X91655057Y-88400000D01*
X91630499Y-88397581D01*
X91605941Y-88400000D01*
X91605940Y-88400000D01*
X91532483Y-88407235D01*
X91438233Y-88435825D01*
X91351371Y-88482254D01*
X91275236Y-88544736D01*
X91259575Y-88563819D01*
X88247266Y-91576129D01*
X88244497Y-91567000D01*
X88266212Y-91495414D01*
X88273935Y-91417000D01*
X88273935Y-90917000D01*
X88271527Y-90892551D01*
X88271527Y-90867991D01*
X88263804Y-90789578D01*
X88244682Y-90693445D01*
X88221810Y-90618046D01*
X88184301Y-90527490D01*
X88147158Y-90457999D01*
X88092702Y-90376500D01*
X88042716Y-90315592D01*
X87973408Y-90246284D01*
X87912500Y-90196298D01*
X87831001Y-90141842D01*
X87761510Y-90104699D01*
X87670954Y-90067190D01*
X87622000Y-90052340D01*
X87622000Y-89652660D01*
X87670954Y-89637810D01*
X87761510Y-89600301D01*
X87831001Y-89563158D01*
X87912500Y-89508702D01*
X87973408Y-89458716D01*
X88042716Y-89389408D01*
X88092702Y-89328500D01*
X88147158Y-89247001D01*
X88184301Y-89177510D01*
X88221810Y-89086954D01*
X88244682Y-89011555D01*
X88263804Y-88915422D01*
X88271527Y-88837009D01*
X88271527Y-88812449D01*
X88273935Y-88788000D01*
X88273935Y-88727042D01*
X88402080Y-88855186D01*
X88417736Y-88874264D01*
X88493871Y-88936746D01*
X88580733Y-88983175D01*
X88674291Y-89011555D01*
X88674983Y-89011765D01*
X88773000Y-89021419D01*
X88797560Y-89019000D01*
X90399440Y-89019000D01*
X90424000Y-89021419D01*
X90448560Y-89019000D01*
X90522017Y-89011765D01*
X90616267Y-88983175D01*
X90703129Y-88936746D01*
X90779264Y-88874264D01*
X90794929Y-88855176D01*
X91266107Y-88384000D01*
X92431440Y-88384000D01*
X92456000Y-88386419D01*
X92480560Y-88384000D01*
X92554017Y-88376765D01*
X92648267Y-88348175D01*
X92735129Y-88301746D01*
X92811264Y-88239264D01*
X92826929Y-88220176D01*
X93523291Y-87523815D01*
X93615389Y-87561963D01*
X93856886Y-87610000D01*
X94103114Y-87610000D01*
X94344611Y-87561963D01*
X94572097Y-87467735D01*
X94630002Y-87429044D01*
X94630002Y-87542893D01*
G04 #@! TA.AperFunction,Conductor*
D19*
G36*
X94630002Y-87542893D02*
G01*
X94493817Y-87679078D01*
X94493812Y-87679082D01*
X94436709Y-87736185D01*
X94344611Y-87698037D01*
X94103114Y-87650000D01*
X93856886Y-87650000D01*
X93615389Y-87698037D01*
X93387903Y-87792265D01*
X93183172Y-87929062D01*
X93009062Y-88103172D01*
X92872265Y-88307903D01*
X92834117Y-88400000D01*
X91655057Y-88400000D01*
X91630499Y-88397581D01*
X91605941Y-88400000D01*
X91605940Y-88400000D01*
X91532483Y-88407235D01*
X91438233Y-88435825D01*
X91351371Y-88482254D01*
X91275236Y-88544736D01*
X91259575Y-88563819D01*
X88247266Y-91576129D01*
X88244497Y-91567000D01*
X88266212Y-91495414D01*
X88273935Y-91417000D01*
X88273935Y-90917000D01*
X88271527Y-90892551D01*
X88271527Y-90867991D01*
X88263804Y-90789578D01*
X88244682Y-90693445D01*
X88221810Y-90618046D01*
X88184301Y-90527490D01*
X88147158Y-90457999D01*
X88092702Y-90376500D01*
X88042716Y-90315592D01*
X87973408Y-90246284D01*
X87912500Y-90196298D01*
X87831001Y-90141842D01*
X87761510Y-90104699D01*
X87670954Y-90067190D01*
X87622000Y-90052340D01*
X87622000Y-89652660D01*
X87670954Y-89637810D01*
X87761510Y-89600301D01*
X87831001Y-89563158D01*
X87912500Y-89508702D01*
X87973408Y-89458716D01*
X88042716Y-89389408D01*
X88092702Y-89328500D01*
X88147158Y-89247001D01*
X88184301Y-89177510D01*
X88221810Y-89086954D01*
X88244682Y-89011555D01*
X88263804Y-88915422D01*
X88271527Y-88837009D01*
X88271527Y-88812449D01*
X88273935Y-88788000D01*
X88273935Y-88727042D01*
X88402080Y-88855186D01*
X88417736Y-88874264D01*
X88493871Y-88936746D01*
X88580733Y-88983175D01*
X88674291Y-89011555D01*
X88674983Y-89011765D01*
X88773000Y-89021419D01*
X88797560Y-89019000D01*
X90399440Y-89019000D01*
X90424000Y-89021419D01*
X90448560Y-89019000D01*
X90522017Y-89011765D01*
X90616267Y-88983175D01*
X90703129Y-88936746D01*
X90779264Y-88874264D01*
X90794929Y-88855176D01*
X91266107Y-88384000D01*
X92431440Y-88384000D01*
X92456000Y-88386419D01*
X92480560Y-88384000D01*
X92554017Y-88376765D01*
X92648267Y-88348175D01*
X92735129Y-88301746D01*
X92811264Y-88239264D01*
X92826929Y-88220176D01*
X93523291Y-87523815D01*
X93615389Y-87561963D01*
X93856886Y-87610000D01*
X94103114Y-87610000D01*
X94344611Y-87561963D01*
X94572097Y-87467735D01*
X94630002Y-87429044D01*
X94630002Y-87542893D01*
G37*
G04 #@! TD.AperFunction*
D17*
X85249808Y-76254057D02*
X85407394Y-76254057D01*
X85419156Y-76251717D01*
X85830623Y-76663186D01*
X85846280Y-76682264D01*
X85922415Y-76744746D01*
X86009277Y-76791175D01*
X86103527Y-76819765D01*
X86201544Y-76829419D01*
X86226104Y-76827000D01*
X86660895Y-76827000D01*
X87536059Y-77702165D01*
X87454793Y-77686000D01*
X87297207Y-77686000D01*
X87142649Y-77716743D01*
X86997058Y-77777049D01*
X86866030Y-77864599D01*
X86754599Y-77976030D01*
X86667049Y-78107058D01*
X86606743Y-78252649D01*
X86576000Y-78407207D01*
X86576000Y-78564793D01*
X86606743Y-78719351D01*
X86667049Y-78864942D01*
X86754599Y-78995970D01*
X86866030Y-79107401D01*
X86876000Y-79114063D01*
X86876001Y-80818892D01*
X85642824Y-82052071D01*
X85623736Y-82067736D01*
X85561254Y-82143871D01*
X85514825Y-82230734D01*
X85500832Y-82276863D01*
X85486235Y-82324983D01*
X85476581Y-82423000D01*
X85479000Y-82447560D01*
X85479001Y-84557430D01*
X85476581Y-84582000D01*
X85486235Y-84680017D01*
X85508621Y-84753813D01*
X85514826Y-84774267D01*
X85561255Y-84861129D01*
X85623737Y-84937264D01*
X85642819Y-84952924D01*
X86878079Y-86188186D01*
X86893736Y-86207264D01*
X86969871Y-86269746D01*
X87056733Y-86316175D01*
X87150983Y-86344765D01*
X87224440Y-86352000D01*
X87224441Y-86352000D01*
X87248999Y-86354419D01*
X87273557Y-86352000D01*
X89797661Y-86352000D01*
X89893805Y-86448144D01*
X89891465Y-86459906D01*
X89891465Y-86617492D01*
X89922208Y-86772050D01*
X89982514Y-86917641D01*
X90070064Y-87048669D01*
X90181495Y-87160100D01*
X90312523Y-87247650D01*
X90458114Y-87307956D01*
X90612672Y-87338699D01*
X90770258Y-87338699D01*
X90924816Y-87307956D01*
X91070407Y-87247650D01*
X91201435Y-87160100D01*
X91312866Y-87048669D01*
X91400416Y-86917641D01*
X91460722Y-86772050D01*
X91491465Y-86617492D01*
X91491465Y-86459906D01*
X91460722Y-86305348D01*
X91400416Y-86159757D01*
X91312866Y-86028729D01*
X91201435Y-85917298D01*
X91070407Y-85829748D01*
X90924816Y-85769442D01*
X90770258Y-85738699D01*
X90612672Y-85738699D01*
X90600910Y-85741039D01*
X90449871Y-85590000D01*
X92991136Y-85590000D01*
X92872265Y-85767903D01*
X92778037Y-85995389D01*
X92730000Y-86236886D01*
X92730000Y-86483114D01*
X92778037Y-86724611D01*
X92816185Y-86816709D01*
X92248895Y-87384000D01*
X91083560Y-87384000D01*
X91059000Y-87381581D01*
X91034440Y-87384000D01*
X90960983Y-87391235D01*
X90866733Y-87419825D01*
X90779871Y-87466254D01*
X90703736Y-87528736D01*
X90688080Y-87547813D01*
X90216895Y-88019000D01*
X88980107Y-88019000D01*
X88508929Y-87547824D01*
X88493264Y-87528736D01*
X88417129Y-87466254D01*
X88330267Y-87419825D01*
X88267772Y-87400868D01*
X88263804Y-87360578D01*
X88244682Y-87264445D01*
X88221810Y-87189046D01*
X88184301Y-87098490D01*
X88147158Y-87028999D01*
X88092702Y-86947500D01*
X88042716Y-86886592D01*
X87973408Y-86817284D01*
X87912500Y-86767298D01*
X87831001Y-86712842D01*
X87761510Y-86675699D01*
X87670954Y-86638190D01*
X87595555Y-86615318D01*
X87499422Y-86596196D01*
X87421009Y-86588473D01*
X87396449Y-86588473D01*
X87372000Y-86586065D01*
X86872000Y-86586065D01*
X86847551Y-86588473D01*
X86822991Y-86588473D01*
X86744578Y-86596196D01*
X86648445Y-86615318D01*
X86573046Y-86638190D01*
X86482490Y-86675699D01*
X86412999Y-86712842D01*
X86331500Y-86767298D01*
X86270592Y-86817284D01*
X86201284Y-86886592D01*
X86151298Y-86947500D01*
X86096842Y-87028999D01*
X86059699Y-87098490D01*
X86022190Y-87189046D01*
X85999318Y-87264445D01*
X85980196Y-87360578D01*
X85972473Y-87438991D01*
X85972473Y-87463551D01*
X85970065Y-87488000D01*
X85970065Y-87558550D01*
X85735814Y-87792801D01*
X85716726Y-87808466D01*
X85663172Y-87873722D01*
X85541669Y-87995225D01*
X85541669Y-87867197D01*
X85510926Y-87712639D01*
X85450620Y-87567048D01*
X85363070Y-87436020D01*
X85254215Y-87327165D01*
X85270968Y-87310411D01*
X85358518Y-87179383D01*
X85418824Y-87033792D01*
X85449567Y-86879234D01*
X85449567Y-86721648D01*
X85418824Y-86567090D01*
X85358518Y-86421499D01*
X85270968Y-86290471D01*
X85159537Y-86179040D01*
X85149567Y-86172378D01*
X85149567Y-82435538D01*
X85996185Y-81588922D01*
X86015262Y-81573266D01*
X86077744Y-81497131D01*
X86124173Y-81410269D01*
X86152763Y-81316019D01*
X86159998Y-81242562D01*
X86159998Y-81242561D01*
X86162417Y-81218003D01*
X86159998Y-81193445D01*
X86159998Y-77556547D01*
X86162416Y-77531997D01*
X86159998Y-77507447D01*
X86159998Y-77507438D01*
X86152763Y-77433981D01*
X86124173Y-77339731D01*
X86077744Y-77252869D01*
X86015262Y-77176734D01*
X85996185Y-77161078D01*
X85128599Y-76293494D01*
X85128599Y-76229947D01*
X85249808Y-76254057D01*
G04 #@! TA.AperFunction,Conductor*
D19*
G36*
X85249808Y-76254057D02*
G01*
X85407394Y-76254057D01*
X85419156Y-76251717D01*
X85830623Y-76663186D01*
X85846280Y-76682264D01*
X85922415Y-76744746D01*
X86009277Y-76791175D01*
X86103527Y-76819765D01*
X86201544Y-76829419D01*
X86226104Y-76827000D01*
X86660895Y-76827000D01*
X87536059Y-77702165D01*
X87454793Y-77686000D01*
X87297207Y-77686000D01*
X87142649Y-77716743D01*
X86997058Y-77777049D01*
X86866030Y-77864599D01*
X86754599Y-77976030D01*
X86667049Y-78107058D01*
X86606743Y-78252649D01*
X86576000Y-78407207D01*
X86576000Y-78564793D01*
X86606743Y-78719351D01*
X86667049Y-78864942D01*
X86754599Y-78995970D01*
X86866030Y-79107401D01*
X86876000Y-79114063D01*
X86876001Y-80818892D01*
X85642824Y-82052071D01*
X85623736Y-82067736D01*
X85561254Y-82143871D01*
X85514825Y-82230734D01*
X85500832Y-82276863D01*
X85486235Y-82324983D01*
X85476581Y-82423000D01*
X85479000Y-82447560D01*
X85479001Y-84557430D01*
X85476581Y-84582000D01*
X85486235Y-84680017D01*
X85508621Y-84753813D01*
X85514826Y-84774267D01*
X85561255Y-84861129D01*
X85623737Y-84937264D01*
X85642819Y-84952924D01*
X86878079Y-86188186D01*
X86893736Y-86207264D01*
X86969871Y-86269746D01*
X87056733Y-86316175D01*
X87150983Y-86344765D01*
X87224440Y-86352000D01*
X87224441Y-86352000D01*
X87248999Y-86354419D01*
X87273557Y-86352000D01*
X89797661Y-86352000D01*
X89893805Y-86448144D01*
X89891465Y-86459906D01*
X89891465Y-86617492D01*
X89922208Y-86772050D01*
X89982514Y-86917641D01*
X90070064Y-87048669D01*
X90181495Y-87160100D01*
X90312523Y-87247650D01*
X90458114Y-87307956D01*
X90612672Y-87338699D01*
X90770258Y-87338699D01*
X90924816Y-87307956D01*
X91070407Y-87247650D01*
X91201435Y-87160100D01*
X91312866Y-87048669D01*
X91400416Y-86917641D01*
X91460722Y-86772050D01*
X91491465Y-86617492D01*
X91491465Y-86459906D01*
X91460722Y-86305348D01*
X91400416Y-86159757D01*
X91312866Y-86028729D01*
X91201435Y-85917298D01*
X91070407Y-85829748D01*
X90924816Y-85769442D01*
X90770258Y-85738699D01*
X90612672Y-85738699D01*
X90600910Y-85741039D01*
X90449871Y-85590000D01*
X92991136Y-85590000D01*
X92872265Y-85767903D01*
X92778037Y-85995389D01*
X92730000Y-86236886D01*
X92730000Y-86483114D01*
X92778037Y-86724611D01*
X92816185Y-86816709D01*
X92248895Y-87384000D01*
X91083560Y-87384000D01*
X91059000Y-87381581D01*
X91034440Y-87384000D01*
X90960983Y-87391235D01*
X90866733Y-87419825D01*
X90779871Y-87466254D01*
X90703736Y-87528736D01*
X90688080Y-87547813D01*
X90216895Y-88019000D01*
X88980107Y-88019000D01*
X88508929Y-87547824D01*
X88493264Y-87528736D01*
X88417129Y-87466254D01*
X88330267Y-87419825D01*
X88267772Y-87400868D01*
X88263804Y-87360578D01*
X88244682Y-87264445D01*
X88221810Y-87189046D01*
X88184301Y-87098490D01*
X88147158Y-87028999D01*
X88092702Y-86947500D01*
X88042716Y-86886592D01*
X87973408Y-86817284D01*
X87912500Y-86767298D01*
X87831001Y-86712842D01*
X87761510Y-86675699D01*
X87670954Y-86638190D01*
X87595555Y-86615318D01*
X87499422Y-86596196D01*
X87421009Y-86588473D01*
X87396449Y-86588473D01*
X87372000Y-86586065D01*
X86872000Y-86586065D01*
X86847551Y-86588473D01*
X86822991Y-86588473D01*
X86744578Y-86596196D01*
X86648445Y-86615318D01*
X86573046Y-86638190D01*
X86482490Y-86675699D01*
X86412999Y-86712842D01*
X86331500Y-86767298D01*
X86270592Y-86817284D01*
X86201284Y-86886592D01*
X86151298Y-86947500D01*
X86096842Y-87028999D01*
X86059699Y-87098490D01*
X86022190Y-87189046D01*
X85999318Y-87264445D01*
X85980196Y-87360578D01*
X85972473Y-87438991D01*
X85972473Y-87463551D01*
X85970065Y-87488000D01*
X85970065Y-87558550D01*
X85735814Y-87792801D01*
X85716726Y-87808466D01*
X85663172Y-87873722D01*
X85541669Y-87995225D01*
X85541669Y-87867197D01*
X85510926Y-87712639D01*
X85450620Y-87567048D01*
X85363070Y-87436020D01*
X85254215Y-87327165D01*
X85270968Y-87310411D01*
X85358518Y-87179383D01*
X85418824Y-87033792D01*
X85449567Y-86879234D01*
X85449567Y-86721648D01*
X85418824Y-86567090D01*
X85358518Y-86421499D01*
X85270968Y-86290471D01*
X85159537Y-86179040D01*
X85149567Y-86172378D01*
X85149567Y-82435538D01*
X85996185Y-81588922D01*
X86015262Y-81573266D01*
X86077744Y-81497131D01*
X86124173Y-81410269D01*
X86152763Y-81316019D01*
X86159998Y-81242562D01*
X86159998Y-81242561D01*
X86162417Y-81218003D01*
X86159998Y-81193445D01*
X86159998Y-77556547D01*
X86162416Y-77531997D01*
X86159998Y-77507447D01*
X86159998Y-77507438D01*
X86152763Y-77433981D01*
X86124173Y-77339731D01*
X86077744Y-77252869D01*
X86015262Y-77176734D01*
X85996185Y-77161078D01*
X85128599Y-76293494D01*
X85128599Y-76229947D01*
X85249808Y-76254057D01*
G37*
G04 #@! TD.AperFunction*
D17*
X90689211Y-80855318D02*
X90689210Y-81935255D01*
X90679240Y-81941917D01*
X90567809Y-82053348D01*
X90480259Y-82184376D01*
X90419953Y-82329967D01*
X90389210Y-82484525D01*
X90389210Y-82642111D01*
X90419953Y-82796669D01*
X90480259Y-82942260D01*
X90567809Y-83073288D01*
X90679240Y-83184719D01*
X90720085Y-83212011D01*
X89634116Y-83212011D01*
X89524929Y-83102823D01*
X89509264Y-83083736D01*
X89433129Y-83021254D01*
X89346267Y-82974825D01*
X89252017Y-82946235D01*
X89178560Y-82939000D01*
X89154000Y-82936581D01*
X89129440Y-82939000D01*
X88029119Y-82939000D01*
X88004569Y-82936582D01*
X87980019Y-82939000D01*
X87980010Y-82939000D01*
X87906553Y-82946235D01*
X87812303Y-82974825D01*
X87725441Y-83021254D01*
X87649306Y-83083736D01*
X87633649Y-83102814D01*
X87323322Y-83413143D01*
X87311560Y-83410803D01*
X87153974Y-83410803D01*
X86999416Y-83441546D01*
X86987000Y-83446689D01*
X86987000Y-82763096D01*
X88047446Y-81702652D01*
X88059207Y-81704991D01*
X88216793Y-81704991D01*
X88371351Y-81674248D01*
X88516942Y-81613942D01*
X88647970Y-81526392D01*
X88759401Y-81414961D01*
X88846951Y-81283933D01*
X88907257Y-81138342D01*
X88938000Y-80983784D01*
X88938000Y-80826198D01*
X88907257Y-80671640D01*
X88846951Y-80526049D01*
X88759401Y-80395021D01*
X88647970Y-80283590D01*
X88516942Y-80196040D01*
X88371351Y-80135734D01*
X88216793Y-80104991D01*
X88059207Y-80104991D01*
X87904649Y-80135734D01*
X87876000Y-80147601D01*
X87876000Y-79114063D01*
X87885970Y-79107401D01*
X87997401Y-78995970D01*
X88084951Y-78864942D01*
X88145257Y-78719351D01*
X88176000Y-78564793D01*
X88176000Y-78407207D01*
X88159836Y-78325941D01*
X90689211Y-80855318D01*
G04 #@! TA.AperFunction,Conductor*
D19*
G36*
X90689211Y-80855318D02*
G01*
X90689210Y-81935255D01*
X90679240Y-81941917D01*
X90567809Y-82053348D01*
X90480259Y-82184376D01*
X90419953Y-82329967D01*
X90389210Y-82484525D01*
X90389210Y-82642111D01*
X90419953Y-82796669D01*
X90480259Y-82942260D01*
X90567809Y-83073288D01*
X90679240Y-83184719D01*
X90720085Y-83212011D01*
X89634116Y-83212011D01*
X89524929Y-83102823D01*
X89509264Y-83083736D01*
X89433129Y-83021254D01*
X89346267Y-82974825D01*
X89252017Y-82946235D01*
X89178560Y-82939000D01*
X89154000Y-82936581D01*
X89129440Y-82939000D01*
X88029119Y-82939000D01*
X88004569Y-82936582D01*
X87980019Y-82939000D01*
X87980010Y-82939000D01*
X87906553Y-82946235D01*
X87812303Y-82974825D01*
X87725441Y-83021254D01*
X87649306Y-83083736D01*
X87633649Y-83102814D01*
X87323322Y-83413143D01*
X87311560Y-83410803D01*
X87153974Y-83410803D01*
X86999416Y-83441546D01*
X86987000Y-83446689D01*
X86987000Y-82763096D01*
X88047446Y-81702652D01*
X88059207Y-81704991D01*
X88216793Y-81704991D01*
X88371351Y-81674248D01*
X88516942Y-81613942D01*
X88647970Y-81526392D01*
X88759401Y-81414961D01*
X88846951Y-81283933D01*
X88907257Y-81138342D01*
X88938000Y-80983784D01*
X88938000Y-80826198D01*
X88907257Y-80671640D01*
X88846951Y-80526049D01*
X88759401Y-80395021D01*
X88647970Y-80283590D01*
X88516942Y-80196040D01*
X88371351Y-80135734D01*
X88216793Y-80104991D01*
X88059207Y-80104991D01*
X87904649Y-80135734D01*
X87876000Y-80147601D01*
X87876000Y-79114063D01*
X87885970Y-79107401D01*
X87997401Y-78995970D01*
X88084951Y-78864942D01*
X88145257Y-78719351D01*
X88176000Y-78564793D01*
X88176000Y-78407207D01*
X88159836Y-78325941D01*
X90689211Y-80855318D01*
G37*
G04 #@! TD.AperFunction*
D17*
X76618592Y-70916716D02*
X76679500Y-70966702D01*
X76760999Y-71021158D01*
X76830490Y-71058301D01*
X76921046Y-71095810D01*
X76996445Y-71118682D01*
X77092578Y-71137804D01*
X77170991Y-71145527D01*
X77195551Y-71145527D01*
X77220000Y-71147935D01*
X77659688Y-71147935D01*
X77599058Y-71173049D01*
X77468030Y-71260599D01*
X77356599Y-71372030D01*
X77269049Y-71503058D01*
X77208743Y-71648649D01*
X77178000Y-71803207D01*
X77178000Y-71960793D01*
X77208743Y-72115351D01*
X77269049Y-72260942D01*
X77356599Y-72391970D01*
X77468030Y-72503401D01*
X77478000Y-72510063D01*
X77478001Y-79889915D01*
X77467998Y-79896599D01*
X77356567Y-80008030D01*
X77269017Y-80139058D01*
X77208711Y-80284649D01*
X77177968Y-80439207D01*
X77177968Y-80493693D01*
X77170938Y-80483172D01*
X76996828Y-80309062D01*
X76792097Y-80172265D01*
X76564611Y-80078037D01*
X76323114Y-80030000D01*
X76076886Y-80030000D01*
X75835389Y-80078037D01*
X75607903Y-80172265D01*
X75430000Y-80291136D01*
X75430000Y-79728864D01*
X75607903Y-79847735D01*
X75835389Y-79941963D01*
X76076886Y-79990000D01*
X76323114Y-79990000D01*
X76564611Y-79941963D01*
X76792097Y-79847735D01*
X76996828Y-79710938D01*
X77170938Y-79536828D01*
X77307735Y-79332097D01*
X77401963Y-79104611D01*
X77450000Y-78863114D01*
X77450000Y-78616886D01*
X77401963Y-78375389D01*
X77307735Y-78147903D01*
X77170938Y-77943172D01*
X76996828Y-77769062D01*
X76792097Y-77632265D01*
X76564611Y-77538037D01*
X76323114Y-77490000D01*
X76076886Y-77490000D01*
X75835389Y-77538037D01*
X75607903Y-77632265D01*
X75430000Y-77751136D01*
X75430000Y-77188864D01*
X75607903Y-77307735D01*
X75835389Y-77401963D01*
X76076886Y-77450000D01*
X76323114Y-77450000D01*
X76564611Y-77401963D01*
X76792097Y-77307735D01*
X76996828Y-77170938D01*
X77170938Y-76996828D01*
X77307735Y-76792097D01*
X77401963Y-76564611D01*
X77450000Y-76323114D01*
X77450000Y-76076886D01*
X77401963Y-75835389D01*
X77307735Y-75607903D01*
X77170938Y-75403172D01*
X76996828Y-75229062D01*
X76792097Y-75092265D01*
X76564611Y-74998037D01*
X76323114Y-74950000D01*
X76076886Y-74950000D01*
X75835389Y-74998037D01*
X75607903Y-75092265D01*
X75430000Y-75211136D01*
X75430000Y-74911935D01*
X77050000Y-74911935D01*
X77128414Y-74904212D01*
X77203814Y-74881340D01*
X77273303Y-74844197D01*
X77334211Y-74794211D01*
X77384197Y-74733303D01*
X77421340Y-74663814D01*
X77444212Y-74588414D01*
X77451935Y-74510000D01*
X77451935Y-72810000D01*
X77444212Y-72731586D01*
X77421340Y-72656186D01*
X77384197Y-72586697D01*
X77334211Y-72525789D01*
X77273303Y-72475803D01*
X77203814Y-72438660D01*
X77128414Y-72415788D01*
X77050000Y-72408065D01*
X75430000Y-72408065D01*
X75430000Y-72089105D01*
X76610491Y-70908615D01*
X76618592Y-70916716D01*
G04 #@! TA.AperFunction,Conductor*
D19*
G36*
X76618592Y-70916716D02*
G01*
X76679500Y-70966702D01*
X76760999Y-71021158D01*
X76830490Y-71058301D01*
X76921046Y-71095810D01*
X76996445Y-71118682D01*
X77092578Y-71137804D01*
X77170991Y-71145527D01*
X77195551Y-71145527D01*
X77220000Y-71147935D01*
X77659688Y-71147935D01*
X77599058Y-71173049D01*
X77468030Y-71260599D01*
X77356599Y-71372030D01*
X77269049Y-71503058D01*
X77208743Y-71648649D01*
X77178000Y-71803207D01*
X77178000Y-71960793D01*
X77208743Y-72115351D01*
X77269049Y-72260942D01*
X77356599Y-72391970D01*
X77468030Y-72503401D01*
X77478000Y-72510063D01*
X77478001Y-79889915D01*
X77467998Y-79896599D01*
X77356567Y-80008030D01*
X77269017Y-80139058D01*
X77208711Y-80284649D01*
X77177968Y-80439207D01*
X77177968Y-80493693D01*
X77170938Y-80483172D01*
X76996828Y-80309062D01*
X76792097Y-80172265D01*
X76564611Y-80078037D01*
X76323114Y-80030000D01*
X76076886Y-80030000D01*
X75835389Y-80078037D01*
X75607903Y-80172265D01*
X75430000Y-80291136D01*
X75430000Y-79728864D01*
X75607903Y-79847735D01*
X75835389Y-79941963D01*
X76076886Y-79990000D01*
X76323114Y-79990000D01*
X76564611Y-79941963D01*
X76792097Y-79847735D01*
X76996828Y-79710938D01*
X77170938Y-79536828D01*
X77307735Y-79332097D01*
X77401963Y-79104611D01*
X77450000Y-78863114D01*
X77450000Y-78616886D01*
X77401963Y-78375389D01*
X77307735Y-78147903D01*
X77170938Y-77943172D01*
X76996828Y-77769062D01*
X76792097Y-77632265D01*
X76564611Y-77538037D01*
X76323114Y-77490000D01*
X76076886Y-77490000D01*
X75835389Y-77538037D01*
X75607903Y-77632265D01*
X75430000Y-77751136D01*
X75430000Y-77188864D01*
X75607903Y-77307735D01*
X75835389Y-77401963D01*
X76076886Y-77450000D01*
X76323114Y-77450000D01*
X76564611Y-77401963D01*
X76792097Y-77307735D01*
X76996828Y-77170938D01*
X77170938Y-76996828D01*
X77307735Y-76792097D01*
X77401963Y-76564611D01*
X77450000Y-76323114D01*
X77450000Y-76076886D01*
X77401963Y-75835389D01*
X77307735Y-75607903D01*
X77170938Y-75403172D01*
X76996828Y-75229062D01*
X76792097Y-75092265D01*
X76564611Y-74998037D01*
X76323114Y-74950000D01*
X76076886Y-74950000D01*
X75835389Y-74998037D01*
X75607903Y-75092265D01*
X75430000Y-75211136D01*
X75430000Y-74911935D01*
X77050000Y-74911935D01*
X77128414Y-74904212D01*
X77203814Y-74881340D01*
X77273303Y-74844197D01*
X77334211Y-74794211D01*
X77384197Y-74733303D01*
X77421340Y-74663814D01*
X77444212Y-74588414D01*
X77451935Y-74510000D01*
X77451935Y-72810000D01*
X77444212Y-72731586D01*
X77421340Y-72656186D01*
X77384197Y-72586697D01*
X77334211Y-72525789D01*
X77273303Y-72475803D01*
X77203814Y-72438660D01*
X77128414Y-72415788D01*
X77050000Y-72408065D01*
X75430000Y-72408065D01*
X75430000Y-72089105D01*
X76610491Y-70908615D01*
X76618592Y-70916716D01*
G37*
G04 #@! TD.AperFunction*
D17*
X85021490Y-73364990D02*
X85179076Y-73364990D01*
X85190838Y-73362650D01*
X86496062Y-74667875D01*
X86422351Y-74653213D01*
X86264765Y-74653213D01*
X86253003Y-74655553D01*
X86210284Y-74612834D01*
X86194620Y-74593747D01*
X86118485Y-74531265D01*
X86084512Y-74513106D01*
X84915267Y-73343861D01*
X85021490Y-73364990D01*
G04 #@! TA.AperFunction,Conductor*
D19*
G36*
X85021490Y-73364990D02*
G01*
X85179076Y-73364990D01*
X85190838Y-73362650D01*
X86496062Y-74667875D01*
X86422351Y-74653213D01*
X86264765Y-74653213D01*
X86253003Y-74655553D01*
X86210284Y-74612834D01*
X86194620Y-74593747D01*
X86118485Y-74531265D01*
X86084512Y-74513106D01*
X84915267Y-73343861D01*
X85021490Y-73364990D01*
G37*
G04 #@! TD.AperFunction*
D17*
X84679000Y-70752239D02*
X84679000Y-70909825D01*
X84709743Y-71064383D01*
X84770049Y-71209974D01*
X84857599Y-71341002D01*
X84969030Y-71452433D01*
X85100058Y-71539983D01*
X85245649Y-71600289D01*
X85379001Y-71626814D01*
X85379001Y-71814525D01*
X85333634Y-71795733D01*
X85179076Y-71764990D01*
X85021490Y-71764990D01*
X84866932Y-71795733D01*
X84721341Y-71856039D01*
X84590313Y-71943589D01*
X84478882Y-72055020D01*
X84427989Y-72131187D01*
X84427989Y-70891799D01*
X84706673Y-70613116D01*
X84679000Y-70752239D01*
G04 #@! TA.AperFunction,Conductor*
D19*
G36*
X84679000Y-70752239D02*
G01*
X84679000Y-70909825D01*
X84709743Y-71064383D01*
X84770049Y-71209974D01*
X84857599Y-71341002D01*
X84969030Y-71452433D01*
X85100058Y-71539983D01*
X85245649Y-71600289D01*
X85379001Y-71626814D01*
X85379001Y-71814525D01*
X85333634Y-71795733D01*
X85179076Y-71764990D01*
X85021490Y-71764990D01*
X84866932Y-71795733D01*
X84721341Y-71856039D01*
X84590313Y-71943589D01*
X84478882Y-72055020D01*
X84427989Y-72131187D01*
X84427989Y-70891799D01*
X84706673Y-70613116D01*
X84679000Y-70752239D01*
G37*
G04 #@! TD.AperFunction*
M02*
