G04 #@! TF.GenerationSoftware,KiCad,Pcbnew,5.1.10-1.fc33*
G04 #@! TF.CreationDate,2021-06-16T23:56:17+02:00*
G04 #@! TF.ProjectId,CH552-USB-Devboard-PCBA,43483535-322d-4555-9342-2d446576626f,rev?*
G04 #@! TF.SameCoordinates,Original*
G04 #@! TF.FileFunction,Soldermask,Top*
G04 #@! TF.FilePolarity,Negative*
%FSLAX46Y46*%
G04 Gerber Fmt 4.6, Leading zero omitted, Abs format (unit mm)*
G04 Created by KiCad (PCBNEW 5.1.10-1.fc33) date 2021-06-16 23:56:17*
%MOMM*%
%LPD*%
G01*
G04 APERTURE LIST*
%ADD10O,1.500000X2.100000*%
%ADD11R,1.880000X1.980000*%
%ADD12C,0.100000*%
%ADD13O,1.300000X2.400000*%
%ADD14C,1.000000*%
%ADD15O,2.100000X2.100000*%
G04 APERTURE END LIST*
D10*
X89283000Y-103378000D03*
X80643000Y-103378000D03*
X80643000Y-107178000D03*
X89283000Y-107178000D03*
G36*
G01*
X83913000Y-103828000D02*
X83913000Y-102628000D01*
G75*
G02*
X84113000Y-102428000I200000J0D01*
G01*
X84813000Y-102428000D01*
G75*
G02*
X85013000Y-102628000I0J-200000D01*
G01*
X85013000Y-103828000D01*
G75*
G02*
X84813000Y-104028000I-200000J0D01*
G01*
X84113000Y-104028000D01*
G75*
G02*
X83913000Y-103828000I0J200000D01*
G01*
G37*
G36*
G01*
X84913000Y-103828000D02*
X84913000Y-102628000D01*
G75*
G02*
X85113000Y-102428000I200000J0D01*
G01*
X85813000Y-102428000D01*
G75*
G02*
X86013000Y-102628000I0J-200000D01*
G01*
X86013000Y-103828000D01*
G75*
G02*
X85813000Y-104028000I-200000J0D01*
G01*
X85113000Y-104028000D01*
G75*
G02*
X84913000Y-103828000I0J200000D01*
G01*
G37*
G36*
G01*
X82863000Y-103828000D02*
X82863000Y-102628000D01*
G75*
G02*
X83063000Y-102428000I200000J0D01*
G01*
X83823000Y-102428000D01*
G75*
G02*
X84023000Y-102628000I0J-200000D01*
G01*
X84023000Y-103828000D01*
G75*
G02*
X83823000Y-104028000I-200000J0D01*
G01*
X83063000Y-104028000D01*
G75*
G02*
X82863000Y-103828000I0J200000D01*
G01*
G37*
G36*
G01*
X81613000Y-103828000D02*
X81613000Y-102628000D01*
G75*
G02*
X81813000Y-102428000I200000J0D01*
G01*
X82613000Y-102428000D01*
G75*
G02*
X82813000Y-102628000I0J-200000D01*
G01*
X82813000Y-103828000D01*
G75*
G02*
X82613000Y-104028000I-200000J0D01*
G01*
X81813000Y-104028000D01*
G75*
G02*
X81613000Y-103828000I0J200000D01*
G01*
G37*
G36*
G01*
X85903000Y-103828000D02*
X85903000Y-102628000D01*
G75*
G02*
X86103000Y-102428000I200000J0D01*
G01*
X86863000Y-102428000D01*
G75*
G02*
X87063000Y-102628000I0J-200000D01*
G01*
X87063000Y-103828000D01*
G75*
G02*
X86863000Y-104028000I-200000J0D01*
G01*
X86103000Y-104028000D01*
G75*
G02*
X85903000Y-103828000I0J200000D01*
G01*
G37*
G36*
G01*
X87113000Y-103828000D02*
X87113000Y-102628000D01*
G75*
G02*
X87313000Y-102428000I200000J0D01*
G01*
X88113000Y-102428000D01*
G75*
G02*
X88313000Y-102628000I0J-200000D01*
G01*
X88313000Y-103828000D01*
G75*
G02*
X88113000Y-104028000I-200000J0D01*
G01*
X87313000Y-104028000D01*
G75*
G02*
X87113000Y-103828000I0J200000D01*
G01*
G37*
G36*
G01*
X78950500Y-69752000D02*
X78275500Y-69752000D01*
G75*
G02*
X77938000Y-69414500I0J337500D01*
G01*
X77938000Y-68714500D01*
G75*
G02*
X78275500Y-68377000I337500J0D01*
G01*
X78950500Y-68377000D01*
G75*
G02*
X79288000Y-68714500I0J-337500D01*
G01*
X79288000Y-69414500D01*
G75*
G02*
X78950500Y-69752000I-337500J0D01*
G01*
G37*
G36*
G01*
X78950500Y-71577000D02*
X78275500Y-71577000D01*
G75*
G02*
X77938000Y-71239500I0J337500D01*
G01*
X77938000Y-70539500D01*
G75*
G02*
X78275500Y-70202000I337500J0D01*
G01*
X78950500Y-70202000D01*
G75*
G02*
X79288000Y-70539500I0J-337500D01*
G01*
X79288000Y-71239500D01*
G75*
G02*
X78950500Y-71577000I-337500J0D01*
G01*
G37*
D11*
X88646000Y-72390000D03*
G36*
G01*
X90121000Y-70990000D02*
X91571000Y-70990000D01*
G75*
G02*
X91771000Y-71190000I0J-200000D01*
G01*
X91771000Y-71640000D01*
G75*
G02*
X91571000Y-71840000I-200000J0D01*
G01*
X90121000Y-71840000D01*
G75*
G02*
X89921000Y-71640000I0J200000D01*
G01*
X89921000Y-71190000D01*
G75*
G02*
X90121000Y-70990000I200000J0D01*
G01*
G37*
G36*
G01*
X90121000Y-71640000D02*
X91571000Y-71640000D01*
G75*
G02*
X91771000Y-71840000I0J-200000D01*
G01*
X91771000Y-72290000D01*
G75*
G02*
X91571000Y-72490000I-200000J0D01*
G01*
X90121000Y-72490000D01*
G75*
G02*
X89921000Y-72290000I0J200000D01*
G01*
X89921000Y-71840000D01*
G75*
G02*
X90121000Y-71640000I200000J0D01*
G01*
G37*
G36*
G01*
X90121000Y-72290000D02*
X91571000Y-72290000D01*
G75*
G02*
X91771000Y-72490000I0J-200000D01*
G01*
X91771000Y-72940000D01*
G75*
G02*
X91571000Y-73140000I-200000J0D01*
G01*
X90121000Y-73140000D01*
G75*
G02*
X89921000Y-72940000I0J200000D01*
G01*
X89921000Y-72490000D01*
G75*
G02*
X90121000Y-72290000I200000J0D01*
G01*
G37*
G36*
G01*
X90121000Y-72940000D02*
X91571000Y-72940000D01*
G75*
G02*
X91771000Y-73140000I0J-200000D01*
G01*
X91771000Y-73590000D01*
G75*
G02*
X91571000Y-73790000I-200000J0D01*
G01*
X90121000Y-73790000D01*
G75*
G02*
X89921000Y-73590000I0J200000D01*
G01*
X89921000Y-73140000D01*
G75*
G02*
X90121000Y-72940000I200000J0D01*
G01*
G37*
G36*
G01*
X85721000Y-72940000D02*
X87171000Y-72940000D01*
G75*
G02*
X87371000Y-73140000I0J-200000D01*
G01*
X87371000Y-73590000D01*
G75*
G02*
X87171000Y-73790000I-200000J0D01*
G01*
X85721000Y-73790000D01*
G75*
G02*
X85521000Y-73590000I0J200000D01*
G01*
X85521000Y-73140000D01*
G75*
G02*
X85721000Y-72940000I200000J0D01*
G01*
G37*
G36*
G01*
X85721000Y-72290000D02*
X87171000Y-72290000D01*
G75*
G02*
X87371000Y-72490000I0J-200000D01*
G01*
X87371000Y-72940000D01*
G75*
G02*
X87171000Y-73140000I-200000J0D01*
G01*
X85721000Y-73140000D01*
G75*
G02*
X85521000Y-72940000I0J200000D01*
G01*
X85521000Y-72490000D01*
G75*
G02*
X85721000Y-72290000I200000J0D01*
G01*
G37*
G36*
G01*
X85721000Y-71640000D02*
X87171000Y-71640000D01*
G75*
G02*
X87371000Y-71840000I0J-200000D01*
G01*
X87371000Y-72290000D01*
G75*
G02*
X87171000Y-72490000I-200000J0D01*
G01*
X85721000Y-72490000D01*
G75*
G02*
X85521000Y-72290000I0J200000D01*
G01*
X85521000Y-71840000D01*
G75*
G02*
X85721000Y-71640000I200000J0D01*
G01*
G37*
G36*
G01*
X85721000Y-70990000D02*
X87171000Y-70990000D01*
G75*
G02*
X87371000Y-71190000I0J-200000D01*
G01*
X87371000Y-71640000D01*
G75*
G02*
X87171000Y-71840000I-200000J0D01*
G01*
X85721000Y-71840000D01*
G75*
G02*
X85521000Y-71640000I0J200000D01*
G01*
X85521000Y-71190000D01*
G75*
G02*
X85721000Y-70990000I200000J0D01*
G01*
G37*
G36*
G01*
X90574000Y-75267500D02*
X90574000Y-74592500D01*
G75*
G02*
X90911500Y-74255000I337500J0D01*
G01*
X91686500Y-74255000D01*
G75*
G02*
X92024000Y-74592500I0J-337500D01*
G01*
X92024000Y-75267500D01*
G75*
G02*
X91686500Y-75605000I-337500J0D01*
G01*
X90911500Y-75605000D01*
G75*
G02*
X90574000Y-75267500I0J337500D01*
G01*
G37*
G36*
G01*
X88824000Y-75267500D02*
X88824000Y-74592500D01*
G75*
G02*
X89161500Y-74255000I337500J0D01*
G01*
X89936500Y-74255000D01*
G75*
G02*
X90274000Y-74592500I0J-337500D01*
G01*
X90274000Y-75267500D01*
G75*
G02*
X89936500Y-75605000I-337500J0D01*
G01*
X89161500Y-75605000D01*
G75*
G02*
X88824000Y-75267500I0J337500D01*
G01*
G37*
G36*
G01*
X90274000Y-76116500D02*
X90274000Y-76791500D01*
G75*
G02*
X89936500Y-77129000I-337500J0D01*
G01*
X89161500Y-77129000D01*
G75*
G02*
X88824000Y-76791500I0J337500D01*
G01*
X88824000Y-76116500D01*
G75*
G02*
X89161500Y-75779000I337500J0D01*
G01*
X89936500Y-75779000D01*
G75*
G02*
X90274000Y-76116500I0J-337500D01*
G01*
G37*
G36*
G01*
X92024000Y-76116500D02*
X92024000Y-76791500D01*
G75*
G02*
X91686500Y-77129000I-337500J0D01*
G01*
X90911500Y-77129000D01*
G75*
G02*
X90574000Y-76791500I0J337500D01*
G01*
X90574000Y-76116500D01*
G75*
G02*
X90911500Y-75779000I337500J0D01*
G01*
X91686500Y-75779000D01*
G75*
G02*
X92024000Y-76116500I0J-337500D01*
G01*
G37*
D12*
G36*
X93366112Y-65979602D02*
G01*
X93384534Y-65979602D01*
X93404140Y-65980565D01*
X93452971Y-65985375D01*
X93472380Y-65988254D01*
X93520505Y-65997826D01*
X93539548Y-66002596D01*
X93586503Y-66016840D01*
X93604980Y-66023451D01*
X93650313Y-66042228D01*
X93668061Y-66050623D01*
X93711334Y-66073754D01*
X93728162Y-66083840D01*
X93768961Y-66111100D01*
X93784730Y-66122795D01*
X93822659Y-66153923D01*
X93837200Y-66167103D01*
X93871897Y-66201800D01*
X93885077Y-66216341D01*
X93916205Y-66254270D01*
X93927900Y-66270039D01*
X93955160Y-66310838D01*
X93965246Y-66327666D01*
X93988377Y-66370939D01*
X93996772Y-66388687D01*
X94015549Y-66434020D01*
X94022160Y-66452497D01*
X94036404Y-66499452D01*
X94041174Y-66518495D01*
X94050746Y-66566620D01*
X94053625Y-66586029D01*
X94058435Y-66634860D01*
X94059398Y-66654466D01*
X94059398Y-66672888D01*
X94060000Y-66679000D01*
X94060000Y-67179000D01*
X94059398Y-67185112D01*
X94059398Y-67203534D01*
X94058435Y-67223140D01*
X94053625Y-67271971D01*
X94050746Y-67291380D01*
X94041174Y-67339505D01*
X94036404Y-67358548D01*
X94022160Y-67405503D01*
X94015549Y-67423980D01*
X93996772Y-67469313D01*
X93988377Y-67487061D01*
X93965246Y-67530334D01*
X93955160Y-67547162D01*
X93927900Y-67587961D01*
X93916205Y-67603730D01*
X93885077Y-67641659D01*
X93871897Y-67656200D01*
X93837200Y-67690897D01*
X93822659Y-67704077D01*
X93784730Y-67735205D01*
X93768961Y-67746900D01*
X93728162Y-67774160D01*
X93711334Y-67784246D01*
X93668061Y-67807377D01*
X93650313Y-67815772D01*
X93604980Y-67834549D01*
X93586503Y-67841160D01*
X93539548Y-67855404D01*
X93520505Y-67860174D01*
X93472380Y-67869746D01*
X93452971Y-67872625D01*
X93404140Y-67877435D01*
X93384534Y-67878398D01*
X93366112Y-67878398D01*
X93360000Y-67879000D01*
X92860000Y-67879000D01*
X92820982Y-67875157D01*
X92783463Y-67863776D01*
X92748886Y-67845294D01*
X92718579Y-67820421D01*
X92693706Y-67790114D01*
X92675224Y-67755537D01*
X92663843Y-67718018D01*
X92660000Y-67679000D01*
X92660000Y-66179000D01*
X92663843Y-66139982D01*
X92675224Y-66102463D01*
X92693706Y-66067886D01*
X92718579Y-66037579D01*
X92748886Y-66012706D01*
X92783463Y-65994224D01*
X92820982Y-65982843D01*
X92860000Y-65979000D01*
X93360000Y-65979000D01*
X93366112Y-65979602D01*
G37*
G36*
X92599018Y-65982843D02*
G01*
X92636537Y-65994224D01*
X92671114Y-66012706D01*
X92701421Y-66037579D01*
X92726294Y-66067886D01*
X92744776Y-66102463D01*
X92756157Y-66139982D01*
X92760000Y-66179000D01*
X92760000Y-67679000D01*
X92756157Y-67718018D01*
X92744776Y-67755537D01*
X92726294Y-67790114D01*
X92701421Y-67820421D01*
X92671114Y-67845294D01*
X92636537Y-67863776D01*
X92599018Y-67875157D01*
X92560000Y-67879000D01*
X92060000Y-67879000D01*
X92053888Y-67878398D01*
X92035466Y-67878398D01*
X92015860Y-67877435D01*
X91967029Y-67872625D01*
X91947620Y-67869746D01*
X91899495Y-67860174D01*
X91880452Y-67855404D01*
X91833497Y-67841160D01*
X91815020Y-67834549D01*
X91769687Y-67815772D01*
X91751939Y-67807377D01*
X91708666Y-67784246D01*
X91691838Y-67774160D01*
X91651039Y-67746900D01*
X91635270Y-67735205D01*
X91597341Y-67704077D01*
X91582800Y-67690897D01*
X91548103Y-67656200D01*
X91534923Y-67641659D01*
X91503795Y-67603730D01*
X91492100Y-67587961D01*
X91464840Y-67547162D01*
X91454754Y-67530334D01*
X91431623Y-67487061D01*
X91423228Y-67469313D01*
X91404451Y-67423980D01*
X91397840Y-67405503D01*
X91383596Y-67358548D01*
X91378826Y-67339505D01*
X91369254Y-67291380D01*
X91366375Y-67271971D01*
X91361565Y-67223140D01*
X91360602Y-67203534D01*
X91360602Y-67185112D01*
X91360000Y-67179000D01*
X91360000Y-66679000D01*
X91360602Y-66672888D01*
X91360602Y-66654466D01*
X91361565Y-66634860D01*
X91366375Y-66586029D01*
X91369254Y-66566620D01*
X91378826Y-66518495D01*
X91383596Y-66499452D01*
X91397840Y-66452497D01*
X91404451Y-66434020D01*
X91423228Y-66388687D01*
X91431623Y-66370939D01*
X91454754Y-66327666D01*
X91464840Y-66310838D01*
X91492100Y-66270039D01*
X91503795Y-66254270D01*
X91534923Y-66216341D01*
X91548103Y-66201800D01*
X91582800Y-66167103D01*
X91597341Y-66153923D01*
X91635270Y-66122795D01*
X91651039Y-66111100D01*
X91691838Y-66083840D01*
X91708666Y-66073754D01*
X91751939Y-66050623D01*
X91769687Y-66042228D01*
X91815020Y-66023451D01*
X91833497Y-66016840D01*
X91880452Y-66002596D01*
X91899495Y-65997826D01*
X91947620Y-65988254D01*
X91967029Y-65985375D01*
X92015860Y-65980565D01*
X92035466Y-65979602D01*
X92053888Y-65979602D01*
X92060000Y-65979000D01*
X92560000Y-65979000D01*
X92599018Y-65982843D01*
G37*
G36*
G01*
X83062000Y-92090000D02*
X83562000Y-92090000D01*
G75*
G02*
X83762000Y-92290000I0J-200000D01*
G01*
X83762000Y-92790000D01*
G75*
G02*
X83562000Y-92990000I-200000J0D01*
G01*
X83062000Y-92990000D01*
G75*
G02*
X82862000Y-92790000I0J200000D01*
G01*
X82862000Y-92290000D01*
G75*
G02*
X83062000Y-92090000I200000J0D01*
G01*
G37*
G36*
G01*
X83062000Y-89890000D02*
X83562000Y-89890000D01*
G75*
G02*
X83762000Y-90090000I0J-200000D01*
G01*
X83762000Y-90590000D01*
G75*
G02*
X83562000Y-90790000I-200000J0D01*
G01*
X83062000Y-90790000D01*
G75*
G02*
X82862000Y-90590000I0J200000D01*
G01*
X82862000Y-90090000D01*
G75*
G02*
X83062000Y-89890000I200000J0D01*
G01*
G37*
G36*
G01*
X81157000Y-92090000D02*
X81657000Y-92090000D01*
G75*
G02*
X81857000Y-92290000I0J-200000D01*
G01*
X81857000Y-92790000D01*
G75*
G02*
X81657000Y-92990000I-200000J0D01*
G01*
X81157000Y-92990000D01*
G75*
G02*
X80957000Y-92790000I0J200000D01*
G01*
X80957000Y-92290000D01*
G75*
G02*
X81157000Y-92090000I200000J0D01*
G01*
G37*
G36*
G01*
X81157000Y-89890000D02*
X81657000Y-89890000D01*
G75*
G02*
X81857000Y-90090000I0J-200000D01*
G01*
X81857000Y-90590000D01*
G75*
G02*
X81657000Y-90790000I-200000J0D01*
G01*
X81157000Y-90790000D01*
G75*
G02*
X80957000Y-90590000I0J200000D01*
G01*
X80957000Y-90090000D01*
G75*
G02*
X81157000Y-89890000I200000J0D01*
G01*
G37*
G36*
G01*
X83335000Y-73616500D02*
X83335000Y-72941500D01*
G75*
G02*
X83672500Y-72604000I337500J0D01*
G01*
X84447500Y-72604000D01*
G75*
G02*
X84785000Y-72941500I0J-337500D01*
G01*
X84785000Y-73616500D01*
G75*
G02*
X84447500Y-73954000I-337500J0D01*
G01*
X83672500Y-73954000D01*
G75*
G02*
X83335000Y-73616500I0J337500D01*
G01*
G37*
G36*
G01*
X81585000Y-73616500D02*
X81585000Y-72941500D01*
G75*
G02*
X81922500Y-72604000I337500J0D01*
G01*
X82697500Y-72604000D01*
G75*
G02*
X83035000Y-72941500I0J-337500D01*
G01*
X83035000Y-73616500D01*
G75*
G02*
X82697500Y-73954000I-337500J0D01*
G01*
X81922500Y-73954000D01*
G75*
G02*
X81585000Y-73616500I0J337500D01*
G01*
G37*
G36*
G01*
X84665500Y-70589000D02*
X83990500Y-70589000D01*
G75*
G02*
X83653000Y-70251500I0J337500D01*
G01*
X83653000Y-69476500D01*
G75*
G02*
X83990500Y-69139000I337500J0D01*
G01*
X84665500Y-69139000D01*
G75*
G02*
X85003000Y-69476500I0J-337500D01*
G01*
X85003000Y-70251500D01*
G75*
G02*
X84665500Y-70589000I-337500J0D01*
G01*
G37*
G36*
G01*
X84665500Y-72339000D02*
X83990500Y-72339000D01*
G75*
G02*
X83653000Y-72001500I0J337500D01*
G01*
X83653000Y-71226500D01*
G75*
G02*
X83990500Y-70889000I337500J0D01*
G01*
X84665500Y-70889000D01*
G75*
G02*
X85003000Y-71226500I0J-337500D01*
G01*
X85003000Y-72001500D01*
G75*
G02*
X84665500Y-72339000I-337500J0D01*
G01*
G37*
G36*
G01*
X90574000Y-78315500D02*
X90574000Y-77640500D01*
G75*
G02*
X90911500Y-77303000I337500J0D01*
G01*
X91686500Y-77303000D01*
G75*
G02*
X92024000Y-77640500I0J-337500D01*
G01*
X92024000Y-78315500D01*
G75*
G02*
X91686500Y-78653000I-337500J0D01*
G01*
X90911500Y-78653000D01*
G75*
G02*
X90574000Y-78315500I0J337500D01*
G01*
G37*
G36*
G01*
X88824000Y-78315500D02*
X88824000Y-77640500D01*
G75*
G02*
X89161500Y-77303000I337500J0D01*
G01*
X89936500Y-77303000D01*
G75*
G02*
X90274000Y-77640500I0J-337500D01*
G01*
X90274000Y-78315500D01*
G75*
G02*
X89936500Y-78653000I-337500J0D01*
G01*
X89161500Y-78653000D01*
G75*
G02*
X88824000Y-78315500I0J337500D01*
G01*
G37*
G36*
G01*
X87309000Y-68714175D02*
X87309000Y-70223825D01*
G75*
G02*
X86988825Y-70544000I-320175J0D01*
G01*
X85804175Y-70544000D01*
G75*
G02*
X85484000Y-70223825I0J320175D01*
G01*
X85484000Y-68714175D01*
G75*
G02*
X85804175Y-68394000I320175J0D01*
G01*
X86988825Y-68394000D01*
G75*
G02*
X87309000Y-68714175I0J-320175D01*
G01*
G37*
G36*
G01*
X90284000Y-68714175D02*
X90284000Y-70223825D01*
G75*
G02*
X89963825Y-70544000I-320175J0D01*
G01*
X88779175Y-70544000D01*
G75*
G02*
X88459000Y-70223825I0J320175D01*
G01*
X88459000Y-68714175D01*
G75*
G02*
X88779175Y-68394000I320175J0D01*
G01*
X89963825Y-68394000D01*
G75*
G02*
X90284000Y-68714175I0J-320175D01*
G01*
G37*
G36*
G01*
X92389000Y-68714175D02*
X92389000Y-70223825D01*
G75*
G02*
X92068825Y-70544000I-320175J0D01*
G01*
X90884175Y-70544000D01*
G75*
G02*
X90564000Y-70223825I0J320175D01*
G01*
X90564000Y-68714175D01*
G75*
G02*
X90884175Y-68394000I320175J0D01*
G01*
X92068825Y-68394000D01*
G75*
G02*
X92389000Y-68714175I0J-320175D01*
G01*
G37*
G36*
G01*
X95364000Y-68714175D02*
X95364000Y-70223825D01*
G75*
G02*
X95043825Y-70544000I-320175J0D01*
G01*
X93859175Y-70544000D01*
G75*
G02*
X93539000Y-70223825I0J320175D01*
G01*
X93539000Y-68714175D01*
G75*
G02*
X93859175Y-68394000I320175J0D01*
G01*
X95043825Y-68394000D01*
G75*
G02*
X95364000Y-68714175I0J-320175D01*
G01*
G37*
G36*
G01*
X77299500Y-69752000D02*
X76624500Y-69752000D01*
G75*
G02*
X76287000Y-69414500I0J337500D01*
G01*
X76287000Y-68714500D01*
G75*
G02*
X76624500Y-68377000I337500J0D01*
G01*
X77299500Y-68377000D01*
G75*
G02*
X77637000Y-68714500I0J-337500D01*
G01*
X77637000Y-69414500D01*
G75*
G02*
X77299500Y-69752000I-337500J0D01*
G01*
G37*
G36*
G01*
X77299500Y-71577000D02*
X76624500Y-71577000D01*
G75*
G02*
X76287000Y-71239500I0J337500D01*
G01*
X76287000Y-70539500D01*
G75*
G02*
X76624500Y-70202000I337500J0D01*
G01*
X77299500Y-70202000D01*
G75*
G02*
X77637000Y-70539500I0J-337500D01*
G01*
X77637000Y-71239500D01*
G75*
G02*
X77299500Y-71577000I-337500J0D01*
G01*
G37*
D13*
X80675000Y-66680000D03*
X89325000Y-66680000D03*
X89325000Y-62500000D03*
X80675000Y-62500000D03*
D14*
X82110000Y-66180000D03*
G36*
G01*
X85100000Y-66680000D02*
X85100000Y-67820000D01*
G75*
G02*
X84900000Y-68020000I-200000J0D01*
G01*
X84600000Y-68020000D01*
G75*
G02*
X84400000Y-67820000I0J200000D01*
G01*
X84400000Y-66680000D01*
G75*
G02*
X84600000Y-66480000I200000J0D01*
G01*
X84900000Y-66480000D01*
G75*
G02*
X85100000Y-66680000I0J-200000D01*
G01*
G37*
G36*
G01*
X85600000Y-66680000D02*
X85600000Y-67820000D01*
G75*
G02*
X85400000Y-68020000I-200000J0D01*
G01*
X85100000Y-68020000D01*
G75*
G02*
X84900000Y-67820000I0J200000D01*
G01*
X84900000Y-66680000D01*
G75*
G02*
X85100000Y-66480000I200000J0D01*
G01*
X85400000Y-66480000D01*
G75*
G02*
X85600000Y-66680000I0J-200000D01*
G01*
G37*
G36*
G01*
X86100000Y-66680000D02*
X86100000Y-67820000D01*
G75*
G02*
X85900000Y-68020000I-200000J0D01*
G01*
X85600000Y-68020000D01*
G75*
G02*
X85400000Y-67820000I0J200000D01*
G01*
X85400000Y-66680000D01*
G75*
G02*
X85600000Y-66480000I200000J0D01*
G01*
X85900000Y-66480000D01*
G75*
G02*
X86100000Y-66680000I0J-200000D01*
G01*
G37*
G36*
G01*
X84600000Y-66680000D02*
X84600000Y-67820000D01*
G75*
G02*
X84400000Y-68020000I-200000J0D01*
G01*
X84100000Y-68020000D01*
G75*
G02*
X83900000Y-67820000I0J200000D01*
G01*
X83900000Y-66680000D01*
G75*
G02*
X84100000Y-66480000I200000J0D01*
G01*
X84400000Y-66480000D01*
G75*
G02*
X84600000Y-66680000I0J-200000D01*
G01*
G37*
G36*
G01*
X86600000Y-66680000D02*
X86600000Y-67820000D01*
G75*
G02*
X86400000Y-68020000I-200000J0D01*
G01*
X86100000Y-68020000D01*
G75*
G02*
X85900000Y-67820000I0J200000D01*
G01*
X85900000Y-66680000D01*
G75*
G02*
X86100000Y-66480000I200000J0D01*
G01*
X86400000Y-66480000D01*
G75*
G02*
X86600000Y-66680000I0J-200000D01*
G01*
G37*
G36*
G01*
X87100000Y-66680000D02*
X87100000Y-67820000D01*
G75*
G02*
X86900000Y-68020000I-200000J0D01*
G01*
X86600000Y-68020000D01*
G75*
G02*
X86400000Y-67820000I0J200000D01*
G01*
X86400000Y-66680000D01*
G75*
G02*
X86600000Y-66480000I200000J0D01*
G01*
X86900000Y-66480000D01*
G75*
G02*
X87100000Y-66680000I0J-200000D01*
G01*
G37*
G36*
G01*
X84100000Y-66680000D02*
X84100000Y-67820000D01*
G75*
G02*
X83900000Y-68020000I-200000J0D01*
G01*
X83600000Y-68020000D01*
G75*
G02*
X83400000Y-67820000I0J200000D01*
G01*
X83400000Y-66680000D01*
G75*
G02*
X83600000Y-66480000I200000J0D01*
G01*
X83900000Y-66480000D01*
G75*
G02*
X84100000Y-66680000I0J-200000D01*
G01*
G37*
G36*
G01*
X83600000Y-66680000D02*
X83600000Y-67820000D01*
G75*
G02*
X83400000Y-68020000I-200000J0D01*
G01*
X83100000Y-68020000D01*
G75*
G02*
X82900000Y-67820000I0J200000D01*
G01*
X82900000Y-66680000D01*
G75*
G02*
X83100000Y-66480000I200000J0D01*
G01*
X83400000Y-66480000D01*
G75*
G02*
X83600000Y-66680000I0J-200000D01*
G01*
G37*
X87890000Y-66180000D03*
G36*
G01*
X87850000Y-66680000D02*
X87850000Y-67820000D01*
G75*
G02*
X87650000Y-68020000I-200000J0D01*
G01*
X87350000Y-68020000D01*
G75*
G02*
X87150000Y-67820000I0J200000D01*
G01*
X87150000Y-66680000D01*
G75*
G02*
X87350000Y-66480000I200000J0D01*
G01*
X87650000Y-66480000D01*
G75*
G02*
X87850000Y-66680000I0J-200000D01*
G01*
G37*
G36*
G01*
X87600000Y-66680000D02*
X87600000Y-67820000D01*
G75*
G02*
X87400000Y-68020000I-200000J0D01*
G01*
X87100000Y-68020000D01*
G75*
G02*
X86900000Y-67820000I0J200000D01*
G01*
X86900000Y-66680000D01*
G75*
G02*
X87100000Y-66480000I200000J0D01*
G01*
X87400000Y-66480000D01*
G75*
G02*
X87600000Y-66680000I0J-200000D01*
G01*
G37*
G36*
G01*
X88400000Y-66680000D02*
X88400000Y-67820000D01*
G75*
G02*
X88200000Y-68020000I-200000J0D01*
G01*
X87900000Y-68020000D01*
G75*
G02*
X87700000Y-67820000I0J200000D01*
G01*
X87700000Y-66680000D01*
G75*
G02*
X87900000Y-66480000I200000J0D01*
G01*
X88200000Y-66480000D01*
G75*
G02*
X88400000Y-66680000I0J-200000D01*
G01*
G37*
G36*
G01*
X88700000Y-66680000D02*
X88700000Y-67820000D01*
G75*
G02*
X88500000Y-68020000I-200000J0D01*
G01*
X88200000Y-68020000D01*
G75*
G02*
X88000000Y-67820000I0J200000D01*
G01*
X88000000Y-66680000D01*
G75*
G02*
X88200000Y-66480000I200000J0D01*
G01*
X88500000Y-66480000D01*
G75*
G02*
X88700000Y-66680000I0J-200000D01*
G01*
G37*
G36*
G01*
X83100000Y-66680000D02*
X83100000Y-67820000D01*
G75*
G02*
X82900000Y-68020000I-200000J0D01*
G01*
X82600000Y-68020000D01*
G75*
G02*
X82400000Y-67820000I0J200000D01*
G01*
X82400000Y-66680000D01*
G75*
G02*
X82600000Y-66480000I200000J0D01*
G01*
X82900000Y-66480000D01*
G75*
G02*
X83100000Y-66680000I0J-200000D01*
G01*
G37*
G36*
G01*
X82800000Y-66680000D02*
X82800000Y-67820000D01*
G75*
G02*
X82600000Y-68020000I-200000J0D01*
G01*
X82300000Y-68020000D01*
G75*
G02*
X82100000Y-67820000I0J200000D01*
G01*
X82100000Y-66680000D01*
G75*
G02*
X82300000Y-66480000I200000J0D01*
G01*
X82600000Y-66480000D01*
G75*
G02*
X82800000Y-66680000I0J-200000D01*
G01*
G37*
G36*
G01*
X82300000Y-66680000D02*
X82300000Y-67820000D01*
G75*
G02*
X82100000Y-68020000I-200000J0D01*
G01*
X81800000Y-68020000D01*
G75*
G02*
X81600000Y-67820000I0J200000D01*
G01*
X81600000Y-66680000D01*
G75*
G02*
X81800000Y-66480000I200000J0D01*
G01*
X82100000Y-66480000D01*
G75*
G02*
X82300000Y-66680000I0J-200000D01*
G01*
G37*
G36*
G01*
X82000000Y-66680000D02*
X82000000Y-67820000D01*
G75*
G02*
X81800000Y-68020000I-200000J0D01*
G01*
X81500000Y-68020000D01*
G75*
G02*
X81300000Y-67820000I0J200000D01*
G01*
X81300000Y-66680000D01*
G75*
G02*
X81500000Y-66480000I200000J0D01*
G01*
X81800000Y-66480000D01*
G75*
G02*
X82000000Y-66680000I0J-200000D01*
G01*
G37*
G36*
G01*
X78529500Y-87728000D02*
X79204500Y-87728000D01*
G75*
G02*
X79542000Y-88065500I0J-337500D01*
G01*
X79542000Y-88765500D01*
G75*
G02*
X79204500Y-89103000I-337500J0D01*
G01*
X78529500Y-89103000D01*
G75*
G02*
X78192000Y-88765500I0J337500D01*
G01*
X78192000Y-88065500D01*
G75*
G02*
X78529500Y-87728000I337500J0D01*
G01*
G37*
G36*
G01*
X78529500Y-85903000D02*
X79204500Y-85903000D01*
G75*
G02*
X79542000Y-86240500I0J-337500D01*
G01*
X79542000Y-86940500D01*
G75*
G02*
X79204500Y-87278000I-337500J0D01*
G01*
X78529500Y-87278000D01*
G75*
G02*
X78192000Y-86940500I0J337500D01*
G01*
X78192000Y-86240500D01*
G75*
G02*
X78529500Y-85903000I337500J0D01*
G01*
G37*
G36*
G01*
X79331500Y-83849000D02*
X78656500Y-83849000D01*
G75*
G02*
X78319000Y-83511500I0J337500D01*
G01*
X78319000Y-82811500D01*
G75*
G02*
X78656500Y-82474000I337500J0D01*
G01*
X79331500Y-82474000D01*
G75*
G02*
X79669000Y-82811500I0J-337500D01*
G01*
X79669000Y-83511500D01*
G75*
G02*
X79331500Y-83849000I-337500J0D01*
G01*
G37*
G36*
G01*
X79331500Y-85674000D02*
X78656500Y-85674000D01*
G75*
G02*
X78319000Y-85336500I0J337500D01*
G01*
X78319000Y-84636500D01*
G75*
G02*
X78656500Y-84299000I337500J0D01*
G01*
X79331500Y-84299000D01*
G75*
G02*
X79669000Y-84636500I0J-337500D01*
G01*
X79669000Y-85336500D01*
G75*
G02*
X79331500Y-85674000I-337500J0D01*
G01*
G37*
G36*
G01*
X81998500Y-87913000D02*
X81323500Y-87913000D01*
G75*
G02*
X80986000Y-87575500I0J337500D01*
G01*
X80986000Y-86875500D01*
G75*
G02*
X81323500Y-86538000I337500J0D01*
G01*
X81998500Y-86538000D01*
G75*
G02*
X82336000Y-86875500I0J-337500D01*
G01*
X82336000Y-87575500D01*
G75*
G02*
X81998500Y-87913000I-337500J0D01*
G01*
G37*
G36*
G01*
X81998500Y-89738000D02*
X81323500Y-89738000D01*
G75*
G02*
X80986000Y-89400500I0J337500D01*
G01*
X80986000Y-88700500D01*
G75*
G02*
X81323500Y-88363000I337500J0D01*
G01*
X81998500Y-88363000D01*
G75*
G02*
X82336000Y-88700500I0J-337500D01*
G01*
X82336000Y-89400500D01*
G75*
G02*
X81998500Y-89738000I-337500J0D01*
G01*
G37*
G36*
G01*
X84752500Y-91665000D02*
X85427500Y-91665000D01*
G75*
G02*
X85765000Y-92002500I0J-337500D01*
G01*
X85765000Y-92702500D01*
G75*
G02*
X85427500Y-93040000I-337500J0D01*
G01*
X84752500Y-93040000D01*
G75*
G02*
X84415000Y-92702500I0J337500D01*
G01*
X84415000Y-92002500D01*
G75*
G02*
X84752500Y-91665000I337500J0D01*
G01*
G37*
G36*
G01*
X84752500Y-89840000D02*
X85427500Y-89840000D01*
G75*
G02*
X85765000Y-90177500I0J-337500D01*
G01*
X85765000Y-90877500D01*
G75*
G02*
X85427500Y-91215000I-337500J0D01*
G01*
X84752500Y-91215000D01*
G75*
G02*
X84415000Y-90877500I0J337500D01*
G01*
X84415000Y-90177500D01*
G75*
G02*
X84752500Y-89840000I337500J0D01*
G01*
G37*
G36*
G01*
X90199000Y-95293500D02*
X90199000Y-95968500D01*
G75*
G02*
X89861500Y-96306000I-337500J0D01*
G01*
X89161500Y-96306000D01*
G75*
G02*
X88824000Y-95968500I0J337500D01*
G01*
X88824000Y-95293500D01*
G75*
G02*
X89161500Y-94956000I337500J0D01*
G01*
X89861500Y-94956000D01*
G75*
G02*
X90199000Y-95293500I0J-337500D01*
G01*
G37*
G36*
G01*
X92024000Y-95293500D02*
X92024000Y-95968500D01*
G75*
G02*
X91686500Y-96306000I-337500J0D01*
G01*
X90986500Y-96306000D01*
G75*
G02*
X90649000Y-95968500I0J337500D01*
G01*
X90649000Y-95293500D01*
G75*
G02*
X90986500Y-94956000I337500J0D01*
G01*
X91686500Y-94956000D01*
G75*
G02*
X92024000Y-95293500I0J-337500D01*
G01*
G37*
G36*
G01*
X92969000Y-65075500D02*
X92969000Y-64400500D01*
G75*
G02*
X93306500Y-64063000I337500J0D01*
G01*
X94006500Y-64063000D01*
G75*
G02*
X94344000Y-64400500I0J-337500D01*
G01*
X94344000Y-65075500D01*
G75*
G02*
X94006500Y-65413000I-337500J0D01*
G01*
X93306500Y-65413000D01*
G75*
G02*
X92969000Y-65075500I0J337500D01*
G01*
G37*
G36*
G01*
X91144000Y-65075500D02*
X91144000Y-64400500D01*
G75*
G02*
X91481500Y-64063000I337500J0D01*
G01*
X92181500Y-64063000D01*
G75*
G02*
X92519000Y-64400500I0J-337500D01*
G01*
X92519000Y-65075500D01*
G75*
G02*
X92181500Y-65413000I-337500J0D01*
G01*
X91481500Y-65413000D01*
G75*
G02*
X91144000Y-65075500I0J337500D01*
G01*
G37*
G36*
G01*
X79537500Y-98700000D02*
X78862500Y-98700000D01*
G75*
G02*
X78525000Y-98362500I0J337500D01*
G01*
X78525000Y-97662500D01*
G75*
G02*
X78862500Y-97325000I337500J0D01*
G01*
X79537500Y-97325000D01*
G75*
G02*
X79875000Y-97662500I0J-337500D01*
G01*
X79875000Y-98362500D01*
G75*
G02*
X79537500Y-98700000I-337500J0D01*
G01*
G37*
G36*
G01*
X79537500Y-100525000D02*
X78862500Y-100525000D01*
G75*
G02*
X78525000Y-100187500I0J337500D01*
G01*
X78525000Y-99487500D01*
G75*
G02*
X78862500Y-99150000I337500J0D01*
G01*
X79537500Y-99150000D01*
G75*
G02*
X79875000Y-99487500I0J-337500D01*
G01*
X79875000Y-100187500D01*
G75*
G02*
X79537500Y-100525000I-337500J0D01*
G01*
G37*
G36*
G01*
X91537500Y-98700000D02*
X90862500Y-98700000D01*
G75*
G02*
X90525000Y-98362500I0J337500D01*
G01*
X90525000Y-97662500D01*
G75*
G02*
X90862500Y-97325000I337500J0D01*
G01*
X91537500Y-97325000D01*
G75*
G02*
X91875000Y-97662500I0J-337500D01*
G01*
X91875000Y-98362500D01*
G75*
G02*
X91537500Y-98700000I-337500J0D01*
G01*
G37*
G36*
G01*
X91537500Y-100525000D02*
X90862500Y-100525000D01*
G75*
G02*
X90525000Y-100187500I0J337500D01*
G01*
X90525000Y-99487500D01*
G75*
G02*
X90862500Y-99150000I337500J0D01*
G01*
X91537500Y-99150000D01*
G75*
G02*
X91875000Y-99487500I0J-337500D01*
G01*
X91875000Y-100187500D01*
G75*
G02*
X91537500Y-100525000I-337500J0D01*
G01*
G37*
G36*
G01*
X83649500Y-87913000D02*
X82974500Y-87913000D01*
G75*
G02*
X82637000Y-87575500I0J337500D01*
G01*
X82637000Y-86875500D01*
G75*
G02*
X82974500Y-86538000I337500J0D01*
G01*
X83649500Y-86538000D01*
G75*
G02*
X83987000Y-86875500I0J-337500D01*
G01*
X83987000Y-87575500D01*
G75*
G02*
X83649500Y-87913000I-337500J0D01*
G01*
G37*
G36*
G01*
X83649500Y-89738000D02*
X82974500Y-89738000D01*
G75*
G02*
X82637000Y-89400500I0J337500D01*
G01*
X82637000Y-88700500D01*
G75*
G02*
X82974500Y-88363000I337500J0D01*
G01*
X83649500Y-88363000D01*
G75*
G02*
X83987000Y-88700500I0J-337500D01*
G01*
X83987000Y-89400500D01*
G75*
G02*
X83649500Y-89738000I-337500J0D01*
G01*
G37*
G36*
G01*
X79606000Y-72941500D02*
X79606000Y-73616500D01*
G75*
G02*
X79268500Y-73954000I-337500J0D01*
G01*
X78493500Y-73954000D01*
G75*
G02*
X78156000Y-73616500I0J337500D01*
G01*
X78156000Y-72941500D01*
G75*
G02*
X78493500Y-72604000I337500J0D01*
G01*
X79268500Y-72604000D01*
G75*
G02*
X79606000Y-72941500I0J-337500D01*
G01*
G37*
G36*
G01*
X81356000Y-72941500D02*
X81356000Y-73616500D01*
G75*
G02*
X81018500Y-73954000I-337500J0D01*
G01*
X80243500Y-73954000D01*
G75*
G02*
X79906000Y-73616500I0J337500D01*
G01*
X79906000Y-72941500D01*
G75*
G02*
X80243500Y-72604000I337500J0D01*
G01*
X81018500Y-72604000D01*
G75*
G02*
X81356000Y-72941500I0J-337500D01*
G01*
G37*
G36*
G01*
X81109500Y-78816000D02*
X80434500Y-78816000D01*
G75*
G02*
X80097000Y-78478500I0J337500D01*
G01*
X80097000Y-77703500D01*
G75*
G02*
X80434500Y-77366000I337500J0D01*
G01*
X81109500Y-77366000D01*
G75*
G02*
X81447000Y-77703500I0J-337500D01*
G01*
X81447000Y-78478500D01*
G75*
G02*
X81109500Y-78816000I-337500J0D01*
G01*
G37*
G36*
G01*
X81109500Y-77066000D02*
X80434500Y-77066000D01*
G75*
G02*
X80097000Y-76728500I0J337500D01*
G01*
X80097000Y-75953500D01*
G75*
G02*
X80434500Y-75616000I337500J0D01*
G01*
X81109500Y-75616000D01*
G75*
G02*
X81447000Y-75953500I0J-337500D01*
G01*
X81447000Y-76728500D01*
G75*
G02*
X81109500Y-77066000I-337500J0D01*
G01*
G37*
D15*
X76200000Y-99060000D03*
X76200000Y-96520000D03*
X76200000Y-93980000D03*
X76200000Y-91440000D03*
X76200000Y-88900000D03*
X76200000Y-86360000D03*
X76200000Y-83820000D03*
X76200000Y-81280000D03*
X76200000Y-78740000D03*
X76200000Y-76200000D03*
G36*
G01*
X75150000Y-74510000D02*
X75150000Y-72810000D01*
G75*
G02*
X75350000Y-72610000I200000J0D01*
G01*
X77050000Y-72610000D01*
G75*
G02*
X77250000Y-72810000I0J-200000D01*
G01*
X77250000Y-74510000D01*
G75*
G02*
X77050000Y-74710000I-200000J0D01*
G01*
X75350000Y-74710000D01*
G75*
G02*
X75150000Y-74510000I0J200000D01*
G01*
G37*
G36*
G01*
X92930000Y-74510000D02*
X92930000Y-72810000D01*
G75*
G02*
X93130000Y-72610000I200000J0D01*
G01*
X94830000Y-72610000D01*
G75*
G02*
X95030000Y-72810000I0J-200000D01*
G01*
X95030000Y-74510000D01*
G75*
G02*
X94830000Y-74710000I-200000J0D01*
G01*
X93130000Y-74710000D01*
G75*
G02*
X92930000Y-74510000I0J200000D01*
G01*
G37*
X93980000Y-76200000D03*
X93980000Y-78740000D03*
X93980000Y-81280000D03*
X93980000Y-83820000D03*
X93980000Y-86360000D03*
X93980000Y-88900000D03*
X93980000Y-91440000D03*
X93980000Y-93980000D03*
X93980000Y-96520000D03*
X93980000Y-99060000D03*
G36*
G01*
X86425000Y-96523000D02*
X86425000Y-95873000D01*
G75*
G02*
X86625000Y-95673000I200000J0D01*
G01*
X87675000Y-95673000D01*
G75*
G02*
X87875000Y-95873000I0J-200000D01*
G01*
X87875000Y-96523000D01*
G75*
G02*
X87675000Y-96723000I-200000J0D01*
G01*
X86625000Y-96723000D01*
G75*
G02*
X86425000Y-96523000I0J200000D01*
G01*
G37*
G36*
G01*
X82275000Y-96523000D02*
X82275000Y-95873000D01*
G75*
G02*
X82475000Y-95673000I200000J0D01*
G01*
X83525000Y-95673000D01*
G75*
G02*
X83725000Y-95873000I0J-200000D01*
G01*
X83725000Y-96523000D01*
G75*
G02*
X83525000Y-96723000I-200000J0D01*
G01*
X82475000Y-96723000D01*
G75*
G02*
X82275000Y-96523000I0J200000D01*
G01*
G37*
G36*
G01*
X86425000Y-94373000D02*
X86425000Y-93723000D01*
G75*
G02*
X86625000Y-93523000I200000J0D01*
G01*
X87675000Y-93523000D01*
G75*
G02*
X87875000Y-93723000I0J-200000D01*
G01*
X87875000Y-94373000D01*
G75*
G02*
X87675000Y-94573000I-200000J0D01*
G01*
X86625000Y-94573000D01*
G75*
G02*
X86425000Y-94373000I0J200000D01*
G01*
G37*
G36*
G01*
X82275000Y-94373000D02*
X82275000Y-93723000D01*
G75*
G02*
X82475000Y-93523000I200000J0D01*
G01*
X83525000Y-93523000D01*
G75*
G02*
X83725000Y-93723000I0J-200000D01*
G01*
X83725000Y-94373000D01*
G75*
G02*
X83525000Y-94573000I-200000J0D01*
G01*
X82475000Y-94573000D01*
G75*
G02*
X82275000Y-94373000I0J200000D01*
G01*
G37*
G36*
G01*
X82275000Y-98281000D02*
X82275000Y-97631000D01*
G75*
G02*
X82475000Y-97431000I200000J0D01*
G01*
X83525000Y-97431000D01*
G75*
G02*
X83725000Y-97631000I0J-200000D01*
G01*
X83725000Y-98281000D01*
G75*
G02*
X83525000Y-98481000I-200000J0D01*
G01*
X82475000Y-98481000D01*
G75*
G02*
X82275000Y-98281000I0J200000D01*
G01*
G37*
G36*
G01*
X86425000Y-98281000D02*
X86425000Y-97631000D01*
G75*
G02*
X86625000Y-97431000I200000J0D01*
G01*
X87675000Y-97431000D01*
G75*
G02*
X87875000Y-97631000I0J-200000D01*
G01*
X87875000Y-98281000D01*
G75*
G02*
X87675000Y-98481000I-200000J0D01*
G01*
X86625000Y-98481000D01*
G75*
G02*
X86425000Y-98281000I0J200000D01*
G01*
G37*
G36*
G01*
X82275000Y-100431000D02*
X82275000Y-99781000D01*
G75*
G02*
X82475000Y-99581000I200000J0D01*
G01*
X83525000Y-99581000D01*
G75*
G02*
X83725000Y-99781000I0J-200000D01*
G01*
X83725000Y-100431000D01*
G75*
G02*
X83525000Y-100631000I-200000J0D01*
G01*
X82475000Y-100631000D01*
G75*
G02*
X82275000Y-100431000I0J200000D01*
G01*
G37*
G36*
G01*
X86425000Y-100431000D02*
X86425000Y-99781000D01*
G75*
G02*
X86625000Y-99581000I200000J0D01*
G01*
X87675000Y-99581000D01*
G75*
G02*
X87875000Y-99781000I0J-200000D01*
G01*
X87875000Y-100431000D01*
G75*
G02*
X87675000Y-100631000I-200000J0D01*
G01*
X86625000Y-100631000D01*
G75*
G02*
X86425000Y-100431000I0J200000D01*
G01*
G37*
G36*
G01*
X80696000Y-75140500D02*
X80696000Y-74465500D01*
G75*
G02*
X81033500Y-74128000I337500J0D01*
G01*
X81808500Y-74128000D01*
G75*
G02*
X82146000Y-74465500I0J-337500D01*
G01*
X82146000Y-75140500D01*
G75*
G02*
X81808500Y-75478000I-337500J0D01*
G01*
X81033500Y-75478000D01*
G75*
G02*
X80696000Y-75140500I0J337500D01*
G01*
G37*
G36*
G01*
X82446000Y-75140500D02*
X82446000Y-74465500D01*
G75*
G02*
X82783500Y-74128000I337500J0D01*
G01*
X83558500Y-74128000D01*
G75*
G02*
X83896000Y-74465500I0J-337500D01*
G01*
X83896000Y-75140500D01*
G75*
G02*
X83558500Y-75478000I-337500J0D01*
G01*
X82783500Y-75478000D01*
G75*
G02*
X82446000Y-75140500I0J337500D01*
G01*
G37*
G36*
G01*
X81236500Y-94973000D02*
X80561500Y-94973000D01*
G75*
G02*
X80224000Y-94635500I0J337500D01*
G01*
X80224000Y-93860500D01*
G75*
G02*
X80561500Y-93523000I337500J0D01*
G01*
X81236500Y-93523000D01*
G75*
G02*
X81574000Y-93860500I0J-337500D01*
G01*
X81574000Y-94635500D01*
G75*
G02*
X81236500Y-94973000I-337500J0D01*
G01*
G37*
G36*
G01*
X81236500Y-96723000D02*
X80561500Y-96723000D01*
G75*
G02*
X80224000Y-96385500I0J337500D01*
G01*
X80224000Y-95610500D01*
G75*
G02*
X80561500Y-95273000I337500J0D01*
G01*
X81236500Y-95273000D01*
G75*
G02*
X81574000Y-95610500I0J-337500D01*
G01*
X81574000Y-96385500D01*
G75*
G02*
X81236500Y-96723000I-337500J0D01*
G01*
G37*
G36*
G01*
X82626000Y-71417500D02*
X82626000Y-72092500D01*
G75*
G02*
X82288500Y-72430000I-337500J0D01*
G01*
X81513500Y-72430000D01*
G75*
G02*
X81176000Y-72092500I0J337500D01*
G01*
X81176000Y-71417500D01*
G75*
G02*
X81513500Y-71080000I337500J0D01*
G01*
X82288500Y-71080000D01*
G75*
G02*
X82626000Y-71417500I0J-337500D01*
G01*
G37*
G36*
G01*
X80876000Y-71417500D02*
X80876000Y-72092500D01*
G75*
G02*
X80538500Y-72430000I-337500J0D01*
G01*
X79763500Y-72430000D01*
G75*
G02*
X79426000Y-72092500I0J337500D01*
G01*
X79426000Y-71417500D01*
G75*
G02*
X79763500Y-71080000I337500J0D01*
G01*
X80538500Y-71080000D01*
G75*
G02*
X80876000Y-71417500I0J-337500D01*
G01*
G37*
G36*
G01*
X81034192Y-80930020D02*
X80434192Y-80930020D01*
G75*
G02*
X80234192Y-80730020I0J200000D01*
G01*
X80234192Y-79230020D01*
G75*
G02*
X80434192Y-79030020I200000J0D01*
G01*
X81034192Y-79030020D01*
G75*
G02*
X81234192Y-79230020I0J-200000D01*
G01*
X81234192Y-80730020D01*
G75*
G02*
X81034192Y-80930020I-200000J0D01*
G01*
G37*
G36*
G01*
X82304192Y-80930020D02*
X81704192Y-80930020D01*
G75*
G02*
X81504192Y-80730020I0J200000D01*
G01*
X81504192Y-79230020D01*
G75*
G02*
X81704192Y-79030020I200000J0D01*
G01*
X82304192Y-79030020D01*
G75*
G02*
X82504192Y-79230020I0J-200000D01*
G01*
X82504192Y-80730020D01*
G75*
G02*
X82304192Y-80930020I-200000J0D01*
G01*
G37*
G36*
G01*
X83574192Y-80930020D02*
X82974192Y-80930020D01*
G75*
G02*
X82774192Y-80730020I0J200000D01*
G01*
X82774192Y-79230020D01*
G75*
G02*
X82974192Y-79030020I200000J0D01*
G01*
X83574192Y-79030020D01*
G75*
G02*
X83774192Y-79230020I0J-200000D01*
G01*
X83774192Y-80730020D01*
G75*
G02*
X83574192Y-80930020I-200000J0D01*
G01*
G37*
G36*
G01*
X84844192Y-80930020D02*
X84244192Y-80930020D01*
G75*
G02*
X84044192Y-80730020I0J200000D01*
G01*
X84044192Y-79230020D01*
G75*
G02*
X84244192Y-79030020I200000J0D01*
G01*
X84844192Y-79030020D01*
G75*
G02*
X85044192Y-79230020I0J-200000D01*
G01*
X85044192Y-80730020D01*
G75*
G02*
X84844192Y-80930020I-200000J0D01*
G01*
G37*
G36*
G01*
X86114192Y-80930020D02*
X85514192Y-80930020D01*
G75*
G02*
X85314192Y-80730020I0J200000D01*
G01*
X85314192Y-79230020D01*
G75*
G02*
X85514192Y-79030020I200000J0D01*
G01*
X86114192Y-79030020D01*
G75*
G02*
X86314192Y-79230020I0J-200000D01*
G01*
X86314192Y-80730020D01*
G75*
G02*
X86114192Y-80930020I-200000J0D01*
G01*
G37*
G36*
G01*
X87384192Y-80930020D02*
X86784192Y-80930020D01*
G75*
G02*
X86584192Y-80730020I0J200000D01*
G01*
X86584192Y-79230020D01*
G75*
G02*
X86784192Y-79030020I200000J0D01*
G01*
X87384192Y-79030020D01*
G75*
G02*
X87584192Y-79230020I0J-200000D01*
G01*
X87584192Y-80730020D01*
G75*
G02*
X87384192Y-80930020I-200000J0D01*
G01*
G37*
G36*
G01*
X88654192Y-80930020D02*
X88054192Y-80930020D01*
G75*
G02*
X87854192Y-80730020I0J200000D01*
G01*
X87854192Y-79230020D01*
G75*
G02*
X88054192Y-79030020I200000J0D01*
G01*
X88654192Y-79030020D01*
G75*
G02*
X88854192Y-79230020I0J-200000D01*
G01*
X88854192Y-80730020D01*
G75*
G02*
X88654192Y-80930020I-200000J0D01*
G01*
G37*
G36*
G01*
X89924192Y-80930020D02*
X89324192Y-80930020D01*
G75*
G02*
X89124192Y-80730020I0J200000D01*
G01*
X89124192Y-79230020D01*
G75*
G02*
X89324192Y-79030020I200000J0D01*
G01*
X89924192Y-79030020D01*
G75*
G02*
X90124192Y-79230020I0J-200000D01*
G01*
X90124192Y-80730020D01*
G75*
G02*
X89924192Y-80930020I-200000J0D01*
G01*
G37*
G36*
G01*
X89924192Y-86330020D02*
X89324192Y-86330020D01*
G75*
G02*
X89124192Y-86130020I0J200000D01*
G01*
X89124192Y-84630020D01*
G75*
G02*
X89324192Y-84430020I200000J0D01*
G01*
X89924192Y-84430020D01*
G75*
G02*
X90124192Y-84630020I0J-200000D01*
G01*
X90124192Y-86130020D01*
G75*
G02*
X89924192Y-86330020I-200000J0D01*
G01*
G37*
G36*
G01*
X88654192Y-86330020D02*
X88054192Y-86330020D01*
G75*
G02*
X87854192Y-86130020I0J200000D01*
G01*
X87854192Y-84630020D01*
G75*
G02*
X88054192Y-84430020I200000J0D01*
G01*
X88654192Y-84430020D01*
G75*
G02*
X88854192Y-84630020I0J-200000D01*
G01*
X88854192Y-86130020D01*
G75*
G02*
X88654192Y-86330020I-200000J0D01*
G01*
G37*
G36*
G01*
X87384192Y-86330020D02*
X86784192Y-86330020D01*
G75*
G02*
X86584192Y-86130020I0J200000D01*
G01*
X86584192Y-84630020D01*
G75*
G02*
X86784192Y-84430020I200000J0D01*
G01*
X87384192Y-84430020D01*
G75*
G02*
X87584192Y-84630020I0J-200000D01*
G01*
X87584192Y-86130020D01*
G75*
G02*
X87384192Y-86330020I-200000J0D01*
G01*
G37*
G36*
G01*
X86114192Y-86330020D02*
X85514192Y-86330020D01*
G75*
G02*
X85314192Y-86130020I0J200000D01*
G01*
X85314192Y-84630020D01*
G75*
G02*
X85514192Y-84430020I200000J0D01*
G01*
X86114192Y-84430020D01*
G75*
G02*
X86314192Y-84630020I0J-200000D01*
G01*
X86314192Y-86130020D01*
G75*
G02*
X86114192Y-86330020I-200000J0D01*
G01*
G37*
G36*
G01*
X84844192Y-86330020D02*
X84244192Y-86330020D01*
G75*
G02*
X84044192Y-86130020I0J200000D01*
G01*
X84044192Y-84630020D01*
G75*
G02*
X84244192Y-84430020I200000J0D01*
G01*
X84844192Y-84430020D01*
G75*
G02*
X85044192Y-84630020I0J-200000D01*
G01*
X85044192Y-86130020D01*
G75*
G02*
X84844192Y-86330020I-200000J0D01*
G01*
G37*
G36*
G01*
X83574192Y-86330020D02*
X82974192Y-86330020D01*
G75*
G02*
X82774192Y-86130020I0J200000D01*
G01*
X82774192Y-84630020D01*
G75*
G02*
X82974192Y-84430020I200000J0D01*
G01*
X83574192Y-84430020D01*
G75*
G02*
X83774192Y-84630020I0J-200000D01*
G01*
X83774192Y-86130020D01*
G75*
G02*
X83574192Y-86330020I-200000J0D01*
G01*
G37*
G36*
G01*
X82304192Y-86330020D02*
X81704192Y-86330020D01*
G75*
G02*
X81504192Y-86130020I0J200000D01*
G01*
X81504192Y-84630020D01*
G75*
G02*
X81704192Y-84430020I200000J0D01*
G01*
X82304192Y-84430020D01*
G75*
G02*
X82504192Y-84630020I0J-200000D01*
G01*
X82504192Y-86130020D01*
G75*
G02*
X82304192Y-86330020I-200000J0D01*
G01*
G37*
G36*
G01*
X81034192Y-86330020D02*
X80434192Y-86330020D01*
G75*
G02*
X80234192Y-86130020I0J200000D01*
G01*
X80234192Y-84630020D01*
G75*
G02*
X80434192Y-84430020I200000J0D01*
G01*
X81034192Y-84430020D01*
G75*
G02*
X81234192Y-84630020I0J-200000D01*
G01*
X81234192Y-86130020D01*
G75*
G02*
X81034192Y-86330020I-200000J0D01*
G01*
G37*
G36*
G01*
X92819000Y-63600000D02*
X92819000Y-62400000D01*
G75*
G02*
X93019000Y-62200000I200000J0D01*
G01*
X94219000Y-62200000D01*
G75*
G02*
X94419000Y-62400000I0J-200000D01*
G01*
X94419000Y-63600000D01*
G75*
G02*
X94219000Y-63800000I-200000J0D01*
G01*
X93019000Y-63800000D01*
G75*
G02*
X92819000Y-63600000I0J200000D01*
G01*
G37*
G36*
G01*
X90619000Y-63600000D02*
X90619000Y-62400000D01*
G75*
G02*
X90819000Y-62200000I200000J0D01*
G01*
X92019000Y-62200000D01*
G75*
G02*
X92219000Y-62400000I0J-200000D01*
G01*
X92219000Y-63600000D01*
G75*
G02*
X92019000Y-63800000I-200000J0D01*
G01*
X90819000Y-63800000D01*
G75*
G02*
X90619000Y-63600000I0J200000D01*
G01*
G37*
G36*
G01*
X80200000Y-97000000D02*
X81400000Y-97000000D01*
G75*
G02*
X81600000Y-97200000I0J-200000D01*
G01*
X81600000Y-98400000D01*
G75*
G02*
X81400000Y-98600000I-200000J0D01*
G01*
X80200000Y-98600000D01*
G75*
G02*
X80000000Y-98400000I0J200000D01*
G01*
X80000000Y-97200000D01*
G75*
G02*
X80200000Y-97000000I200000J0D01*
G01*
G37*
G36*
G01*
X80200000Y-99200000D02*
X81400000Y-99200000D01*
G75*
G02*
X81600000Y-99400000I0J-200000D01*
G01*
X81600000Y-100600000D01*
G75*
G02*
X81400000Y-100800000I-200000J0D01*
G01*
X80200000Y-100800000D01*
G75*
G02*
X80000000Y-100600000I0J200000D01*
G01*
X80000000Y-99400000D01*
G75*
G02*
X80200000Y-99200000I200000J0D01*
G01*
G37*
G36*
G01*
X89000000Y-99200000D02*
X90200000Y-99200000D01*
G75*
G02*
X90400000Y-99400000I0J-200000D01*
G01*
X90400000Y-100600000D01*
G75*
G02*
X90200000Y-100800000I-200000J0D01*
G01*
X89000000Y-100800000D01*
G75*
G02*
X88800000Y-100600000I0J200000D01*
G01*
X88800000Y-99400000D01*
G75*
G02*
X89000000Y-99200000I200000J0D01*
G01*
G37*
G36*
G01*
X89000000Y-97000000D02*
X90200000Y-97000000D01*
G75*
G02*
X90400000Y-97200000I0J-200000D01*
G01*
X90400000Y-98400000D01*
G75*
G02*
X90200000Y-98600000I-200000J0D01*
G01*
X89000000Y-98600000D01*
G75*
G02*
X88800000Y-98400000I0J200000D01*
G01*
X88800000Y-97200000D01*
G75*
G02*
X89000000Y-97000000I200000J0D01*
G01*
G37*
M02*
